<svg id="Layer_1" data-name="Layer 1" xmlns="http://www.w3.org/2000/svg" width="1100" height="400" viewBox="0 0 1100 400">
  <defs>
    <style>
      .cls-1 {
        fill: #38566b;
      }

      .cls-2 {
        fill: #1f3140;
      }
    </style>
  </defs>
  <g>
    <polygon class="cls-1" points="122.07 186.75 122.07 296.5 219.33 296.5 219.33 163.56 210.33 163.56 210.07 186.75 178.07 186.75 171.07 180.75 165.07 186.75 122.07 186.75"/>
    <polygon class="cls-1" points="269.52 296.5 269.52 188.09 251.01 188.09 251.07 182.75 241.22 182.75 241.22 188.45 219.33 188.45 219.33 296.5 269.52 296.5"/>
    <polygon class="cls-1" points="333.03 296.5 333.03 157.6 306.18 157.6 306.18 143.08 297.05 143.08 297.05 157.71 269.52 157.49 269.52 296.5 333.03 296.5"/>
    <polygon class="cls-1" points="402.5 296.5 402.5 169.48 374.27 169.48 374.27 158.97 363.46 158.97 363.46 169.48 333.03 169.75 333.03 296.5 402.5 296.5"/>
    <path class="cls-1" d="M412.45,296.5V243.23a11.37,11.37,0,0,1-5.8-12l19.39.27V178c.33-3,2.52-20.31,17.53-30.79a40.57,40.57,0,0,1,19.08-7v-6.67l5-.33V116.59a10.47,10.47,0,0,1,4.92-5.34,9.76,9.76,0,0,1,1.52-.6,9.93,9.93,0,0,1,3.48-.4,10.3,10.3,0,0,1,7,2,9.84,9.84,0,0,1,3.08,4v17.52l5,.48V140a40,40,0,0,1,37,39.27v52.69l19.92.31a14,14,0,0,1-2,10,12.31,12.31,0,0,1-2.92,3l.92,51.25Z"/>
    <path class="cls-1" d="M477.57,100.25l5.4,11a13.69,13.69,0,0,0-5.4-1,13.87,13.87,0,0,0-5,1Q475.08,105.75,477.57,100.25Z"/>
    <polygon class="cls-1" points="603.74 296.5 604.07 90.75 608.07 85.75 608.07 76.94 516.07 76.75 516.07 85.64 520.07 90.75 522.07 296.5 603.74 296.5"/>
    <polygon class="cls-1" points="599.46 296.5 599.46 192.28 854.1 192.28 897.07 215.75 899.21 296.5 599.46 296.5"/>
    <polygon class="cls-1" points="701.67 192.28 701.67 159.15 698.07 155.75 702.07 155.75 702.07 143.75 708.07 136.75 708.07 121.75 705.07 118.75 708.55 118.75 711.07 110.75 711.07 99.66 713.07 99.75 713.07 94.75 710.07 94.75 710.07 87.75 724.65 87.75 724.65 94.56 722.07 94.75 722.07 99.75 724.07 99.75 724.07 110.75 727.07 117.75 730.07 117.75 727.07 121.75 727.07 136.75 731.07 143.75 731.07 154.53 734.07 154.75 732.07 157.75 732.57 192.28 701.67 192.28"/>
    <path class="cls-1" d="M1044.07,296.75c0-.2-1-.44-2.93-1.25a43.83,43.83,0,0,1-10.78-6.35s-2.78-2.06-5.29-4.4c-5.85-5.48-12.85-15.27-17-28-2.15-6.61-6-18.4-3-33,1.67-8.16,4.46-21.82,16-27,7-3.16,16.35-2.78,23,2s8.18,12,10,20c1.13,5,1.88,11.33,1,21-1.3,14.39-2.71,29.89-14,43-4.18,4.85-12.5,14.5-24,15-3.48.15-6.55-1.14-10.66-3.35-15.18-8.16-24-21.19-26.34-24.65-20.16-29.67-30.23-44.5-44-53a67.38,67.38,0,0,0-29-10c-15.83-1.51-30.16,3.73-30,5,.09.7,4.6.06,15,1a105.36,105.36,0,0,1,19,3,79.9,79.9,0,0,1,20,9c14.16,9.28,10.62,17.19,28,39a139.34,139.34,0,0,0,32,29c3.95,2.58,6,3.89,9,5,16.34,6,35.28-2.49,46-11,22.1-17.55,25.32-48,20-68-1.55-5.82-3.79-13.82-11-20-11.58-9.93-30.6-10.54-44-2-11.66,7.43-15.27,19.36-16,22-1.76,6.38-1.17,11.26,0,21,1,8.37,2.45,19.47,9,32,4.4,8.42,8,15.23,16,20C1030.86,298.15,1043.93,297.43,1044.07,296.75Z"/>
    <polygon class="cls-1" points="928.02 296.5 977.18 296.5 977.18 283.17 976.07 252.75 972.69 252.75 972.69 241.76 972.69 228.4 975.05 228.4 975.07 223.75 968.86 223.75 969.07 195.75 964.6 195.75 964.07 185.75 941.18 185.75 941.07 195.75 936.07 195.75 936.07 199.75 936.07 221.75 930.07 221.75 930.07 226.75 932.47 226.85 932.07 253.75 928.02 253.75 928.02 296.5"/>
    <path class="cls-1" d="M928,253.75a12,12,0,0,1-3.95,3,12.37,12.37,0,0,1-7,1,10.73,10.73,0,0,1-5-1,10.88,10.88,0,0,1-5-5,19.17,19.17,0,0,0,3,9c5.7,8.7,16.73,9,17.95,9.05Z"/>
    <path class="cls-1" d="M976.07,252.72a12.14,12.14,0,0,0,3.95,3,12.37,12.37,0,0,0,7,1,10.73,10.73,0,0,0,5-1,10.88,10.88,0,0,0,5-5,19.17,19.17,0,0,1-3,9c-5.7,8.7-16.73,9-17.95,9.06Z"/>
    <path class="cls-1" d="M920.07,199.75c1.55.68,3.22,1.36,5,2,1,.36,2,.69,3,1a7.23,7.23,0,0,0,6,0,6.87,6.87,0,0,0,3-3v15a24.39,24.39,0,0,1-17-15Z"/>
    <path class="cls-1" d="M985.07,199.73c-1.55.69-3.22,1.37-5,2-1,.37-2,.7-3,1a7.19,7.19,0,0,1-6,0,6.77,6.77,0,0,1-3-3v15a24.39,24.39,0,0,0,17-15Z"/>
    <path class="cls-1" d="M989.07,226.73c-1.55.69-3.22,1.37-5,2-1,.37-2,.7-3,1a7.19,7.19,0,0,1-6,0,6.77,6.77,0,0,1-3-3v15a24.39,24.39,0,0,0,17-15Z"/>
    <path class="cls-1" d="M916.07,226.73c1.55.69,3.22,1.37,5,2,1,.37,2,.7,3,1a7.19,7.19,0,0,0,6,0,6.77,6.77,0,0,0,3-3v15a24.39,24.39,0,0,1-17-15Z"/>
    <path class="cls-1" d="M953.07,163.75a20.16,20.16,0,0,0,5,8,19.87,19.87,0,0,0,4,3,15.41,15.41,0,0,0,9,0,14.7,14.7,0,0,0,4-2,19.65,19.65,0,0,1-6,10c-6.56,5.77-14.71,4.77-16,4.59Z"/>
    <path class="cls-1" d="M953.07,163.7a20.16,20.16,0,0,1-5,8,19.87,19.87,0,0,1-4,3,15.41,15.41,0,0,1-9,0,14.7,14.7,0,0,1-4-2,19.73,19.73,0,0,0,6,10c6.57,5.77,14.71,4.77,16,4.59Z"/>
    <path class="cls-1" d="M135.07,292.75a57.42,57.42,0,0,0-23.5-21.5,52.56,52.56,0,0,0-9.5-3.5l-3-8-10,1-14.5,1.5-8.5-.5-6.8-2a3.06,3.06,0,0,0-2.7.5c-.7.62-.67,1.5-1,4-.18,1.41-.38,2.53-.5,3.2a19.11,19.11,0,0,1-4.5,4.8,19.42,19.42,0,0,1-4.5,2.5V296.5h89Z"/>
    <polygon class="cls-1" points="60.57 222.25 47.57 231.25 47.57 245.93 58.57 254.25 62.36 260.66 78.57 265.25 99.77 261.61 105.57 259.25 105.57 241.4 94.57 228.25 85.15 225.75 76.57 225.75 73.24 222.25 60.57 222.25"/>
    <path class="cls-1" d="M97.57,231.25l-4-8-6-9V198.86l-5-2.61a13.8,13.8,0,0,0,1-2,14.23,14.23,0,0,0,1-6,7.16,7.16,0,0,0-3-4,6.8,6.8,0,0,0-3-1,5.26,5.26,0,0,0-4,1,5.38,5.38,0,0,0-2,4,7.4,7.4,0,0,0,2,5,6.92,6.92,0,0,0,2,1.39,9.53,9.53,0,0,0-5,2.61,9.38,9.38,0,0,0-2,3q-2.5,5.49-5,11a15.51,15.51,0,0,0,0,11l12,9.87Z"/>
  </g>
  <g>
    <polygon class="cls-2" points="124 187 124 296.75 221.26 296.75 221.26 163.81 212.26 163.81 212 187 180 187 173 181 167 187 124 187"/>
    <polygon class="cls-2" points="271.45 296.75 271.45 188.34 252.94 188.34 253 183 243.14 183 243.14 188.7 221.26 188.7 221.26 296.75 271.45 296.75"/>
    <polygon class="cls-2" points="334.96 296.75 334.96 157.85 308.11 157.85 308.11 143.34 298.98 143.34 298.98 157.96 271.45 157.74 271.45 296.75 334.96 296.75"/>
    <polygon class="cls-2" points="404.43 296.75 404.43 169.74 376.2 169.74 376.2 159.23 365.39 159.23 365.39 169.74 334.96 170 334.96 296.75 404.43 296.75"/>
    <path class="cls-2" d="M414.38,296.75V243.48a11.37,11.37,0,0,1-5.8-12l19.39.27V178.29c.33-3,2.52-20.31,17.53-30.79a40.79,40.79,0,0,1,19.08-7v-6.66l5-.34V116.85a10.45,10.45,0,0,1,4.92-5.35,9.76,9.76,0,0,1,1.52-.6,10.44,10.44,0,0,1,3.48-.4,10.3,10.3,0,0,1,7,2,10,10,0,0,1,3.08,4V134l5,.48v5.73a40,40,0,0,1,37,39.27v52.69l19.92.31a14,14,0,0,1-2,10,12.31,12.31,0,0,1-2.92,3l.92,51.25Z"/>
    <path class="cls-2" d="M479.5,100.5l5.4,11a14.07,14.07,0,0,0-5.4-1,13.87,13.87,0,0,0-5,1Z"/>
    <polygon class="cls-2" points="605.67 296.75 606 91 610 86 610 77.19 518 77 518 85.9 522 91 524 296.75 605.67 296.75"/>
    <polygon class="cls-2" points="601.39 296.75 601.39 192.54 856.03 192.54 899 216 901.14 296.75 601.39 296.75"/>
    <polygon class="cls-2" points="703.6 192.54 703.6 159.41 700 156 704 156 704 144 710 137 710 122 707 119 710.48 119 713 111 713 99.91 715 100 715 95 712 95 712 88 726.58 88 726.58 94.81 724 95 724 100 726 100 726 111 729 118 732 118 729 122 729 137 733 144 733 154.79 736 155 734 158 734.5 192.54 703.6 192.54"/>
    <path class="cls-2" d="M1046,297c0-.19-1-.44-2.93-1.25a43.83,43.83,0,0,1-10.78-6.35A67.36,67.36,0,0,1,1027,285c-5.86-5.47-12.86-15.27-17-28-2.15-6.6-6-18.39-3-33,1.67-8.16,4.46-21.81,16-27,7-3.15,16.35-2.77,23,2s8.18,12,10,20c1.13,5,1.88,11.34,1,21-1.3,14.39-2.71,29.9-14,43-4.18,4.85-12.5,14.51-24,15-3.48.15-6.55-1.13-10.66-3.34-15.18-8.17-24-21.19-26.34-24.66-20.16-29.67-30.24-44.5-44-53a67.52,67.52,0,0,0-29-10c-15.83-1.51-30.16,3.74-30,5,.09.7,4.6.07,15,1a106.26,106.26,0,0,1,19,3,79.9,79.9,0,0,1,20,9c14.16,9.28,10.62,17.2,28,39a139.34,139.34,0,0,0,32,29c4,2.58,6,3.89,9,5,16.33,6,35.28-2.48,46-11,22.09-17.55,25.32-48,20-68-1.55-5.82-3.79-13.82-11-20-11.58-9.93-30.6-10.54-44-2-11.66,7.43-15.27,19.36-16,22-1.76,6.39-1.17,11.26,0,21,1,8.37,2.45,19.48,9,32,4.4,8.42,8,15.23,16,20C1032.79,298.4,1045.86,297.68,1046,297Z"/>
    <polygon class="cls-2" points="929.95 296.75 979.11 296.75 979.11 283.43 978 253 974.62 253 974.62 242.01 974.62 228.66 976.98 228.66 977 224 970.78 224 971 196 966.53 196 966 186 943.11 186 943 196 938 196 938 200 938 222 932 222 932 227 934.4 227.11 934 254 929.95 254 929.95 296.75"/>
    <path class="cls-2" d="M930,254a12.14,12.14,0,0,1-4,3,12.28,12.28,0,0,1-7,1,10.61,10.61,0,0,1-5-1,10.83,10.83,0,0,1-5-5,19.13,19.13,0,0,0,3,9c5.7,8.7,16.73,9,18,9.06Z"/>
    <path class="cls-2" d="M978,253a12,12,0,0,0,4,3,12.2,12.2,0,0,0,7,1,10.48,10.48,0,0,0,5-1,10.79,10.79,0,0,0,5-5,19.25,19.25,0,0,1-3,9c-5.7,8.7-16.73,9-18,9.06Z"/>
    <path class="cls-2" d="M922,200q2.32,1,5,2c1,.37,2,.7,3,1a7.19,7.19,0,0,0,6,0,6.87,6.87,0,0,0,3-3v15a24.39,24.39,0,0,1-17-15Z"/>
    <path class="cls-2" d="M987,200c-1.55.68-3.22,1.36-5,2-1,.36-2,.7-3,1a7.23,7.23,0,0,1-6,0,6.87,6.87,0,0,1-3-3v15a24.39,24.39,0,0,0,17-15Z"/>
    <path class="cls-2" d="M991,227c-1.55.68-3.22,1.36-5,2-1,.36-2,.7-3,1a7.23,7.23,0,0,1-6,0,6.87,6.87,0,0,1-3-3v15a24.39,24.39,0,0,0,17-15Z"/>
    <path class="cls-2" d="M918,227c1.55.68,3.22,1.36,5,2,1,.36,2,.7,3,1a7.23,7.23,0,0,0,6,0,6.87,6.87,0,0,0,3-3v15a24.39,24.39,0,0,1-17-15Z"/>
    <path class="cls-2" d="M955,164a20.16,20.16,0,0,0,5,8,19.87,19.87,0,0,0,4,3,15.33,15.33,0,0,0,9,0,14.42,14.42,0,0,0,4-2,19.65,19.65,0,0,1-6,10c-6.56,5.77-14.71,4.77-16,4.59Z"/>
    <path class="cls-2" d="M955,164a20.16,20.16,0,0,1-5,8,19.87,19.87,0,0,1-4,3,15.33,15.33,0,0,1-9,0,14.42,14.42,0,0,1-4-2,19.65,19.65,0,0,0,6,10c6.56,5.77,14.71,4.77,16,4.59Z"/>
    <path class="cls-2" d="M137,293a57.49,57.49,0,0,0-23.5-21.5A53.33,53.33,0,0,0,104,268l-3-8-10,1-14.5,1.5L68,262l-6.8-2a3.1,3.1,0,0,0-2.7.5c-.7.62-.67,1.5-1,4-.18,1.41-.38,2.53-.5,3.21A19,19,0,0,1,48,275v21.75h89Z"/>
    <polygon class="cls-2" points="62.5 222.5 49.5 231.5 49.5 246.19 60.5 254.5 64.29 260.91 80.5 265.5 101.7 261.86 107.5 259.5 107.5 241.66 96.5 228.5 87.08 226 78.5 226 75.17 222.5 62.5 222.5"/>
    <path class="cls-2" d="M99.5,231.5l-4-8-6-9V199.11l-5-2.61a13.3,13.3,0,0,0,1-2,14.39,14.39,0,0,0,1-6,7.16,7.16,0,0,0-3-4,6.93,6.93,0,0,0-3-1,5.31,5.31,0,0,0-4,1,5.39,5.39,0,0,0-2,4,7.4,7.4,0,0,0,2,5,6.61,6.61,0,0,0,2,1.39,9.61,9.61,0,0,0-5,2.61,9.21,9.21,0,0,0-2,3l-5,11a15.51,15.51,0,0,0,0,11l12,9.87Z"/>
  </g>
</svg>
