<svg id="Layer_1" data-name="Layer 1" xmlns="http://www.w3.org/2000/svg" width="330" height="330" viewBox="0 0 330 330">
  <defs>
    <style>
      .cls-1 {
        fill: #f2e5bd;
        stroke: #99522e;
        stroke-miterlimit: 10;
        stroke-width: 3px;
      }

      .cls-2 {
        fill: #c6b68b;
      }

      .cls-3 {
        fill: #bf7b54;
      }
    </style>
  </defs>
  <circle class="cls-1" cx="164.55" cy="164.61" r="150.5"/>
  <g>
    <path class="cls-2" d="M74.06,125.08,46.59,110.86l3.4-6.58a12,12,0,0,1,3.32-4.15,7.69,7.69,0,0,1,4.18-1.6,8.54,8.54,0,0,1,4.6,1.06,9.05,9.05,0,0,1,3.59,3.17,8.21,8.21,0,0,1,1.26,4.43,11.06,11.06,0,0,1-1.38,5.15L63.1,117.1,75,123.27Zm-12.55-8.8,2.3-4.42A9.76,9.76,0,0,0,65,107.62,6.62,6.62,0,0,0,64,104a7,7,0,0,0-2.85-2.58,6.78,6.78,0,0,0-3.73-.83A6.29,6.29,0,0,0,54.05,102a9.92,9.92,0,0,0-2.73,3.43L49,109.82Z"/>
    <path class="cls-2" d="M96.32,93.86a14.8,14.8,0,0,1-5.18,3.4,15.62,15.62,0,0,1-6,1,16.39,16.39,0,0,1-16-16.17,15.58,15.58,0,0,1,1.11-5.94,15.53,15.53,0,0,1,8.64-8.54,15.54,15.54,0,0,1,5.95-1,16.12,16.12,0,0,1,11.24,4.87,16.19,16.19,0,0,1,4.76,11.29,15.51,15.51,0,0,1-1.11,5.94A15,15,0,0,1,96.32,93.86Zm-1.38-1.4a12.57,12.57,0,0,0,3-4.46,13.15,13.15,0,0,0,.91-5.15,14.11,14.11,0,0,0-1.12-5.19A15.14,15.14,0,0,0,90,69.85a14.1,14.1,0,0,0-5.18-1.18,13.4,13.4,0,0,0-5.16.86,13.23,13.23,0,0,0-7.45,7.37,13.36,13.36,0,0,0-.9,5.15,14,14,0,0,0,1.12,5.2,15.07,15.07,0,0,0,7.73,7.8,14.1,14.1,0,0,0,5.18,1.18,13.14,13.14,0,0,0,5.15-.86A12.63,12.63,0,0,0,94.94,92.46Z"/>
    <path class="cls-2" d="M114.4,78.65,100.47,51l6.61-3.33a12,12,0,0,1,5.09-1.41,7.94,7.94,0,0,1,4.34,1.13A8.62,8.62,0,0,1,119.63,51a9,9,0,0,1,1.05,4.45,8,8,0,0,1-1.31,4.08,10.39,10.39,0,0,1-3.51,3.27l15.31,7.41-2.32,1.18L113.8,64l-3.6,1.82,6,11.93Zm-5-14.48,4.46-2.24a9.64,9.64,0,0,0,3.41-2.71,6.75,6.75,0,0,0,1.39-3.47,7.06,7.06,0,0,0-.81-3.82,6.39,6.39,0,0,0-4.22-3.56,8.78,8.78,0,0,0-6.11,1l-4.45,2.25Z"/>
    <path class="cls-2" d="M143.19,67.24,136.9,38.91,127.29,41l-.41-1.87,21.23-4.71.42,1.87-9.63,2.13,6.28,28.34Z"/>
    <path class="cls-2" d="M162.39,64.53l1.06-30.92,15.21.52L178.6,36l-14.22-.48,1.07-.7-.51,15.12-1-1.72,13.36.46-.06,1.8L163.88,50,165,48.32l-.56,16.28Z"/>
    <path class="cls-2" d="M198.07,70.92a14.89,14.89,0,0,1-5.31-3.2,15.37,15.37,0,0,1-3.53-4.9,16,16,0,0,1-1.45-5.94,16.36,16.36,0,0,1,9.05-15.49,15.53,15.53,0,0,1,5.83-1.59,15.16,15.16,0,0,1,6.14.87,14.89,14.89,0,0,1,5.31,3.2,15.45,15.45,0,0,1,3.54,4.9A16.4,16.4,0,0,1,210,70.21a15.71,15.71,0,0,1-5.83,1.58A15.16,15.16,0,0,1,198.07,70.92Zm.66-1.85a12.84,12.84,0,0,0,5.31.73,13.39,13.39,0,0,0,5-1.42,14.33,14.33,0,0,0,4.19-3.27,14.48,14.48,0,0,0,2.81-4.83,14.63,14.63,0,0,0,.87-5.52,14.13,14.13,0,0,0-1.2-5.18,13.09,13.09,0,0,0-3-4.27,13.13,13.13,0,0,0-9.88-3.51,13.21,13.21,0,0,0-5,1.42,14,14,0,0,0-4.19,3.27A15.17,15.17,0,0,0,190,56.84a14.17,14.17,0,0,0,1.2,5.18,13.2,13.2,0,0,0,3,4.27A12.74,12.74,0,0,0,198.73,69.07Z"/>
    <path class="cls-2" d="M219.63,80.73,238.17,56l1.64,1.23L222.36,80.5l10.73,8L232,90Z"/>
    <path class="cls-2" d="M237.46,95.89l22.69-21,1.39,1.5-22.7,21Z"/>
    <path class="cls-2" d="M252.18,117.28a15.13,15.13,0,0,1-1.79-5.94,15.6,15.6,0,0,1,.67-6,16.4,16.4,0,0,1,20-10.79,15.52,15.52,0,0,1,5.38,2.75,15.51,15.51,0,0,1,5.76,10.7,15.41,15.41,0,0,1-.67,6,16.34,16.34,0,0,1-2.91,5.37,16.4,16.4,0,0,1-17.11,5.41,15.37,15.37,0,0,1-5.39-2.74A15.11,15.11,0,0,1,252.18,117.28Zm1.73-.93a12.76,12.76,0,0,0,3.45,4.1,13.36,13.36,0,0,0,4.68,2.33,14.25,14.25,0,0,0,5.3.39A15.19,15.19,0,0,0,277,118a14.29,14.29,0,0,0,2.59-4.64,13.44,13.44,0,0,0,.63-5.19,13.15,13.15,0,0,0-5-9.23,13.17,13.17,0,0,0-4.68-2.32,14,14,0,0,0-5.3-.39,15.13,15.13,0,0,0-9.67,5.2A14.16,14.16,0,0,0,253,106a13.18,13.18,0,0,0-.64,5.18A12.76,12.76,0,0,0,253.91,116.35Z"/>
  </g>
  <g>
    <path class="cls-3" d="M75.57,125.51,48.09,111.28l3.41-6.57a11.9,11.9,0,0,1,3.32-4.15A7.67,7.67,0,0,1,59,99,8.68,8.68,0,0,1,63.6,100a9.12,9.12,0,0,1,3.58,3.18,8.1,8.1,0,0,1,1.27,4.42,11.1,11.1,0,0,1-1.38,5.16l-2.47,4.76,11.91,6.16ZM63,116.71l2.29-4.43a9.49,9.49,0,0,0,1.18-4.23,6.65,6.65,0,0,0-.94-3.63,7,7,0,0,0-2.86-2.58A6.82,6.82,0,0,0,59,101a6.43,6.43,0,0,0-3.42,1.37,10.11,10.11,0,0,0-2.72,3.43l-2.3,4.43Z"/>
    <path class="cls-3" d="M97.83,94.29a15,15,0,0,1-5.19,3.39,15.54,15.54,0,0,1-6,1,16.36,16.36,0,0,1-16-16.16,15.51,15.51,0,0,1,1.11-5.94,15.61,15.61,0,0,1,8.63-8.55,15.62,15.62,0,0,1,6-1,16.2,16.2,0,0,1,6,1.28,16.43,16.43,0,0,1,10,14.88,15.59,15.59,0,0,1-1.11,6A15.11,15.11,0,0,1,97.83,94.29Zm-1.39-1.4a12.59,12.59,0,0,0,3-4.47,13.28,13.28,0,0,0,.91-5.14,14.32,14.32,0,0,0-1.12-5.2,15.14,15.14,0,0,0-7.73-7.81,14.34,14.34,0,0,0-5.19-1.17,13.31,13.31,0,0,0-5.15.85,12.84,12.84,0,0,0-4.5,2.92,12.68,12.68,0,0,0-2.95,4.46,13.13,13.13,0,0,0-.91,5.14,14.12,14.12,0,0,0,1.12,5.2A14.53,14.53,0,0,0,77,92.3a14.74,14.74,0,0,0,4.6,3.18,14.34,14.34,0,0,0,5.19,1.17A13.31,13.31,0,0,0,92,95.8,12.64,12.64,0,0,0,96.44,92.89Z"/>
    <path class="cls-3" d="M115.91,79.08,102,51.46l6.61-3.34a11.89,11.89,0,0,1,5.09-1.4A7.73,7.73,0,0,1,118,47.85a8.48,8.48,0,0,1,3.13,3.55,9,9,0,0,1,1,4.45,8.11,8.11,0,0,1-1.31,4.09,10.37,10.37,0,0,1-3.51,3.26l15.31,7.42-2.33,1.17-15-7.38-3.6,1.81,6,11.94Zm-5-14.48,4.45-2.25a9.64,9.64,0,0,0,3.41-2.71,6.52,6.52,0,0,0,1.39-3.47,6.83,6.83,0,0,0-.81-3.81,6.37,6.37,0,0,0-4.21-3.57,8.78,8.78,0,0,0-6.11,1L104.56,52Z"/>
    <path class="cls-3" d="M144.69,67.67l-6.28-28.34-9.61,2.13-.42-1.87,21.24-4.71.41,1.87-9.63,2.14,6.29,28.33Z"/>
    <path class="cls-3" d="M163.9,65,165,34l15.21.52-.06,1.82-14.22-.49L167,35.2l-.52,15.12-1-1.73,13.36.46-.06,1.8-13.36-.46,1.11-1.65L165.94,65Z"/>
    <path class="cls-3" d="M199.57,71.35a15.22,15.22,0,0,1-5.31-3.2,15.57,15.57,0,0,1-3.53-4.91,16.37,16.37,0,0,1,7.61-21.43,15.34,15.34,0,0,1,5.83-1.58,15.48,15.48,0,0,1,11.45,4.06,15.53,15.53,0,0,1,3.53,4.9,16.11,16.11,0,0,1,.49,12.25,16.25,16.25,0,0,1-8.09,9.19,15.57,15.57,0,0,1-5.84,1.58A15,15,0,0,1,199.57,71.35Zm.66-1.86a12.69,12.69,0,0,0,5.31.73,13.16,13.16,0,0,0,5-1.42,14,14,0,0,0,4.2-3.27,15.09,15.09,0,0,0,3.67-10.35,14.17,14.17,0,0,0-1.2-5.18,13.15,13.15,0,0,0-3-4.27A12.61,12.61,0,0,0,209.65,43a12.74,12.74,0,0,0-5.29-.73,13.34,13.34,0,0,0-5,1.42,14.37,14.37,0,0,0-4.2,3.27,15.09,15.09,0,0,0-3.67,10.35,14.13,14.13,0,0,0,1.2,5.18,13.09,13.09,0,0,0,3,4.28A12.76,12.76,0,0,0,200.23,69.49Z"/>
    <path class="cls-3" d="M221.14,81.16l18.54-24.77,1.63,1.22L223.87,80.92l10.73,8-1.09,1.45Z"/>
    <path class="cls-3" d="M239,96.31l22.7-21,1.39,1.5-22.7,21Z"/>
    <path class="cls-3" d="M253.69,117.7a14.76,14.76,0,0,1-1.79-5.93,15.44,15.44,0,0,1,.67-6A16.36,16.36,0,0,1,272.6,95,15.59,15.59,0,0,1,278,97.72a15.51,15.51,0,0,1,5.76,10.7,15.6,15.6,0,0,1-.67,6,16.39,16.39,0,0,1-20,10.79,15.52,15.52,0,0,1-5.38-2.75A14.87,14.87,0,0,1,253.69,117.7Zm1.73-.93a12.8,12.8,0,0,0,3.45,4.11,13.33,13.33,0,0,0,4.68,2.32,14.25,14.25,0,0,0,5.3.39,15.08,15.08,0,0,0,9.67-5.21,14,14,0,0,0,2.59-4.64,13.21,13.21,0,0,0,.64-5.19,13.16,13.16,0,0,0-5-9.22A13.19,13.19,0,0,0,272.1,97a14.25,14.25,0,0,0-5.3-.39,15.19,15.19,0,0,0-9.68,5.21,14.29,14.29,0,0,0-2.59,4.64,13.39,13.39,0,0,0-.63,5.19A12.72,12.72,0,0,0,255.42,116.77Z"/>
  </g>
  <g>
    <path class="cls-2" d="M255.24,205l27.47,14.23-3.4,6.57A11.9,11.9,0,0,1,276,230a7.7,7.7,0,0,1-4.18,1.61,8.66,8.66,0,0,1-4.6-1.06,9.05,9.05,0,0,1-3.58-3.18,8.1,8.1,0,0,1-1.27-4.42,11.1,11.1,0,0,1,1.38-5.16l2.47-4.76-11.91-6.16Zm12.55,8.8-2.3,4.43a9.6,9.6,0,0,0-1.17,4.23,6.57,6.57,0,0,0,.94,3.63,6.94,6.94,0,0,0,2.85,2.57,6.8,6.8,0,0,0,3.73.84,6.37,6.37,0,0,0,3.41-1.37,10,10,0,0,0,2.73-3.43l2.3-4.43Z"/>
    <path class="cls-2" d="M233,236.24a15,15,0,0,1,5.19-3.39,15.35,15.35,0,0,1,6-1,16.38,16.38,0,0,1,16,16.16A15.51,15.51,0,0,1,259,253.9a15.58,15.58,0,0,1-8.64,8.55,15.54,15.54,0,0,1-6,1.05,16.19,16.19,0,0,1-11.24-4.88,16.15,16.15,0,0,1-4.76-11.29,15.58,15.58,0,0,1,1.11-5.94A15,15,0,0,1,233,236.24Zm1.38,1.4a12.7,12.7,0,0,0-3,4.47,13.1,13.1,0,0,0-.91,5.14,14.16,14.16,0,0,0,1.12,5.2,15.14,15.14,0,0,0,7.73,7.81,14.29,14.29,0,0,0,5.18,1.17,13.33,13.33,0,0,0,5.16-.85,13.21,13.21,0,0,0,7.45-7.38,13.32,13.32,0,0,0,.91-5.14,14.32,14.32,0,0,0-1.12-5.2,15.23,15.23,0,0,0-7.73-7.81,14.18,14.18,0,0,0-5.19-1.17,13.13,13.13,0,0,0-5.15.85A12.77,12.77,0,0,0,234.36,237.64Z"/>
    <path class="cls-2" d="M214.9,251.45l13.94,27.62-6.62,3.34a11.82,11.82,0,0,1-5.09,1.4,7.8,7.8,0,0,1-4.33-1.13,8.51,8.51,0,0,1-3.13-3.56,9,9,0,0,1-1-4.44,8.11,8.11,0,0,1,1.31-4.09,10.37,10.37,0,0,1,3.51-3.26l-15.31-7.42,2.33-1.17,15,7.38,3.6-1.81-6-11.94Zm5,14.48-4.45,2.25a9.68,9.68,0,0,0-3.42,2.71,6.68,6.68,0,0,0-1.39,3.47,6.93,6.93,0,0,0,.82,3.81,6.34,6.34,0,0,0,4.21,3.57,8.78,8.78,0,0,0,6.11-1l4.45-2.24Z"/>
    <path class="cls-2" d="M186.12,262.86l6.28,28.34,9.61-2.13.41,1.87-21.23,4.7-.41-1.86,9.62-2.14-6.28-28.33Z"/>
    <path class="cls-2" d="M166.91,265.57l-1.06,30.92L150.64,296l.06-1.82,14.22.49-1.07.69.51-15.12,1,1.72L152,281.48l.06-1.8,13.36.46-1.11,1.65.56-16.29Z"/>
    <path class="cls-2" d="M131.23,259.18a15,15,0,0,1,5.31,3.2,15.56,15.56,0,0,1,3.54,4.9,16.24,16.24,0,0,1,.49,12.25,16.23,16.23,0,0,1-8.1,9.19,15.52,15.52,0,0,1-5.83,1.58,15.48,15.48,0,0,1-11.45-4.06,15.57,15.57,0,0,1-3.53-4.91,16,16,0,0,1-1.45-5.93,16.4,16.4,0,0,1,9.05-15.5,15.34,15.34,0,0,1,5.83-1.58A15,15,0,0,1,131.23,259.18Zm-.66,1.86a12.65,12.65,0,0,0-5.31-.73,13.21,13.21,0,0,0-5,1.42A14.13,14.13,0,0,0,116,265a15.14,15.14,0,0,0-3.67,10.36,14.16,14.16,0,0,0,1.19,5.18,13.3,13.3,0,0,0,3,4.27,12.74,12.74,0,0,0,4.59,2.78,12.89,12.89,0,0,0,5.29.73,13.34,13.34,0,0,0,5-1.42,14.39,14.39,0,0,0,7-8.1,14.45,14.45,0,0,0,.87-5.53,14.22,14.22,0,0,0-1.2-5.18,13.3,13.3,0,0,0-3-4.27A12.72,12.72,0,0,0,130.57,261Z"/>
    <path class="cls-2" d="M109.67,249.37,91.13,274.14l-1.64-1.22,17.45-23.32-10.73-8,1.09-1.45Z"/>
    <path class="cls-2" d="M91.85,234.22l-22.7,21-1.39-1.5,22.7-21Z"/>
    <path class="cls-2" d="M77.12,212.83a14.92,14.92,0,0,1,1.79,5.93,15.44,15.44,0,0,1-.67,6A16.6,16.6,0,0,1,64.3,236.08a16.37,16.37,0,0,1-6.09-.53,15.5,15.5,0,0,1-5.38-2.74,15.51,15.51,0,0,1-5.76-10.7,15.48,15.48,0,0,1,.67-6,16.4,16.4,0,0,1,20-10.78,15.35,15.35,0,0,1,5.38,2.75A14.87,14.87,0,0,1,77.12,212.83Zm-1.73.93a12.8,12.8,0,0,0-3.45-4.11,13.33,13.33,0,0,0-4.68-2.32,14,14,0,0,0-5.3-.39,15,15,0,0,0-9.67,5.21,13.84,13.84,0,0,0-2.59,4.64,13.18,13.18,0,0,0-.64,5.18,13.15,13.15,0,0,0,5,9.23,13.36,13.36,0,0,0,4.68,2.33,14.25,14.25,0,0,0,5.3.39,15.14,15.14,0,0,0,9.67-5.21,13.93,13.93,0,0,0,2.59-4.64,13.21,13.21,0,0,0,.64-5.19A12.72,12.72,0,0,0,75.39,213.76Z"/>
  </g>
  <g>
    <path class="cls-3" d="M253.74,204.6l27.47,14.22-3.41,6.58a12,12,0,0,1-3.32,4.15,7.72,7.72,0,0,1-4.18,1.61,8.69,8.69,0,0,1-4.6-1.07,9,9,0,0,1-3.58-3.17,8.22,8.22,0,0,1-1.27-4.43,11.06,11.06,0,0,1,1.38-5.15l2.47-4.76-11.9-6.17Zm12.54,8.8L264,217.83a9.42,9.42,0,0,0-1.18,4.23,6.62,6.62,0,0,0,.94,3.62,7,7,0,0,0,2.86,2.58,6.77,6.77,0,0,0,3.73.83,6.32,6.32,0,0,0,3.41-1.37,10.15,10.15,0,0,0,2.73-3.43l2.29-4.43Z"/>
    <path class="cls-3" d="M231.47,235.82a14.93,14.93,0,0,1,5.19-3.4,15.57,15.57,0,0,1,6-1,16.26,16.26,0,0,1,11.24,4.88,16.08,16.08,0,0,1,4.76,11.29,15.58,15.58,0,0,1-1.11,5.94,15.55,15.55,0,0,1-8.63,8.54,15.2,15.2,0,0,1-6,1.05,16.07,16.07,0,0,1-11.24-4.87,16.19,16.19,0,0,1-4.76-11.29A15.32,15.32,0,0,1,228,241,15.08,15.08,0,0,1,231.47,235.82Zm1.39,1.4a12.6,12.6,0,0,0-3,4.46,13.37,13.37,0,0,0-.91,5.15A14.64,14.64,0,0,0,243,261a13.32,13.32,0,0,0,5.15-.86,13.15,13.15,0,0,0,7.45-7.37,13.18,13.18,0,0,0,.91-5.15,14.21,14.21,0,0,0-1.12-5.2,15.17,15.17,0,0,0-7.73-7.8,14.1,14.1,0,0,0-5.18-1.18,13.37,13.37,0,0,0-5.16.86A12.73,12.73,0,0,0,232.86,237.22Z"/>
    <path class="cls-3" d="M213.4,251l13.93,27.62L220.72,282a11.88,11.88,0,0,1-5.09,1.41,7.91,7.91,0,0,1-4.34-1.13,8.51,8.51,0,0,1-3.13-3.56,9,9,0,0,1-1-4.45,8.05,8.05,0,0,1,1.32-4.08,10.33,10.33,0,0,1,3.5-3.26l-15.31-7.42,2.33-1.18,15,7.39,3.6-1.82-6-11.93Zm5,14.48L214,267.75a9.64,9.64,0,0,0-3.41,2.71,6.66,6.66,0,0,0-1.39,3.47,7.06,7.06,0,0,0,.81,3.82,6.35,6.35,0,0,0,4.21,3.56,8.72,8.72,0,0,0,6.11-1l4.46-2.25Z"/>
    <path class="cls-3" d="M184.61,262.44l6.28,28.34,9.61-2.14.42,1.87-21.24,4.71-.41-1.87,9.63-2.13-6.29-28.34Z"/>
    <path class="cls-3" d="M165.4,265.15l-1.05,30.92-15.22-.52.06-1.82,14.23.49-1.08.69.52-15.12,1,1.72-13.36-.46.06-1.8,13.36.46-1.11,1.65.56-16.28Z"/>
    <path class="cls-3" d="M129.73,258.76A15,15,0,0,1,135,262a15.53,15.53,0,0,1,3.53,4.9A16.2,16.2,0,0,1,140,272.8a16.82,16.82,0,0,1-4.18,11.8,16.26,16.26,0,0,1-4.86,3.7,15.76,15.76,0,0,1-5.84,1.58A15.19,15.19,0,0,1,119,289a15,15,0,0,1-5.31-3.2,15.42,15.42,0,0,1-3.53-4.9A16.41,16.41,0,0,1,108.7,275a16.4,16.4,0,0,1,9-15.5,15.58,15.58,0,0,1,5.84-1.59A15.19,15.19,0,0,1,129.73,258.76Zm-.66,1.86a12.7,12.7,0,0,0-5.31-.74,13.34,13.34,0,0,0-5,1.42,14.89,14.89,0,0,0-7.87,13.62,14.13,14.13,0,0,0,1.2,5.18,13.24,13.24,0,0,0,3,4.28,13.13,13.13,0,0,0,9.88,3.5,13.21,13.21,0,0,0,5-1.42,14.12,14.12,0,0,0,4.19-3.27,15.09,15.09,0,0,0,3.67-10.35,14.37,14.37,0,0,0-1.19-5.18,13.33,13.33,0,0,0-3-4.27A12.54,12.54,0,0,0,129.07,260.62Z"/>
    <path class="cls-3" d="M108.16,249,89.63,273.72,88,272.49l17.44-23.31-10.73-8,1.09-1.46Z"/>
    <path class="cls-3" d="M90.34,233.8l-22.7,21-1.38-1.5L89,232.3Z"/>
    <path class="cls-3" d="M75.61,212.4a15,15,0,0,1,1.8,5.94,15.6,15.6,0,0,1-.68,6,16.39,16.39,0,0,1-20,10.79,15.57,15.57,0,0,1-5.39-2.75,15.52,15.52,0,0,1-5.76-10.69,15.63,15.63,0,0,1,.67-6,16.18,16.18,0,0,1,7.86-9.4,16.18,16.18,0,0,1,12.17-1.38,15.63,15.63,0,0,1,5.39,2.74A15,15,0,0,1,75.61,212.4Zm-1.73.94a12.8,12.8,0,0,0-3.45-4.11,13.19,13.19,0,0,0-4.68-2.33,14.24,14.24,0,0,0-5.3-.39,15.2,15.2,0,0,0-9.67,5.21,14.29,14.29,0,0,0-2.59,4.64,13.25,13.25,0,0,0-.64,5.19,12.84,12.84,0,0,0,1.54,5.14,12.65,12.65,0,0,0,3.43,4.09,13.17,13.17,0,0,0,4.68,2.32,14,14,0,0,0,5.3.4,14.69,14.69,0,0,0,5.33-1.7,14.49,14.49,0,0,0,4.35-3.51,14.24,14.24,0,0,0,2.59-4.65,13.17,13.17,0,0,0,.63-5.18A12.67,12.67,0,0,0,73.88,213.34Z"/>
  </g>
</svg>
