<svg id="Layer_1" data-name="Layer 1" xmlns="http://www.w3.org/2000/svg" width="45" height="45" viewBox="0 0 45 45">
  <defs>
    <style>
      .cls-1 {
        fill: none;
        stroke: #22313f;
        stroke-miterlimit: 10;
        stroke-width: 1.5px;
      }

      .cls-2 {
        fill: #1e3140;
      }
    </style>
  </defs>
  <g>
    <circle class="cls-1" cx="22.5" cy="22.5" r="21.49"/>
    <path class="cls-2" d="M34.62,33.16H10.39a2.64,2.64,0,0,1-2.63-2.64V16a2.63,2.63,0,0,1,2.63-2.63H34.62A2.64,2.64,0,0,1,37.26,16V30.52A2.65,2.65,0,0,1,34.62,33.16ZM10.39,14.32A1.63,1.63,0,0,0,8.76,16V30.52a1.64,1.64,0,0,0,1.63,1.64H34.62a1.65,1.65,0,0,0,1.64-1.64V16a1.64,1.64,0,0,0-1.64-1.63Z"/>
    <path class="cls-2" d="M22.3,27.38,9.18,13.66H35.43ZM11.52,14.66,22.3,25.93,33.09,14.66Z"/>
    <rect class="cls-2" x="8.49" y="27.62" width="12.76" height="1" transform="translate(-15.58 18.92) rotate(-45.32)"/>
    <rect class="cls-2" x="29.1" y="21.83" width="1" height="12.58" transform="translate(-11.23 28.3) rotate(-43.78)"/>
  </g>
</svg>
