<svg id="Layer_1" data-name="Layer 1" xmlns="http://www.w3.org/2000/svg" width="50" height="30" viewBox="0 0 50 30">
  <defs>
    <style>
      .cls-1 {
        fill: #95522e;
      }

      .cls-2 {
        fill: #eee1b9;
      }
    </style>
  </defs>
  <g>
    <g>
      <path class="cls-1" d="M25.08,27.58a2.43,2.43,0,0,1-1.47-.31,6.87,6.87,0,0,1-.71-.52,3,3,0,0,0-1.58-.8c-.2,0-.39,0-.58-.05-.47,0-.87,0-1-.35a.83.83,0,0,1,.19-.77.84.84,0,0,1,.33-.26l-.58-.06c-.4,0-.91-.09-1.36-.18a7.12,7.12,0,0,1-2.71-1.35,19.37,19.37,0,0,1-5.37-5.87,12.65,12.65,0,0,1-1.34-3.2c-.32-1.2-.31-1.87,0-2.11a1,1,0,0,1,.71-.08c.24,0,.47.07.61-.08a1.35,1.35,0,0,0,.14-.45,2.86,2.86,0,0,0,.07-.61.72.72,0,0,1,.11-.42.6.6,0,0,1,.34-.27.74.74,0,0,0,.33-.24.77.77,0,0,0,.17-.34.87.87,0,0,1,.17-.33,1.38,1.38,0,0,1,1.08-.37,15.47,15.47,0,0,1,3.86.17c1.95.37,2.26.72,2.39.86a1.59,1.59,0,0,1,.38.8,5.37,5.37,0,0,0,.31.9,6.29,6.29,0,0,0,1.8,2.29,7.31,7.31,0,0,0,2.3,1c1.2.39,1.91.58,2.42.71a8.21,8.21,0,0,1,1.43.46,10.27,10.27,0,0,1,3,2.19A22.26,22.26,0,0,1,34,22l-.42-.81c-.37-.71-.83-1.6-1.33-2.6-2-4.06-2.25-5.21-2.35-5.7a15.51,15.51,0,0,1-.17-4.19v-.1c.12-2,.2-3.14,1-4.29a4,4,0,0,1,2.49-1.8A4,4,0,0,1,36,3.15a5.25,5.25,0,0,1,1.65,1.76l.06.1c0,.1.12.23.24.43a4.63,4.63,0,0,1,.51,1c.09.27.37,1.17,0,1.38s-.5,0-.64-.19a.67.67,0,0,1-.16-.3l0-.07a1.78,1.78,0,0,0-.27-.6c-.17-.08-.71.33-1,1a1.88,1.88,0,0,0-.2.53.61.61,0,0,1-.26.43c-.52.29-1.37-.3-1.54-.42A2.85,2.85,0,0,1,34,7.86c-.12-.12-.17-.17-.26-.17h0c-.23,0-.49.28-.73.77a4.39,4.39,0,0,0,0,3.1,12.3,12.3,0,0,0,1.65,4.13A25.61,25.61,0,0,0,38,19.34l.39.39A6.13,6.13,0,0,1,40.11,22a5.26,5.26,0,0,1,.34,2.72c-.07.69-.18,1.72-.89,2.08a1.14,1.14,0,0,1-.76.07l-.62-.06a10.21,10.21,0,0,0-1.86.16h-.13l-1.83.22-1,.11a14.86,14.86,0,0,1-1.94.11L29,27.45l-2.12.07C26.08,27.55,25.51,27.58,25.08,27.58ZM9.31,11.86a.44.44,0,0,0-.26.06c-.26.18-.24.82,0,1.89A12.92,12.92,0,0,0,10.41,17a19.22,19.22,0,0,0,5.31,5.8,6.94,6.94,0,0,0,2.63,1.32c.44.09.94.14,1.34.18.66.06.91.08.92.25s-.1.15-.18.18a.75.75,0,0,0-.35.23.64.64,0,0,0-.15.56c.08.18.42.19.82.22.19,0,.39,0,.6,0a3.26,3.26,0,0,1,1.68.84,6.5,6.5,0,0,0,.69.51c.54.32.84.31,3.16.22L29,27.24c1.14,0,1.89,0,2.42-.06a16.29,16.29,0,0,0,1.91-.11l1-.12,1.83-.21.12,0a11.17,11.17,0,0,1,1.9-.15c.27,0,.47,0,.63.06a1,1,0,0,0,.65-.05c.6-.3.7-1.27.77-1.91a5.15,5.15,0,0,0-.32-2.62,6.11,6.11,0,0,0-1.68-2.17l-.39-.38a26,26,0,0,1-3.35-3.69,12.59,12.59,0,0,1-1.68-4.2,4.55,4.55,0,0,1,0-3.24c.2-.41.52-.9.92-.9h0a.61.61,0,0,1,.41.24,1.92,1.92,0,0,0,.32.28c.3.23,1,.6,1.3.41h0c.1-.05.12-.11.16-.29a2.58,2.58,0,0,1,.22-.58c.33-.62.95-1.21,1.3-1,.15.07.22.27.39.73l0,.07a.55.55,0,0,0,.12.23c.11.11.3.19.36.15s0-.65-.12-1.13a4.55,4.55,0,0,0-.5-1c-.12-.2-.19-.34-.24-.44l0-.09a5.09,5.09,0,0,0-1.59-1.69,3.71,3.71,0,0,0-2.59-.65,3.77,3.77,0,0,0-2.35,1.71c-.78,1.1-.85,2.2-1,4.18v.1a15,15,0,0,0,.16,4.14c.09.48.31,1.61,2.33,5.65.5,1,1,1.88,1.33,2.59.92,1.75.93,1.8.8,1.88s-.18,0-.52-.53a23.07,23.07,0,0,0-3.62-4.32,10.18,10.18,0,0,0-3-2.15,7.73,7.73,0,0,0-1.39-.44c-.52-.14-1.23-.32-2.44-.72a7.45,7.45,0,0,1-2.36-1,6.61,6.61,0,0,1-1.87-2.37,5.18,5.18,0,0,1-.32-.94,1.4,1.4,0,0,0-.33-.71c-.11-.12-.39-.44-2.27-.8a16.17,16.17,0,0,0-3.82-.16,1.22,1.22,0,0,0-.92.3.64.64,0,0,0-.12.25,1.14,1.14,0,0,1-.21.41A1,1,0,0,1,11,10a.49.49,0,0,0-.24.19.48.48,0,0,0-.07.32,3.54,3.54,0,0,1-.08.65c-.07.3-.1.45-.2.55a.83.83,0,0,1-.79.14Z"/>
      <path class="cls-1" d="M39,11.88c-.3,0-.68-.4-1.32-1.05a6.08,6.08,0,0,1-.87-1.07A3.92,3.92,0,0,0,36.19,9a1.1,1.1,0,0,1-.37-.55h0a1.56,1.56,0,0,1,.53-1.26c.48-.59.85-.81,1.12-.7a.48.48,0,0,1,.21.2,2,2,0,0,1,.35.89,6.77,6.77,0,0,0,.5,1.63A3.75,3.75,0,0,0,39,10a1.81,1.81,0,0,1,.39.92c0,.3.05.81-.23.95A.28.28,0,0,1,39,11.88ZM36,8.39a.87.87,0,0,0,.29.43,3.71,3.71,0,0,1,.68.83,6.36,6.36,0,0,0,.84,1c.56.58,1,1.07,1.21,1s.15-.34.11-.72a1.58,1.58,0,0,0-.36-.83,4.47,4.47,0,0,1-.47-.81,7.15,7.15,0,0,1-.51-1.7,1.87,1.87,0,0,0-.31-.78c-.08-.12-.11-.13-.12-.13s-.33,0-.88.63C36.27,7.6,36,8,36,8.39Z"/>
      <path class="cls-1" d="M38.43,6.75a1.5,1.5,0,0,0-.83-.84c-.73-.25-1.42.3-1.67,0-.11-.13,0-.25-.17-.5a.66.66,0,0,0-.5-.33c-.12,0-.3,0-.33.16s.11.23.33.5h0a1.91,1.91,0,0,1,.33.5c.09.2,0,.33,0,1s.08.71,0,1c0,.1-.07.25,0,.33a.3.3,0,0,0,.34,0c.13-.09.12-.27.16-.5a1.83,1.83,0,0,1,.34-.83c.15-.2.22-.16.42-.42s.13-.2.25-.25a.42.42,0,0,1,.33,0c.18.08.25.28.33.5s.06.37.17.5a.49.49,0,0,0,.5.17C38.64,7.63,38.58,7.1,38.43,6.75Z"/>
      <path class="cls-1" d="M22.36,14.34a1.07,1.07,0,0,1-.28-.28,1.57,1.57,0,0,1,.17-1.8,2,2,0,0,1,1.58-.53,4.46,4.46,0,0,1,1.46.31l.08,0,1.36.43a5.06,5.06,0,0,1,1.16.42,6.34,6.34,0,0,1,1.53,1.18l-.16.15a6.17,6.17,0,0,0-1.47-1.15,5.47,5.47,0,0,0-1.12-.4l-1.37-.42-.07,0a4.26,4.26,0,0,0-1.39-.3,1.75,1.75,0,0,0-1.42.46,1.34,1.34,0,0,0-.16,1.54.66.66,0,0,0,.22.22Z"/>
      <path class="cls-1" d="M26.61,12.75a1.56,1.56,0,0,1-.37-.07,6.06,6.06,0,0,0-1.16-.16,5.32,5.32,0,0,0-1.47.17l-.05-.21a5.61,5.61,0,0,1,1.53-.17,5.27,5.27,0,0,1,1.19.17c.19,0,.36.08.39,0,.18-.25-1-1.68-2.15-2.52a4.07,4.07,0,0,0-.81-.49,4.63,4.63,0,0,0-1.1-.32h0a6.77,6.77,0,0,1-1.26-.35,5.13,5.13,0,0,0-1.08-.32,3.06,3.06,0,0,0-.6-.07,16.65,16.65,0,0,1-1.73-.1,6.45,6.45,0,0,0-2.21.08.85.85,0,0,0,.41.21.71.71,0,0,0,.29,0l0,.21a.77.77,0,0,1-.37,0c-.23,0-.62-.24-.59-.45.08-.47,2.43-.26,2.45-.26a16.38,16.38,0,0,0,1.71.1,2.33,2.33,0,0,1,.64.07,6.29,6.29,0,0,1,1.12.33A5.48,5.48,0,0,0,22.6,9h0a4.78,4.78,0,0,1,1.15.34,4.25,4.25,0,0,1,.85.51c.66.5,2.58,2.3,2.19,2.82A.28.28,0,0,1,26.61,12.75Z"/>
      <path class="cls-1" d="M19.67,11.47l-.18-.11a3.47,3.47,0,0,1,.52-.69,3.37,3.37,0,0,1,1.38-.86,3.06,3.06,0,0,1,1.84.12l.2.06c-.11-.11-.37-.31-.66-.53s-.84-.64-1.42-1.13l-.51-.43a4.62,4.62,0,0,0-1-.73,8.25,8.25,0,0,0-1.64-.66c-.37-.1-.69-.16-.92-.2s-.5-.1-.49-.24,0-.23,1.1-.27h.59c-.43-.21-.72-.42-.69-.59S18.39,5,19.91,5A8.49,8.49,0,0,1,23,5.31l.17.07C23,5.19,23,5.12,23,5c.09-.26.57-.26,1.11-.24a5.59,5.59,0,0,1,1,.17c.57.14,1.05.29,1.18.34.76.28,2.16,1.53,3.56,3.71l-.18.12a9.82,9.82,0,0,0-3.45-3.63c-.13,0-.6-.19-1.16-.33a4.94,4.94,0,0,0-1-.16c-.71,0-.87,0-.89.09s.15.21.73.69A7.26,7.26,0,0,1,25,6.65h0a.18.18,0,0,1,.05.07v.11l-.16,0,0,0-.24-.19L24,6.16,23.79,6a5.94,5.94,0,0,0-.91-.46,8.24,8.24,0,0,0-3-.33,6.53,6.53,0,0,0-1.91.1,3.43,3.43,0,0,0,1.17.61,6.22,6.22,0,0,1,2.32.79l0,.05,0,0c0,.11-.13.08-.38,0,0,0-1.08-.32-2-.69A6.06,6.06,0,0,0,17.92,6a5.35,5.35,0,0,0-.68.06l.1,0A8.57,8.57,0,0,1,20,7a4.79,4.79,0,0,1,1,.75l.5.42c.58.49,1.07.86,1.42,1.13.65.5.87.66.78.84s-.25.09-.52,0A2.82,2.82,0,0,0,21.45,10a3.19,3.19,0,0,0-1.29.8A3.46,3.46,0,0,0,19.67,11.47Z"/>
      <path class="cls-1" d="M8.83,13.33a2.67,2.67,0,0,1-.69-1.22,1.42,1.42,0,0,1,0-1.09c.33-.5,1.36-.52,2.47,0l-.09.2c-1.12-.49-2-.39-2.2,0a1.27,1.27,0,0,0,0,.92A2.58,2.58,0,0,0,9,13.18Z"/>
      <path class="cls-1" d="M22.58,27.06a2.9,2.9,0,0,1-2.07-.56l0,0a1.59,1.59,0,0,0-.77-.45,1.46,1.46,0,0,0-.6,0,5.31,5.31,0,0,1-2.06-.17,4.08,4.08,0,0,1-2.37-1.35.4.4,0,0,1,0-.29c.06-.17.29-.2.51-.23s.31,0,.32-.09,0-.11-.45-.38a2.49,2.49,0,0,0-.94-.32,5.55,5.55,0,0,1-1.89-.85,4.46,4.46,0,0,1-1.32-1.13,12,12,0,0,0-1-1,12,12,0,0,0-2.3-1.58c-.36-.21-.46-.26-.4-.38s.12-.13.9.17L7.51,18A5.6,5.6,0,0,1,6,16.45v0l0-.06c.06-.07.13-.08.45.11-.3-.28-.62-.6-1-1-.52-.59-.81-.94-.67-1.13s.75,0,2.07.64c-1.4-.89-1.67-1.11-1.58-1.3s.15-.32,4.14,1.29l-.08.19a25.31,25.31,0,0,0-3.8-1.35,13.91,13.91,0,0,0,1.48,1c1,.62,1,.66,1,.78s-.16.08-1-.33a10.26,10.26,0,0,0-2-.83H5a4.73,4.73,0,0,0,.67.86,15.52,15.52,0,0,0,2,1.83c.22.18.27.21.21.3s-.07.1-.62-.27c-.23-.15-.62-.42-.89-.57a9.54,9.54,0,0,0,1.32,1.2,10.64,10.64,0,0,0,2.18,1.25c.16.07.23.1.19.21s-.06.1-.84-.22c-.3-.13-.79-.34-1.19-.49A12.2,12.2,0,0,1,10,20a11.15,11.15,0,0,1,1,1.07,4.2,4.2,0,0,0,1.27,1.08,5.71,5.71,0,0,0,1.79.83,2.81,2.81,0,0,1,1,.34c.28.17.6.38.55.62s-.27.22-.5.25-.32.05-.33.09,0,.05,0,.11a4,4,0,0,0,2.22,1.26,5.32,5.32,0,0,0,2,.16,1.83,1.83,0,0,1,.71,0,1.86,1.86,0,0,1,.87.51l0,0a3.52,3.52,0,0,0,2.58.47l0,.21Z"/>
    </g>
    <rect class="cls-1" x="2.5" y="13.7" width="45" height="7"/>
    <g>
      <path class="cls-2" d="M4.74,18.45V15.56H6.19v.24H5v1.09H6.15v.23H5v1.1H6.19v.23Z"/>
      <path class="cls-2" d="M6.81,18.45l.37-2.89h.29l.84,2.26.86-2.26h.28l.37,2.89H9.55l-.32-2.39-.82,2.22H8.22L7.4,16.06l-.32,2.39Z"/>
      <path class="cls-2" d="M10.43,18.45l.38-2.89h.28l.85,2.26.85-2.26h.28l.38,2.89h-.27l-.32-2.39L12,18.28h-.19L11,16.06l-.32,2.39Z"/>
      <path class="cls-2" d="M13.94,18.45l1.14-2.89h.24l1.14,2.89h-.29l-.35-.92H14.58l-.35.92Zm.73-1.15h1.06l-.53-1.39Z"/>
      <path class="cls-2" d="M18,18.45V15.56h.27v2.66H19.5v.23Z"/>
      <path class="cls-2" d="M21.44,18.51a1.39,1.39,0,0,1-.57-.12,1.32,1.32,0,0,1-.46-.32,1.42,1.42,0,0,1-.31-.48,1.46,1.46,0,0,1,0-1.16,1.42,1.42,0,0,1,.31-.48,1.32,1.32,0,0,1,.46-.32,1.41,1.41,0,0,1,1.14,0,1.32,1.32,0,0,1,.46.32,1.42,1.42,0,0,1,.31.48,1.46,1.46,0,0,1,0,1.16,1.42,1.42,0,0,1-.31.48,1.32,1.32,0,0,1-.46.32A1.39,1.39,0,0,1,21.44,18.51Zm0-.26a1.18,1.18,0,0,0,.46-.09,1.22,1.22,0,0,0,.37-.27,1.14,1.14,0,0,0,.25-.39,1.38,1.38,0,0,0,0-1,1.14,1.14,0,0,0-.25-.39,1.22,1.22,0,0,0-.37-.27,1.22,1.22,0,0,0-.92,0,1.11,1.11,0,0,0-.37.27,1.14,1.14,0,0,0-.25.39,1.38,1.38,0,0,0,0,1,1.14,1.14,0,0,0,.25.39,1.11,1.11,0,0,0,.37.27A1.18,1.18,0,0,0,21.44,18.25Z"/>
      <path class="cls-2" d="M24.62,18.51a1,1,0,0,1-.75-.27,1.18,1.18,0,0,1-.25-.82V15.56h.26v1.8a1,1,0,0,0,.19.67.8.8,0,0,0,1.1,0,1.05,1.05,0,0,0,.18-.67v-1.8h.27v1.86a1.18,1.18,0,0,1-.25.82A1,1,0,0,1,24.62,18.51Z"/>
      <path class="cls-2" d="M26.52,18.45V15.56h.26v2.89Z"/>
      <path class="cls-2" d="M28.38,18.51a1,1,0,0,1-.4-.07.94.94,0,0,1-.28-.16,1.13,1.13,0,0,1-.19-.19.76.76,0,0,1-.1-.14l.15-.19a.76.76,0,0,0,.1.13.83.83,0,0,0,.16.17,1,1,0,0,0,.24.14.88.88,0,0,0,.64,0,.48.48,0,0,0,.23-.19A.5.5,0,0,0,29,17.7a.53.53,0,0,0-.06-.26.48.48,0,0,0-.17-.18,1.38,1.38,0,0,0-.24-.14L28.26,17l-.22-.1a.92.92,0,0,1-.21-.13.65.65,0,0,1-.16-.21.51.51,0,0,1-.07-.28.73.73,0,0,1,.06-.3.81.81,0,0,1,.42-.42.88.88,0,0,1,.33-.06.79.79,0,0,1,.32.06,1.08,1.08,0,0,1,.26.14.94.94,0,0,1,.17.18l-.14.19a.52.52,0,0,0-.14-.16.67.67,0,0,0-.2-.12.75.75,0,0,0-.26,0,.62.62,0,0,0-.31.07.61.61,0,0,0-.19.2.58.58,0,0,0-.06.26.36.36,0,0,0,.05.21.57.57,0,0,0,.13.14l.19.1.2.08.33.13a2.61,2.61,0,0,1,.28.17.75.75,0,0,1,.19.24.67.67,0,0,1,.07.33.76.76,0,0,1-.12.44.69.69,0,0,1-.33.28A1,1,0,0,1,28.38,18.51Z"/>
      <path class="cls-2" d="M30.05,18.45V15.56H31.5v.24H30.31v1.09h1.15v.23H30.31v1.1H31.5v.23Z"/>
      <path class="cls-2" d="M33.83,18.51a.94.94,0,0,1-.39-.07,1.15,1.15,0,0,1-.29-.16,1.69,1.69,0,0,1-.19-.19.76.76,0,0,1-.1-.14l.15-.19.1.13a1.25,1.25,0,0,0,.16.17,1,1,0,0,0,.24.14.84.84,0,0,0,.33.06.87.87,0,0,0,.32-.06.6.6,0,0,0,.23-.19.5.5,0,0,0,.09-.31.53.53,0,0,0-.06-.26.58.58,0,0,0-.17-.18,1.17,1.17,0,0,0-.25-.14L33.72,17l-.22-.1a1,1,0,0,1-.22-.13.83.83,0,0,1-.16-.21.61.61,0,0,1-.06-.28.73.73,0,0,1,.06-.3.82.82,0,0,1,.16-.25.9.9,0,0,1,.26-.17.88.88,0,0,1,.33-.06.87.87,0,0,1,.32.06,1,1,0,0,1,.25.14.7.7,0,0,1,.17.18l-.14.19a.48.48,0,0,0-.13-.16.72.72,0,0,0-.21-.12.71.71,0,0,0-.26,0,.56.56,0,0,0-.3.07.46.46,0,0,0-.19.2.48.48,0,0,0-.07.26.46.46,0,0,0,0,.21.62.62,0,0,0,.14.14,1,1,0,0,0,.18.1l.2.08.33.13a1.48,1.48,0,0,1,.28.17.63.63,0,0,1,.19.24.67.67,0,0,1,.08.33.78.78,0,0,1-.46.72A1,1,0,0,1,33.83,18.51Z"/>
      <path class="cls-2" d="M36.13,18.45l-1.21-2.89h.3l1,2.49,1-2.49h.3l-1.21,2.89Z"/>
      <path class="cls-2" d="M37.61,18.45l1.14-2.89H39l1.14,2.89h-.29l-.35-.92H38.25l-.35.92Zm.73-1.15H39.4l-.53-1.39Z"/>
      <path class="cls-2" d="M40.79,18.45V15.56h.27L42.61,18V15.56h.27v2.89h-.27L41.06,16v2.43Z"/>
      <path class="cls-2" d="M43.82,18.45V15.56h1.45v.24H44.08v1.09h1.15v.23H44.08v1.1h1.19v.23Z"/>
    </g>
  </g>
</svg>
