<svg id="Layer_1" data-name="Layer 1" xmlns="http://www.w3.org/2000/svg" width="330" height="330" viewBox="0 0 330 330">
  <defs>
    <style>
      .cls-1 {
        fill: #bc7b54;
        stroke: #96522e;
        stroke-miterlimit: 10;
        stroke-width: 3px;
      }

      .cls-2 {
        fill: #c3b388;
      }

      .cls-3 {
        fill: #efe2ba;
      }
    </style>
  </defs>
  <circle class="cls-1" cx="164.55" cy="164.61" r="150.5"/>
  <g>
    <path class="cls-2" d="M56.68,108.91,53,116.15l6.72,3.41,4.1-8.07,2,1L60.52,123l-18.64-9.47L47,103.47l2,1-3.89,7.66,5.89,3,3.68-7.24Z"/>
    <path class="cls-2" d="M70.09,90.48c-2.43-1.61-5.36-3.55-7.43-5.12l-.06.07c1.55,2,3.12,4.28,4.81,6.85l6,9-1.22,1.64-10-3.21c-3-1-5.62-1.89-8-2.9l0,0c2.06,1.6,4.78,3.81,7.18,5.83l6.87,5.78-1.54,2.07L50.73,96.93l2.05-2.77L63,97.32c2.58.83,4.85,1.63,6.91,2.49l0-.07c-1.38-1.68-2.78-3.64-4.34-6l-5.9-9,2-2.76,17.56,11.4-1.57,2.11Z"/>
    <path class="cls-2" d="M88.62,72.61c-2.05-2.08-4.51-4.58-6.21-6.55l-.07.06c1.09,2.3,2.16,4.83,3.28,7.69l4,10L88,85.2,78.92,80c-2.69-1.55-5.11-3-7.19-4.49l0,0c1.68,2,3.88,4.72,5.82,7.19L83,89.81l-1.93,1.71L68.34,74.9l2.58-2.28,9.36,5.21c2.36,1.35,4.41,2.6,6.24,3.87l.07-.06c-1-1.93-2-4.14-3-6.73l-3.91-10,2.58-2.28L97.07,77.39l-2,1.74Z"/>
    <path class="cls-2" d="M99.14,68.51l1.54,6.75L98.29,76.7,93.57,55.15l2.78-1.68,16.9,14.2-2.46,1.49-5.31-4.48Zm4.77-5.34-4.86-4.09c-1.1-.93-2-1.83-2.9-2.7l-.05,0c.38,1.22.74,2.48,1.05,3.78l1.38,6.23Z"/>
    <path class="cls-2" d="M114.11,44.63l2.54-.91L123,61.24l8.4-3,.77,2.13-10.93,4Z"/>
    <path class="cls-2" d="M148.48,45.86c1.46,7-2,11.66-7.27,12.74-5.4,1.12-10.06-2.28-11.34-8.47-1.35-6.5,1.81-11.58,7.27-12.71S147.22,39.79,148.48,45.86Zm-15.81,3.62c.91,4.37,4.09,7.8,8.25,6.94s5.75-5.22,4.79-9.86c-.84-4.07-3.84-7.88-8.25-7S131.75,45,132.67,49.48Z"/>
    <path class="cls-2" d="M155.64,35.15l.21,12.36c.07,4.68,2.18,6.63,5,6.58,3.1-.05,5.05-2.13,5-6.74L165.59,35l2.72,0,.21,12.17c.1,6.42-3.23,9.11-7.75,9.19-4.28.07-7.54-2.33-7.65-8.8l-.21-12.31Z"/>
    <path class="cls-2" d="M177.26,35.66,175.4,56.48l-2.69-.24,1.86-20.82Z"/>
    <path class="cls-2" d="M179.81,53.57a9.59,9.59,0,0,0,4.5,2.23c2.72.51,4.57-.63,5-2.7s-.53-3.22-3.1-4.81c-3.13-1.82-4.88-3.94-4.34-6.84.6-3.2,3.7-5.08,7.69-4.33A9.56,9.56,0,0,1,193.88,39l-1.14,2A8.34,8.34,0,0,0,189,39.3c-2.8-.53-4.18,1-4.45,2.35-.36,1.92.71,3.1,3.34,4.73,3.22,2,4.68,4,4.11,7-.6,3.17-3.46,5.47-8.3,4.56a10.78,10.78,0,0,1-5-2.3Z"/>
    <path class="cls-2" d="M207.21,53.87l-7.72-2.52-2.33,7.16,8.6,2.81-.7,2.15-11.17-3.64L200.37,40l10.72,3.5-.7,2.15L202.23,43l-2,6.28,7.72,2.52Z"/>
    <path class="cls-2" d="M214.65,64.13a9.54,9.54,0,0,0,3.59,3.51c2.42,1.32,4.54.81,5.55-1s.48-3.23-1.47-5.53c-2.42-2.69-3.43-5.26-2-7.84,1.56-2.86,5.09-3.69,8.65-1.75a9.49,9.49,0,0,1,3.57,3.11l-1.71,1.58a8.22,8.22,0,0,0-3-2.77c-2.5-1.37-4.27-.39-5,.86-.94,1.72-.28,3.17,1.72,5.53,2.45,2.89,3.21,5.24,1.74,7.94s-5,4.14-9.3,1.78a10.69,10.69,0,0,1-4-3.72Z"/>
    <path class="cls-2" d="M229.82,77.09l6.92-20.87L239.08,58l-3.49,10.22c-1,2.8-1.83,5.31-2.84,7.61l.05,0c1.91-1.6,4.18-3.2,6.54-4.85l9-6.21,2.31,1.71L232.22,78.85Z"/>
    <path class="cls-2" d="M245,80.89l-6.14,3.19-2-1.94,19.66-10,2.33,2.27-9.46,20-2.07-2,3-6.27Zm6.38,3.26,2.72-5.73c.62-1.3,1.26-2.41,1.89-3.49l0-.05c-1.09.68-2.22,1.35-3.39,2l-5.68,2.91Z"/>
    <path class="cls-2" d="M250.83,96.09,267.67,83.7l1.75,2.38-4.55,11.66a60.29,60.29,0,0,1-3.25,7l.06,0c2.1-1.85,4.11-3.41,6.74-5.33l7-5.19,1.51,2-16.84,12.39-1.62-2.2,4.61-11.63a66.24,66.24,0,0,1,3.31-7.28l-.08-.06c-2,1.69-4,3.23-6.82,5.28l-7.19,5.29Z"/>
    <path class="cls-2" d="M275.76,117.17,272,110l-6.67,3.51,4.22,8-2,1.06-5.48-10.4,18.49-9.74,5.26,10-2,1-4-7.6L274,108.94l3.79,7.19Z"/>
  </g>
  <g>
    <path class="cls-3" d="M57.74,108.49l-3.68,7.24,6.72,3.41,4.1-8.07,2,1-5.32,10.48-18.64-9.46,5.11-10.06,2,1-3.89,7.66,5.89,3,3.68-7.24Z"/>
    <path class="cls-3" d="M71.16,90.06c-2.44-1.61-5.36-3.55-7.44-5.12l0,.07c1.54,2,3.12,4.28,4.8,6.84l6,9L73.2,102.5l-10-3.21c-3-1-5.63-1.9-8-2.9l0,0c2.06,1.6,4.78,3.81,7.19,5.83l6.86,5.78-1.53,2.07L51.79,96.5l2.05-2.76,10.24,3.15c2.59.84,4.85,1.63,6.91,2.5l.06-.07c-1.38-1.68-2.78-3.65-4.35-6l-5.9-9,2.05-2.76L80.41,93,78.84,95.1Z"/>
    <path class="cls-3" d="M89.68,72.18c-2-2.08-4.5-4.58-6.21-6.55l-.06.06c1.08,2.31,2.16,4.84,3.28,7.69l4,10-1.53,1.36L80,79.56c-2.69-1.55-5.1-3-7.19-4.48l0,0c1.67,2,3.88,4.72,5.81,7.19l5.52,7.08-1.93,1.7L69.4,74.48,72,72.2l9.37,5.21c2.35,1.35,4.4,2.59,6.24,3.87l.07-.06c-1-1.93-2-4.14-3-6.73l-3.9-10,2.57-2.28L98.13,77l-2,1.75Z"/>
    <path class="cls-3" d="M100.2,68.09l1.54,6.75-2.39,1.44L94.63,54.73,97.42,53l16.9,14.2-2.47,1.49-5.31-4.47ZM105,62.75l-4.86-4.1c-1.11-.92-2-1.82-2.9-2.7l0,0c.37,1.23.74,2.49,1,3.79L99.59,66Z"/>
    <path class="cls-3" d="M115.17,44.21l2.54-.92L124,60.82l8.4-3,.77,2.12-10.94,4Z"/>
    <path class="cls-3" d="M149.54,45.44c1.46,7-2,11.66-7.26,12.74-5.41,1.12-10.07-2.28-11.35-8.48-1.35-6.49,1.81-11.58,7.27-12.71S148.29,39.37,149.54,45.44Zm-15.8,3.62c.9,4.37,4.08,7.79,8.24,6.93s5.76-5.21,4.8-9.85c-.85-4.07-3.85-7.88-8.25-7S132.81,44.57,133.74,49.06Z"/>
    <path class="cls-3" d="M156.7,34.72l.21,12.37c.08,4.68,2.19,6.63,5,6.58,3.1-.05,5.05-2.13,5-6.75l-.21-12.36,2.73-.05.2,12.18c.11,6.42-3.22,9.11-7.75,9.18-4.28.07-7.54-2.32-7.65-8.8l-.2-12.3Z"/>
    <path class="cls-3" d="M178.32,35.24l-1.86,20.81-2.69-.24L175.64,35Z"/>
    <path class="cls-3" d="M180.88,53.14a9.56,9.56,0,0,0,4.5,2.24c2.71.51,4.56-.63,5-2.7s-.53-3.22-3.1-4.81c-3.13-1.82-4.87-3.95-4.33-6.84.6-3.2,3.7-5.08,7.69-4.33a9.57,9.57,0,0,1,4.35,1.86l-1.14,2a8.24,8.24,0,0,0-3.71-1.71c-2.81-.53-4.19.95-4.45,2.35-.36,1.92.71,3.1,3.34,4.73,3.22,2,4.67,4,4.11,7-.6,3.17-3.46,5.48-8.31,4.57a10.84,10.84,0,0,1-5-2.3Z"/>
    <path class="cls-3" d="M208.28,53.45l-7.72-2.52-2.34,7.16,8.6,2.81-.7,2.15L195,59.4l6.47-19.86L212.16,43l-.7,2.15-8.16-2.66-2.05,6.28L209,51.33Z"/>
    <path class="cls-3" d="M215.71,63.7a9.52,9.52,0,0,0,3.6,3.52c2.42,1.32,4.53.81,5.54-1s.49-3.23-1.47-5.53c-2.42-2.7-3.42-5.26-2-7.84,1.55-2.86,5.08-3.7,8.65-1.75a9.45,9.45,0,0,1,3.56,3.11l-1.7,1.57a8.39,8.39,0,0,0-3-2.77c-2.51-1.36-4.28-.38-5,.87-.93,1.71-.28,3.17,1.72,5.53,2.45,2.88,3.21,5.24,1.75,7.94s-5,4.13-9.31,1.78a10.85,10.85,0,0,1-4-3.72Z"/>
    <path class="cls-3" d="M230.89,76.66,237.8,55.8l2.35,1.73-3.49,10.22c-.95,2.8-1.84,5.31-2.84,7.61l.05,0c1.91-1.59,4.17-3.2,6.54-4.84l9-6.21,2.32,1.71L233.28,78.43Z"/>
    <path class="cls-3" d="M246.08,80.46l-6.14,3.2-2-2,19.66-10L259.93,74l-9.46,20-2.06-2,3-6.27Zm6.38,3.27L255.19,78c.62-1.3,1.26-2.4,1.88-3.49l0,0c-1.09.67-2.22,1.35-3.4,2L248,79.34Z"/>
    <path class="cls-3" d="M251.9,95.66l16.83-12.38,1.75,2.37-4.55,11.66a58.06,58.06,0,0,1-3.25,7l.06,0c2.1-1.85,4.12-3.41,6.74-5.34l7-5.18,1.51,2L261.19,108.3l-1.61-2.2,4.61-11.62a66.4,66.4,0,0,1,3.3-7.29l-.08,0c-2,1.68-4,3.22-6.81,5.28l-7.2,5.29Z"/>
    <path class="cls-3" d="M276.83,116.75,273,109.56l-6.66,3.51,4.21,8-2,1-5.47-10.39L281.61,102l5.26,10-2,1.06-4-7.6L275,108.52l3.78,7.18Z"/>
  </g>
  <g>
    <path class="cls-2" d="M273.17,221.71l3.68-7.25-6.72-3.41-4.1,8.08-2-1,5.32-10.48L288,217.08l-5.11,10.07-2-1,3.89-7.65-5.89-3-3.68,7.24Z"/>
    <path class="cls-2" d="M259.76,240.14c2.43,1.61,5.35,3.54,7.43,5.12l.05-.07c-1.54-2-3.12-4.28-4.8-6.85l-5.95-9,1.22-1.64,10,3.21c2.95,1,5.62,1.89,8,2.9l0-.05c-2.06-1.61-4.78-3.82-7.18-5.83l-6.87-5.78,1.53-2.07,15.92,13.61-2.05,2.77-10.24-3.16c-2.58-.83-4.85-1.63-6.91-2.5l-.05.08c1.38,1.68,2.78,3.64,4.34,6l5.9,9-2.05,2.76-17.56-11.4,1.57-2.12Z"/>
    <path class="cls-2" d="M241.23,258c2.05,2.08,4.51,4.58,6.21,6.55l.07-.06c-1.09-2.31-2.17-4.83-3.29-7.69l-3.95-10,1.53-1.35,9.13,5.21c2.69,1.55,5.11,3,7.19,4.49l.05-.05c-1.68-2-3.89-4.71-5.82-7.18l-5.52-7.08,1.93-1.71,12.75,16.62L258.93,258l-9.36-5.21c-2.36-1.35-4.41-2.6-6.25-3.88l-.07.07c1,1.92,2,4.14,3,6.73l3.91,10L247.6,268l-14.82-14.79,2-1.74Z"/>
    <path class="cls-2" d="M230.71,262.1l-1.54-6.74,2.39-1.44,4.72,21.55-2.78,1.68L216.59,263l2.47-1.49,5.31,4.47Zm-4.77,5.35,4.85,4.09c1.11.93,2,1.83,2.9,2.7l.06,0c-.38-1.22-.74-2.48-1.05-3.78l-1.38-6.23Z"/>
    <path class="cls-2" d="M215.74,286l-2.54.91-6.33-17.52-8.39,3-.77-2.13,10.93-3.95Z"/>
    <path class="cls-2" d="M181.37,284.76c-1.46-7,2-11.66,7.27-12.74,5.4-1.12,10.06,2.28,11.34,8.47,1.35,6.5-1.81,11.58-7.27,12.71S182.63,290.83,181.37,284.76Zm15.8-3.62c-.9-4.37-4.08-7.8-8.24-6.94s-5.76,5.21-4.79,9.86c.84,4.06,3.84,7.87,8.24,7S198.1,285.63,197.17,281.14Z"/>
    <path class="cls-2" d="M174.21,295.47,174,283.11c-.08-4.68-2.19-6.63-5-6.59-3.1.06-5,2.13-5,6.75l.21,12.37-2.73,0-.2-12.18c-.11-6.41,3.23-9.1,7.75-9.18,4.28-.07,7.54,2.33,7.65,8.8l.21,12.31Z"/>
    <path class="cls-2" d="M152.59,295l1.86-20.82,2.69.24-1.86,20.82Z"/>
    <path class="cls-2" d="M150,277.05a9.63,9.63,0,0,0-4.51-2.23c-2.71-.51-4.56.62-4.95,2.7-.36,1.92.53,3.22,3.1,4.81,3.13,1.81,4.88,3.94,4.33,6.84-.6,3.19-3.7,5.07-7.69,4.32a9.47,9.47,0,0,1-4.35-1.85l1.14-2a8.34,8.34,0,0,0,3.72,1.71c2.8.52,4.18-.95,4.44-2.35.36-1.92-.71-3.1-3.34-4.73-3.22-2-4.67-4-4.1-7,.59-3.17,3.45-5.47,8.3-4.56a10.84,10.84,0,0,1,5,2.29Z"/>
    <path class="cls-2" d="M122.64,276.75l7.72,2.52,2.33-7.16-8.6-2.81.7-2.15L136,270.79l-6.48,19.86-10.73-3.5.7-2.15,8.17,2.66,2-6.27-7.72-2.52Z"/>
    <path class="cls-2" d="M115.2,266.49a9.61,9.61,0,0,0-3.59-3.51c-2.43-1.32-4.54-.81-5.55,1s-.49,3.23,1.47,5.53c2.42,2.69,3.42,5.25,2,7.84-1.55,2.86-5.08,3.69-8.64,1.75A9.5,9.5,0,0,1,97.33,276L99,274.45a8.22,8.22,0,0,0,3,2.77c2.5,1.37,4.27.39,5-.86.94-1.72.28-3.17-1.72-5.53-2.45-2.89-3.21-5.25-1.74-7.94s5-4.14,9.3-1.78a10.69,10.69,0,0,1,4,3.72Z"/>
    <path class="cls-2" d="M100,253.53l-6.91,20.86-2.35-1.72,3.49-10.22c1-2.8,1.84-5.31,2.84-7.61l0,0c-1.91,1.6-4.17,3.2-6.54,4.85l-9,6.21-2.32-1.72,18.42-12.38Z"/>
    <path class="cls-2" d="M84.83,249.73,91,246.54l2,1.94-19.66,10L71,256.23l9.46-19.94,2.07,2-3,6.26Zm-6.38-3.27-2.73,5.74c-.61,1.3-1.26,2.41-1.88,3.49l0,0c1.08-.67,2.21-1.34,3.39-2L83,250.85Z"/>
    <path class="cls-2" d="M79,234.53,62.18,246.91l-1.75-2.37L65,232.88a58.69,58.69,0,0,1,3.25-7l-.06,0c-2.1,1.86-4.11,3.41-6.74,5.34l-7,5.18-1.51-2,16.84-12.39,1.61,2.2-4.61,11.63a66.23,66.23,0,0,1-3.3,7.28l.08.06c2-1.69,4-3.23,6.81-5.29l7.2-5.29Z"/>
    <path class="cls-2" d="M54.08,213.45l3.79,7.19,6.67-3.51-4.22-8,2-1.06,5.48,10.4L49.3,228.2l-5.26-10,2-1.05,4,7.6,5.84-3.08-3.78-7.19Z"/>
  </g>
  <g>
    <path class="cls-3" d="M271.92,221.73l3.68-7.25-6.72-3.41-4.1,8.07-2-1,5.32-10.48,18.64,9.46-5.11,10.07-2-1,3.89-7.66-5.89-3-3.68,7.25Z"/>
    <path class="cls-3" d="M258.5,240.15c2.44,1.62,5.36,3.55,7.44,5.13l.05-.08c-1.54-2-3.12-4.28-4.8-6.84l-5.95-9,1.22-1.64,10,3.21c3,.95,5.63,1.89,8,2.89l0,0c-2.06-1.6-4.78-3.81-7.19-5.82l-6.86-5.79L262,220.1l15.92,13.61-2.05,2.77-10.24-3.16c-2.59-.84-4.85-1.63-6.91-2.5l-.06.08c1.38,1.68,2.78,3.64,4.35,6l5.9,9-2.05,2.77-17.56-11.4,1.57-2.12Z"/>
    <path class="cls-3" d="M240,258c2,2.08,4.5,4.58,6.21,6.55l.06-.06c-1.08-2.31-2.16-4.83-3.28-7.69l-3.95-10,1.53-1.36,9.13,5.22c2.69,1.55,5.1,3,7.19,4.48l.05,0c-1.68-2-3.89-4.72-5.82-7.19l-5.52-7.08,1.93-1.7,12.75,16.62L257.68,258l-9.37-5.21c-2.35-1.35-4.4-2.6-6.24-3.88L242,249c1,1.93,2,4.14,3,6.73l3.9,10L246.35,268l-14.82-14.79,2-1.75Z"/>
    <path class="cls-3" d="M229.46,262.12l-1.54-6.74,2.39-1.45L235,275.49l-2.79,1.68L215.34,263l2.47-1.49,5.31,4.47Zm-4.78,5.35,4.86,4.09c1.11.93,2,1.83,2.9,2.7l.06,0c-.38-1.22-.75-2.49-1.06-3.78l-1.37-6.23Z"/>
    <path class="cls-3" d="M214.49,286l-2.54.92-6.33-17.52-8.4,3-.76-2.13,10.93-3.95Z"/>
    <path class="cls-3" d="M180.12,284.78c-1.46-7,2-11.67,7.26-12.75,5.41-1.12,10.07,2.29,11.35,8.48,1.35,6.49-1.81,11.58-7.27,12.71S181.37,290.85,180.12,284.78Zm15.8-3.63c-.9-4.37-4.08-7.79-8.24-6.93s-5.76,5.21-4.8,9.86c.85,4.06,3.85,7.87,8.25,7S196.85,285.65,195.92,281.15Z"/>
    <path class="cls-3" d="M173,295.49l-.21-12.37c-.08-4.68-2.19-6.62-5-6.58-3.1,0-5.05,2.13-5,6.75l.21,12.37-2.73,0-.2-12.18c-.11-6.41,3.22-9.1,7.75-9.18,4.28-.07,7.54,2.32,7.65,8.8l.2,12.3Z"/>
    <path class="cls-3" d="M151.34,295l1.86-20.82,2.69.24L154,295.22Z"/>
    <path class="cls-3" d="M148.78,277.07a9.55,9.55,0,0,0-4.5-2.23c-2.71-.51-4.56.62-4.95,2.69s.53,3.23,3.1,4.81c3.13,1.82,4.87,4,4.33,6.84-.6,3.2-3.7,5.08-7.69,4.33a9.46,9.46,0,0,1-4.35-1.86l1.14-2a8.25,8.25,0,0,0,3.71,1.7c2.81.53,4.19-.94,4.45-2.35.36-1.92-.71-3.09-3.34-4.72-3.22-2-4.67-4-4.11-7,.6-3.17,3.46-5.47,8.31-4.56a10.74,10.74,0,0,1,5,2.29Z"/>
    <path class="cls-3" d="M121.38,276.77l7.72,2.51,2.34-7.16-8.6-2.8.7-2.15,11.17,3.64-6.48,19.86-10.73-3.5.7-2.15,8.16,2.66,2-6.27-7.72-2.52Z"/>
    <path class="cls-3" d="M114,266.51a9.57,9.57,0,0,0-3.6-3.51c-2.42-1.32-4.53-.81-5.54,1s-.49,3.23,1.47,5.53c2.42,2.69,3.42,5.25,2,7.84-1.55,2.86-5.08,3.69-8.65,1.75a9.62,9.62,0,0,1-3.56-3.11l1.7-1.58a8.48,8.48,0,0,0,3,2.77c2.51,1.36,4.28.39,5-.87.93-1.71.28-3.16-1.72-5.52-2.45-2.89-3.21-5.25-1.75-7.94s5-4.14,9.31-1.78a10.69,10.69,0,0,1,4,3.72Z"/>
    <path class="cls-3" d="M98.77,253.55l-6.91,20.86-2.35-1.73L93,262.47c1-2.81,1.84-5.31,2.84-7.61l0,0c-1.91,1.6-4.17,3.2-6.54,4.84l-9,6.21L78,264.16l18.42-12.38Z"/>
    <path class="cls-3" d="M83.58,249.75l6.14-3.2,2,1.95-19.66,10-2.33-2.27,9.46-19.95,2.06,2-3,6.26Zm-6.38-3.27-2.73,5.74c-.62,1.3-1.26,2.41-1.88,3.49l0,0c1.09-.67,2.22-1.34,3.4-2l5.68-2.91Z"/>
    <path class="cls-3" d="M77.76,234.55,60.93,246.93l-1.75-2.37,4.55-11.66A59.62,59.62,0,0,1,67,225.85l-.06,0c-2.1,1.86-4.12,3.41-6.74,5.34l-7,5.18-1.51-2.05,16.84-12.38,1.61,2.2-4.61,11.63a66.23,66.23,0,0,1-3.3,7.28l.08,0c2-1.68,4-3.22,6.81-5.28l7.2-5.29Z"/>
    <path class="cls-3" d="M52.83,213.47l3.79,7.19,6.66-3.52-4.21-8,2-1,5.47,10.4-18.49,9.74-5.26-10,2-1.06,4,7.6,5.84-3.07-3.78-7.19Z"/>
  </g>
</svg>
