<svg id="Layer_1" data-name="Layer 1" xmlns="http://www.w3.org/2000/svg" width="330" height="330" viewBox="0 0 330 330">
  <defs>
    <style>
      .cls-1 {
        fill: #bf7b54;
        stroke: #99522e;
        stroke-miterlimit: 10;
        stroke-width: 3px;
      }

      .cls-2 {
        fill: #bca28d;
      }

      .cls-3 {
        fill: #f2e5bd;
      }

      .cls-4 {
        fill: #37281c;
      }

      .cls-5 {
        fill: #d8bfa9;
      }

      .cls-6 {
        fill: #9d6d6c;
      }

      .cls-7 {
        fill: #a4754e;
      }
    </style>
  </defs>
  <circle class="cls-1" cx="164.55" cy="164.61" r="150.5"/>
  <g>
    <path class="cls-2" d="M157.78,141q-.09,17-.17,34l20.47,9.34,20.71-5.49q.63-16.76,1.27-33.5Z"/>
    <path class="cls-3" d="M124.27,158.35c-2.84.18-1.82.64-14.73,3.16-10.31,2-11.09,1.74-14.21,2.63-11.79,3.35-19,12.41-21.06,14.91-4.78,6-8.17,13-11.4,27.19-6.1,26.85-11.57,52.69,2.28,68.94,4.87,5.72,12.64,10.83,19,15a139.23,139.23,0,0,0,18,10,147.17,147.17,0,0,0,35,11,152.11,152.11,0,0,0,49,1,147.2,147.2,0,0,0,41-12,157.36,157.36,0,0,0,29-18c5-3.82,9-7.3,11.92-9.93a105,105,0,0,0,10.08-11.07c10.55-14,3.33-47.31-1.42-61.25-2.78-8.15-6.59-15.53-14-20.81l-.61-.42c-8.19-5.41-17.05-5.35-31.93-5.26-11.15.07-19.38.12-30,3.16s-16.49,7.07-25.79,5.26c-2.47-.48-4.25-1.19-11.23-4.91C137.3,163.12,133.55,157.77,124.27,158.35Z"/>
    <path class="cls-4" d="M159.89,144.84c0,2.29.06,5.77.17,10,.25,9.27.61,13.81.88,19.83.74,16.64,1.06,25-1.75,27.72-5.09,4.86-15.14,3.06-21.06.17-12.39-6.06-15.26-20.89-16.31-26.32a48.8,48.8,0,0,1,1.23-23.15L129,132l2.68-50.47a66.32,66.32,0,0,1,9.65-29.83,65.31,65.31,0,0,1,11.58-13.86,47.57,47.57,0,0,1,18.07-7.72c3.79-.73,21.88-3.75,37,8.43,7.37,5.92,10.5,12.75,14.18,21.13,3.09,7,7.16,18.45,9.85,52.37,2.33,29.23.36,31.64,4.56,41.58,6.48,15.31,18.68,25.89,16.5,28.25-1.57,1.69-8.81-2.66-9.83-1.05-.93,1.46,4.8,5.57,3.69,8.07-.85,1.9-4.62.49-8.78,2.63-4.33,2.23-4.16,5.78-7.19,8.59-5.56,5.17-17.92,4.5-25.09-1.4-5.82-4.79-6.63-11.73-7.72-21a79,79,0,0,1,3-31.93Z"/>
    <path class="cls-5" d="M216.82,114.93c0,4.77.39,12.79-4.39,20.35-2.18,3.45-4.51,5.4-8.51,8.68-9.65,7.94-15.89,12.86-24.21,12.9-9.94,0-17.33-7-24.38-13.77a41.15,41.15,0,0,1-9.92-13.25,42,42,0,0,1-3.33-16c-1.39-25.12-2.5-45.1,10.88-56.14,9.91-8.18,23.25-7.74,28.95-7.55,6.21.21,15.45.52,23.15,6.32C216.89,65.41,216.86,81.92,216.82,114.93Z"/>
    <path class="cls-5" d="M224.27,108.53c-2,4.58-3.11,4.72-3.42,4.73-2.17.08-3.85-5-3.94-5.26-.66-2-.62-4-.53-8.07a24.83,24.83,0,0,1,.35-4.91c.43-1.87,1.35-3.44,3.16-6.49,3-5.07,3.75-5.27,4.21-5.27,1.67,0,2.87,2.84,3.16,3.51.74,1.75,1,3.65.17,9.47C226.48,102.83,225.29,106.19,224.27,108.53Z"/>
    <path class="cls-4" d="M184.1,88.88c-.1.16-.82,1.35-.35,2.1,1,1.67,6.39-1.46,15.44-2.28,4.85-.44,7.85,0,7.89-.35s-5-1.69-10-1.93a39.61,39.61,0,0,0-6.67.35C186.05,87.23,184.74,87.81,184.1,88.88Z"/>
    <path class="cls-4" d="M170.41,89.58c.09.16.6,1.19.18,1.75s-1.93.3-2.46.18c0,0-4.29-1-11.22-2.28C150.35,88,145.18,91.53,145,91s3.38-2.5,7.54-3.68c5.47-1.55,9.39-.85,13.16-.18C167.5,87.45,169.59,88,170.41,89.58Z"/>
    <path class="cls-6" d="M163.22,127.65c.11-.31.48-.37,3-.88,4.91-1,4.7-1,5.27-1,3.18-.26,3.17.78,6.31.7,3.65-.09,4.13-1.5,7-1,2.15.33,2.28,1.17,4.39,1.4,3.26.36,5.41-1.38,5.61-1,.3.5-4.17,5.1-10.88,7.19a21.08,21.08,0,0,1-12.63.35C166.91,131.91,162.82,128.84,163.22,127.65Z"/>
    <path class="cls-4" d="M172,48c1,1.12-1.07,3.09-6,13-6.36,12.86-5.85,15.41-10.53,20.18a35.33,35.33,0,0,1-10.88,7.37c-3.73,1.73-5.6,2.6-6.66,1.93-3.41-2.16-.38-17.41,8.42-28.25C155.4,51.1,169.82,45.45,172,48Z"/>
    <path class="cls-4" d="M169.71,47.47c-.32,1.7,1.25,3,17.72,14.92,15.07,10.94,21.15,15.29,25.62,23.68,3,5.62,3.07,9.05,3.68,9,2-.35,5.15-38.67-13.33-50.53C190.92,36.48,170.76,41.94,169.71,47.47Z"/>
    <path class="cls-7" d="M99.77,294.83l-1-.15c.45-2.94.86-5.94,1.23-8.93,1.51-12.4,3.79-31.13,1.57-52.88a177.25,177.25,0,0,0-8-37.43l.95-.32a178.71,178.71,0,0,1,8.09,37.65c2.23,21.86-.06,40.66-1.58,53.1C100.63,288.87,100.22,291.88,99.77,294.83Z"/>
    <path class="cls-7" d="M233.34,286.52a131.1,131.1,0,0,1,7.92-47,128.22,128.22,0,0,1,17.44-32.41l.8.59a127.52,127.52,0,0,0-17.3,32.16,130.06,130.06,0,0,0-7.86,46.66Z"/>
  </g>
</svg>
