<svg xmlns="http://www.w3.org/2000/svg" width="110mm" height="110mm" viewBox="0 0 311.81 311.81">
    <defs>
        <style>
            .cls-1 {
                fill: #bf7b54;
                stroke: #a55023;
                stroke-miterlimit: 10;
                stroke-width: 3px;
            }

            .cls-2 {
                fill: #c1a28b;
            }

            .cls-3 {
                fill: #f5e6b9;
            }

            .cls-4 {
                fill: #3a281a;
            }

            .cls-5 {
                fill: #ddbfa6;
            }

            .cls-6 {
                fill: #a56b6b;
            }

            .cls-7 {
                fill: #ad7347;
            }

        </style>
    </defs>
    <g id="Layer_2" data-name="Layer 2">
        <g>
            <circle class="cls-1" cx="155.91" cy="155.91" r="150.5" />
            <path class="cls-2" d="M149,132.16l-.18,34,20.48,9.34,20.7-5.49q.65-16.74,1.28-33.5Z" />
            <path class="cls-3" d="M115.5,149.53c-2.85.18-1.82.64-14.74,3.16-10.3,2-11.09,1.74-14.21,2.63-11.79,3.35-19,12.41-21,14.91-4.78,6-8.18,13-11.41,27.2-6.09,26.84-11.57,52.68,2.28,68.93,4.87,5.72,12.64,10.83,19,15a138.7,138.7,0,0,0,18,10,147.17,147.17,0,0,0,35,11,152.11,152.11,0,0,0,49,1,147.08,147.08,0,0,0,41-12,157.36,157.36,0,0,0,29-18c5-3.81,9-7.3,11.93-9.93a105.49,105.49,0,0,0,10.07-11.07c10.56-14,3.33-47.31-1.42-61.25-2.77-8.15-6.59-15.53-13.94-20.81l-.62-.42c-8.18-5.41-17-5.35-31.93-5.26-11.15.07-19.38.12-30,3.16S175,174.85,165.67,173c-2.46-.48-4.24-1.19-11.22-4.91C128.52,154.3,124.77,149,115.5,149.53Z" />
            <path class="cls-4" d="M151.11,136c0,2.29.06,5.77.18,10,.25,9.27.61,13.81.87,19.83.74,16.64,1.07,25-1.75,27.72-5.09,4.86-15.14,3.06-21,.17-12.4-6.05-15.27-20.89-16.32-26.31a49,49,0,0,1,1.23-23.16q3-10.56,5.92-21.11l2.68-50.47a66.2,66.2,0,0,1,9.65-29.83A65.3,65.3,0,0,1,144.09,29a47.59,47.59,0,0,1,18.07-7.71c3.79-.74,21.88-3.76,37,8.42,7.37,5.92,10.5,12.75,14.18,21.13,3.1,7,7.16,18.45,9.86,52.38,2.32,29.22.35,31.63,4.56,41.57,6.47,15.31,18.67,25.89,16.49,28.25-1.56,1.69-8.8-2.66-9.82-1s4.79,5.57,3.68,8.07c-.85,1.9-4.62.49-8.77,2.63-4.34,2.23-4.16,5.78-7.2,8.6-5.56,5.16-17.91,4.49-25.08-1.41-5.83-4.79-6.64-11.73-7.72-21a78.8,78.8,0,0,1,3-31.93Z" />
            <path class="cls-5" d="M208,106.11c0,4.77.4,12.79-4.38,20.35-2.19,3.45-4.52,5.4-8.51,8.68-9.66,7.94-15.9,12.86-24.21,12.9-9.95.05-17.33-7-24.39-13.77A40.89,40.89,0,0,1,136.64,121a42,42,0,0,1-3.34-16c-1.39-25.12-2.5-45.1,10.88-56.14,9.91-8.18,23.25-7.74,28.95-7.55,6.22.21,15.45.52,23.16,6.32C208.11,56.59,208.09,73.1,208,106.11Z" />
            <path class="cls-5" d="M215.5,99.71c-2,4.58-3.11,4.72-3.42,4.73-2.17.08-3.86-5-4-5.26-.65-2-.61-4-.53-8.07A25.64,25.64,0,0,1,208,86.2c.44-1.87,1.35-3.44,3.16-6.49,3-5.07,3.75-5.27,4.21-5.27,1.67,0,2.88,2.85,3.16,3.51.74,1.75,1,3.66.18,9.48C217.7,94,216.52,97.37,215.5,99.71Z" />
            <path class="cls-4" d="M175.32,80.06c-.1.16-.82,1.35-.35,2.1,1.05,1.67,6.39-1.46,15.44-2.28,4.85-.44,7.85.05,7.89-.35s-5-1.69-10-1.93a39.54,39.54,0,0,0-6.66.35C177.27,78.41,176,79,175.32,80.06Z" />
            <path class="cls-4" d="M161.64,80.76c.08.16.6,1.19.17,1.75s-1.92.3-2.45.18c0,0-4.3-1-11.23-2.28-6.56-1.21-11.73,2.3-11.93,1.75s3.39-2.5,7.54-3.68c5.47-1.55,9.4-.85,13.16-.18C158.72,78.63,160.81,79.16,161.64,80.76Z" />
            <path class="cls-6" d="M154.45,118.83c.1-.31.47-.37,3-.88,4.9-1,4.7-1,5.26-1,3.19-.26,3.18.78,6.32.7,3.64-.09,4.13-1.5,7-1,2.15.33,2.28,1.17,4.39,1.4,3.27.36,5.42-1.38,5.61-1,.3.5-4.17,5.1-10.87,7.19a21.09,21.09,0,0,1-12.63.35C158.13,123.09,154,120,154.45,118.83Z" />
            <path class="cls-4" d="M163.22,39.18c.95,1.12-1.08,3.09-6,13C150.89,65,151.4,67.57,146.73,72.34a35.56,35.56,0,0,1-10.88,7.37c-3.74,1.73-5.6,2.6-6.67,1.93-3.4-2.16-.38-17.41,8.42-28.25C146.62,42.28,161.05,36.63,163.22,39.18Z" />
            <path class="cls-4" d="M160.94,38.65c-.32,1.7,1.24,3,17.72,14.92,15.06,10.94,21.14,15.29,25.61,23.68,3,5.62,3.08,9,3.68,9,2-.35,5.16-38.67-13.33-50.53C182.14,27.66,162,33.12,160.94,38.65Z" />
            <path class="cls-7" d="M91,286l-1-.15c.45-2.94.86-5.94,1.23-8.93,1.51-12.4,3.8-31.13,1.58-52.88a177.28,177.28,0,0,0-8-37.43l.95-.32A178.09,178.09,0,0,1,93.8,224c2.23,21.86-.06,40.66-1.58,53.1C91.86,280.05,91.44,283.06,91,286Z" />
            <path class="cls-7" d="M224.56,277.7a131.1,131.1,0,0,1,7.92-47,128.22,128.22,0,0,1,17.44-32.41l.8.59A127.52,127.52,0,0,0,233.42,231a130.27,130.27,0,0,0-7.86,46.66Z" />
        </g>
    </g>
</svg>
