<svg id="Layer_1" data-name="Layer 1" xmlns="http://www.w3.org/2000/svg" width="1414" height="1857" viewBox="0 0 1414 1857">
  <defs>
    <style>
      .cls-1 {
        fill: #bb7b54;
      }

      .cls-2 {
        fill: #1f3140;
      }
    </style>
  </defs>
  <g>
    <polygon class="cls-1" points="860.4 1475.59 866.83 1528.49 880.14 1513.48 873.95 1530.91 904.93 1534.79 872.8 1542.29 882.66 1555.98 866.14 1548.83 860.4 1599.2 853.75 1549.07 837 1556.33 848.93 1542.05 817.26 1535.75 846.87 1532.12 840.67 1514.21 853.75 1528.49 860.4 1475.59"/>
    <polygon class="cls-1" points="860.06 110.18 866.49 163.09 879.8 148.08 873.6 165.51 904.58 169.38 872.46 176.89 882.32 190.58 865.8 183.42 860.06 233.8 853.41 183.66 836.66 190.93 848.59 176.64 816.92 170.35 846.52 166.72 840.33 148.81 853.41 163.09 860.06 110.18"/>
    <g>
      <path class="cls-2" d="M829.36,277.42V253.5h12.5v2.59h-10.5l.95-.77v10.13l-.95-1.31h9.85v2.58h-9.85l.95-1.3v12Z"/>
      <path class="cls-2" d="M853.88,277.89a9,9,0,0,1-4.25-1,7.71,7.71,0,0,1-3-2.79,7.76,7.76,0,0,1,3-11,9.55,9.55,0,0,1,8.51,0,7.73,7.73,0,0,1,3,2.78,8.15,8.15,0,0,1,0,8.21,7.75,7.75,0,0,1-3,2.79A9,9,0,0,1,853.88,277.89Zm-7.26,0,12.93-15.78h1.6l-12.94,15.78Zm7.28-2.45a5.6,5.6,0,0,0,2.78-.7,5.07,5.07,0,0,0,1.94-1.93,5.94,5.94,0,0,0,0-5.63,5,5,0,0,0-1.94-1.92,5.91,5.91,0,0,0-5.58,0,5.14,5.14,0,0,0-2,1.92,5.94,5.94,0,0,0,0,5.63,5.16,5.16,0,0,0,2,1.93A5.62,5.62,0,0,0,853.9,275.44Z"/>
      <path class="cls-2" d="M873.3,277.89a7,7,0,0,1-3.74-1,7.36,7.36,0,0,1-2.65-2.8,8.94,8.94,0,0,1,0-8.12,7.34,7.34,0,0,1,2.63-2.81,7.12,7.12,0,0,1,3.82-1,6.93,6.93,0,0,1,3.39.84,6.35,6.35,0,0,1,2.43,2.34V252.47H882v25h-2.81v-2.78a6.92,6.92,0,0,1-2.49,2.38A6.78,6.78,0,0,1,873.3,277.89Zm.75-2.43a5.15,5.15,0,0,0,2.7-.7,5,5,0,0,0,1.84-1.93,6.29,6.29,0,0,0,0-5.65,5,5,0,0,0-1.84-1.95,5.5,5.5,0,0,0-5.37,0,5,5,0,0,0-1.85,1.95,6.29,6.29,0,0,0,0,5.65,4.88,4.88,0,0,0,1.84,1.93A5.1,5.1,0,0,0,874.05,275.46Z"/>
      <path class="cls-2" d="M892.05,277.89a3.52,3.52,0,0,1-2.85-1.22,5.17,5.17,0,0,1-1-3.4v-8.56h-1.65v-2.14h1.65V257H891v5.55h3.57v2.14H891v8.39a2.85,2.85,0,0,0,.44,1.7,1.45,1.45,0,0,0,1.24.59,2.34,2.34,0,0,0,1.45-.48l.71,2.25a5.05,5.05,0,0,1-1.31.53A5.85,5.85,0,0,1,892.05,277.89Z"/>
      <path class="cls-2" d="M782.38,307.42v-1.09q2.43-1.87,4.18-3.35c1.18-1,2.16-1.86,3-2.64a19.89,19.89,0,0,0,1.92-2.09,7.29,7.29,0,0,0,1-1.72,4.15,4.15,0,0,0,.31-1.54,4,4,0,0,0-1.95-3.46,3.83,3.83,0,0,0-2-.54,3.79,3.79,0,0,0-2,.54,4.48,4.48,0,0,0-1.5,1.5,6,6,0,0,0-.79,2.26l-1.95-.77a7.09,7.09,0,0,1,.74-2.25,6.31,6.31,0,0,1,1.38-1.77,6.24,6.24,0,0,1,1.92-1.16,6.78,6.78,0,0,1,5.5.38,6,6,0,0,1,2.25,2.14,5.85,5.85,0,0,1,.82,3.09,5.93,5.93,0,0,1-.26,1.72,6.73,6.73,0,0,1-.85,1.76,13.51,13.51,0,0,1-1.57,1.94c-.65.68-1.46,1.43-2.42,2.26s-2.09,1.73-3.4,2.75h8.83v2Z"/>
      <path class="cls-2" d="M801.07,307.42l5.64-6.69a3.72,3.72,0,0,1-2.19.65,5.78,5.78,0,0,1-2.31-.46,5.94,5.94,0,0,1-1.91-1.3,6.15,6.15,0,0,1-1.31-2,6.42,6.42,0,0,1-.48-2.51,6.3,6.3,0,0,1,.8-3.15,5.85,5.85,0,0,1,2.25-2.22,6.77,6.77,0,0,1,3.4-.82,7.06,7.06,0,0,1,3.46.83,6.13,6.13,0,0,1,2.34,2.26,6.19,6.19,0,0,1,.84,3.2,8.68,8.68,0,0,1-.14,1.58,7.14,7.14,0,0,1-.43,1.38,8.81,8.81,0,0,1-.7,1.27,14.58,14.58,0,0,1-.94,1.25l-5.6,6.72Zm4-8a4.12,4.12,0,0,0,1.65-.33,4.22,4.22,0,0,0,1.34-.94,4.42,4.42,0,0,0,.91-1.38,4.53,4.53,0,0,0-.22-3.86,3.9,3.9,0,0,0-1.49-1.5,4.69,4.69,0,0,0-4.39,0,3.94,3.94,0,0,0-1.53,1.5,4.2,4.2,0,0,0-.57,2.18,4.23,4.23,0,0,0,4.3,4.32Z"/>
      <path class="cls-2" d="M813.26,310.06l9.07-21.56h1.77L815,310.06Z"/>
      <path class="cls-2" d="M833.47,307.77a6.59,6.59,0,0,1-3.9-1.18,7.79,7.79,0,0,1-2.6-3.3,13.56,13.56,0,0,1,0-9.87,7.79,7.79,0,0,1,2.6-3.3,7,7,0,0,1,7.79,0,7.77,7.77,0,0,1,2.59,3.3,13.56,13.56,0,0,1,0,9.87,7.77,7.77,0,0,1-2.59,3.3A6.54,6.54,0,0,1,833.47,307.77Zm0-2a4.09,4.09,0,0,0,2.66-.91,5.87,5.87,0,0,0,1.76-2.58,12.57,12.57,0,0,0,0-7.86,5.81,5.81,0,0,0-1.76-2.58,4.1,4.1,0,0,0-2.66-.92,4.14,4.14,0,0,0-2.67.92,5.73,5.73,0,0,0-1.76,2.58,12.57,12.57,0,0,0,0,7.86,5.79,5.79,0,0,0,1.76,2.58A4.13,4.13,0,0,0,833.47,305.78Z"/>
      <path class="cls-2" d="M843.75,307.42v-1.09q2.43-1.87,4.18-3.35c1.18-1,2.16-1.86,3-2.64a19.89,19.89,0,0,0,1.92-2.09,7.29,7.29,0,0,0,1-1.72,4.36,4.36,0,0,0,.31-1.54,4,4,0,0,0-.53-2,4.08,4.08,0,0,0-1.42-1.44,3.83,3.83,0,0,0-2-.54,3.79,3.79,0,0,0-2,.54,4.48,4.48,0,0,0-1.5,1.5,5.78,5.78,0,0,0-.79,2.26l-1.95-.77a7.09,7.09,0,0,1,.74-2.25,6.21,6.21,0,0,1,3.29-2.93,6.54,6.54,0,0,1,2.32-.41,6.42,6.42,0,0,1,3.19.79,6,6,0,0,1,2.81,6.95,6.73,6.73,0,0,1-.85,1.76,13.51,13.51,0,0,1-1.57,1.94c-.66.68-1.46,1.43-2.42,2.26s-2.09,1.73-3.4,2.75h8.83v2Z"/>
      <path class="cls-2" d="M860.79,302v-1.84h7.09V302Z"/>
      <path class="cls-2" d="M871.32,307.42v-1.09c1.61-1.25,3-2.37,4.18-3.35s2.16-1.86,3-2.64a19.89,19.89,0,0,0,1.92-2.09,7.21,7.21,0,0,0,1-1.72,4.15,4.15,0,0,0,.31-1.54,4,4,0,0,0-.52-2,4.11,4.11,0,0,0-1.43-1.44,4,4,0,0,0-4,0,4.48,4.48,0,0,0-1.5,1.5,5.77,5.77,0,0,0-.78,2.26l-2-.77a7.08,7.08,0,0,1,.73-2.25,6.28,6.28,0,0,1,3.3-2.93,6.54,6.54,0,0,1,2.32-.41,6.42,6.42,0,0,1,3.19.79,6,6,0,0,1,2.24,2.14,5.85,5.85,0,0,1,.82,3.09,5.92,5.92,0,0,1-.25,1.72,7.43,7.43,0,0,1-.85,1.76,14.23,14.23,0,0,1-1.57,1.94c-.66.68-1.47,1.43-2.42,2.26s-2.1,1.73-3.41,2.75h8.83v2Z"/>
      <path class="cls-2" d="M895.21,307.77a6.54,6.54,0,0,1-3.89-1.18,7.73,7.73,0,0,1-2.61-3.3,13.7,13.7,0,0,1,0-9.87,7.73,7.73,0,0,1,2.61-3.3,7,7,0,0,1,7.78,0,7.79,7.79,0,0,1,2.6,3.3,13.7,13.7,0,0,1,0,9.87,7.79,7.79,0,0,1-2.6,3.3A6.54,6.54,0,0,1,895.21,307.77Zm0-2a4.09,4.09,0,0,0,2.66-.91,5.87,5.87,0,0,0,1.76-2.58,12.57,12.57,0,0,0,0-7.86,5.81,5.81,0,0,0-1.76-2.58,4.1,4.1,0,0,0-2.66-.92,4.14,4.14,0,0,0-2.67.92,5.81,5.81,0,0,0-1.76,2.58,12.57,12.57,0,0,0,0,7.86,5.87,5.87,0,0,0,1.76,2.58A4.13,4.13,0,0,0,895.21,305.78Z"/>
      <path class="cls-2" d="M913.42,307.77a6.57,6.57,0,0,1-3.9-1.18,7.79,7.79,0,0,1-2.6-3.3,13.56,13.56,0,0,1,0-9.87,7.79,7.79,0,0,1,2.6-3.3,7,7,0,0,1,7.78,0,7.72,7.72,0,0,1,2.6,3.3,13.56,13.56,0,0,1,0,9.87,7.72,7.72,0,0,1-2.6,3.3A6.51,6.51,0,0,1,913.42,307.77Zm0-2a4.13,4.13,0,0,0,2.66-.91,6,6,0,0,0,1.76-2.58,12.77,12.77,0,0,0,0-7.86,5.89,5.89,0,0,0-1.76-2.58,4.32,4.32,0,0,0-5.33,0,5.83,5.83,0,0,0-1.77,2.58,12.77,12.77,0,0,0,0,7.86,5.88,5.88,0,0,0,1.77,2.58A4.13,4.13,0,0,0,913.42,305.78Z"/>
      <path class="cls-2" d="M931.62,307.77a6.54,6.54,0,0,1-3.89-1.18,7.81,7.81,0,0,1-2.61-3.3,13.7,13.7,0,0,1,0-9.87,7.81,7.81,0,0,1,2.61-3.3,7,7,0,0,1,7.78,0,7.79,7.79,0,0,1,2.6,3.3,13.56,13.56,0,0,1,0,9.87,7.79,7.79,0,0,1-2.6,3.3A6.54,6.54,0,0,1,931.62,307.77Zm0-2a4.09,4.09,0,0,0,2.66-.91,5.87,5.87,0,0,0,1.76-2.58,12.57,12.57,0,0,0,0-7.86,5.81,5.81,0,0,0-1.76-2.58,4.1,4.1,0,0,0-2.66-.92,4.14,4.14,0,0,0-2.67.92,5.81,5.81,0,0,0-1.76,2.58,12.57,12.57,0,0,0,0,7.86,5.87,5.87,0,0,0,1.76,2.58A4.13,4.13,0,0,0,931.62,305.78Z"/>
    </g>
    <g>
      <path class="cls-2" d="M324.29,628V604.07h12.5v2.59h-10.5l.95-.76V616l-.95-1.31h9.85v2.58h-9.85l.95-1.3v12Z"/>
      <path class="cls-2" d="M347.88,628.46a9,9,0,0,1-4.25-1,7.75,7.75,0,0,1-3-2.79,8.15,8.15,0,0,1,0-8.21,7.73,7.73,0,0,1,3-2.78,9.55,9.55,0,0,1,8.51,0,7.73,7.73,0,0,1,3,2.78,8.15,8.15,0,0,1,0,8.21,7.75,7.75,0,0,1-3,2.79A9,9,0,0,1,347.88,628.46Zm0-2.45a5.6,5.6,0,0,0,2.78-.7,5.07,5.07,0,0,0,1.94-1.93,5.94,5.94,0,0,0,0-5.63,5,5,0,0,0-1.94-1.92,5.91,5.91,0,0,0-5.58,0,5,5,0,0,0-1.94,1.92,5.94,5.94,0,0,0,0,5.63,5.07,5.07,0,0,0,1.94,1.93A5.62,5.62,0,0,0,347.9,626Z"/>
      <path class="cls-2" d="M361,628V603.05h2.81V628Z"/>
      <path class="cls-2" d="M369.72,628V603.05h2.81v16l5.8-5.88H382l-6.92,7.07,7.26,7.77h-3.61l-6.19-6.7V628Z"/>
      <path class="cls-2" d="M392.82,628.46a8.53,8.53,0,0,1-4.19-1,7.69,7.69,0,0,1-2.93-2.81,7.55,7.55,0,0,1-1.08-4,8,8,0,0,1,.61-3.09,8.22,8.22,0,0,1,1.7-2.53,8,8,0,0,1,2.52-1.7,7.77,7.77,0,0,1,3.08-.61,8.29,8.29,0,0,1,4.06,1,6.88,6.88,0,0,1,2.73,2.67,7.87,7.87,0,0,1,1,4c0,.13,0,.23,0,.3s0,.18-.06.31H387.47a5.27,5.27,0,0,0,.7,2.74,5,5,0,0,0,1.94,1.86,5.89,5.89,0,0,0,2.85.68,5.78,5.78,0,0,0,2.73-.63,5.9,5.9,0,0,0,2.09-1.85l2.06,1.07a7.36,7.36,0,0,1-2.91,2.73A8.77,8.77,0,0,1,392.82,628.46Zm-5.21-9.65h9.86a4.29,4.29,0,0,0-.89-2,4.66,4.66,0,0,0-1.72-1.35,5.29,5.29,0,0,0-2.29-.49,5.81,5.81,0,0,0-2.36.47,4.44,4.44,0,0,0-2.6,3.37Z"/>
      <path class="cls-2" d="M408.83,628.46a6.55,6.55,0,0,1-3.29-.81,5.84,5.84,0,0,1-2.27-2.3l1.35-1.74a6,6,0,0,0,1.86,2,4.2,4.2,0,0,0,2.33.71,3.37,3.37,0,0,0,1.47-.32,2.52,2.52,0,0,0,1.45-2.35,1.9,1.9,0,0,0-.4-1.26,3.43,3.43,0,0,0-1.18-.8c-.52-.23-1.16-.5-1.93-.8a18.53,18.53,0,0,1-1.8-.85,4.58,4.58,0,0,1-1.43-1.21,3,3,0,0,1-.56-1.87,3.68,3.68,0,0,1,.66-2.16,4.47,4.47,0,0,1,1.82-1.48,6.32,6.32,0,0,1,2.64-.53,6.06,6.06,0,0,1,2.33.47,7.85,7.85,0,0,1,2.15,1.38l-1.13,1.71a4.54,4.54,0,0,0-3.33-1.59,2.7,2.7,0,0,0-1.79.56,1.78,1.78,0,0,0-.68,1.44,1.5,1.5,0,0,0,.49,1.14,4.53,4.53,0,0,0,1.26.79c.52.22,1,.44,1.6.65a18.33,18.33,0,0,1,2.18,1,4,4,0,0,1,1.46,1.27,3.64,3.64,0,0,1,.52,2.08,4.68,4.68,0,0,1-.72,2.62,4.5,4.5,0,0,1-2,1.69A7.36,7.36,0,0,1,408.83,628.46Z"/>
      <path class="cls-2" d="M419.38,628V603.05h2.82v16l5.8-5.88h3.65l-6.92,7.07L432,628h-3.61l-6.19-6.7V628Z"/>
      <path class="cls-2" d="M442.65,628.46a9,9,0,0,1-4.25-1,7.75,7.75,0,0,1-3-2.79,8.15,8.15,0,0,1,0-8.21,7.73,7.73,0,0,1,3-2.78,9.55,9.55,0,0,1,8.51,0,7.73,7.73,0,0,1,3,2.78,8.15,8.15,0,0,1,0,8.21,7.75,7.75,0,0,1-3,2.79A9,9,0,0,1,442.65,628.46Zm0-2.45a5.6,5.6,0,0,0,2.78-.7,5.16,5.16,0,0,0,1.95-1.93,5.94,5.94,0,0,0,0-5.63,5.14,5.14,0,0,0-1.95-1.92,5.91,5.91,0,0,0-5.58,0,5,5,0,0,0-1.94,1.92,5.94,5.94,0,0,0,0,5.63,5.07,5.07,0,0,0,1.94,1.93A5.62,5.62,0,0,0,442.67,626Z"/>
      <path class="cls-2" d="M455.73,628V603.05h2.82V628Z"/>
      <path class="cls-2" d="M471.49,628.46a8.58,8.58,0,0,1-4.19-1,7.73,7.73,0,0,1-2.92-2.81,7.55,7.55,0,0,1-1.08-4,7.78,7.78,0,0,1,.61-3.09,8,8,0,0,1,1.7-2.53,7.82,7.82,0,0,1,5.59-2.31,8.3,8.3,0,0,1,4.07,1,6.88,6.88,0,0,1,2.73,2.67,7.87,7.87,0,0,1,1,4,2.11,2.11,0,0,1,0,.3c0,.08,0,.18-.06.31H466.14a5.28,5.28,0,0,0,.71,2.74,5,5,0,0,0,1.94,1.86,5.86,5.86,0,0,0,7.66-1.8l2.06,1.07a7.27,7.27,0,0,1-2.9,2.73A8.84,8.84,0,0,1,471.49,628.46Zm-5.2-9.65h9.86a4.39,4.39,0,0,0-.89-2,4.7,4.7,0,0,0-1.73-1.35,5.21,5.21,0,0,0-2.28-.49,5.78,5.78,0,0,0-2.36.47,4.48,4.48,0,0,0-1.72,1.34A4.4,4.4,0,0,0,466.29,618.81Z"/>
      <path class="cls-2" d="M332.84,658V656.9c1.61-1.25,3-2.37,4.18-3.35s2.16-1.86,3-2.63a20.91,20.91,0,0,0,1.92-2.1,7,7,0,0,0,1-1.72,4.13,4.13,0,0,0,.32-1.54,4,4,0,0,0-.53-2,4,4,0,0,0-1.43-1.44,3.77,3.77,0,0,0-2-.54,3.85,3.85,0,0,0-2,.54,4.42,4.42,0,0,0-1.5,1.51,5.67,5.67,0,0,0-.78,2.25l-1.95-.77a6.94,6.94,0,0,1,.73-2.24,6.24,6.24,0,0,1,1.39-1.77,6.12,6.12,0,0,1,1.91-1.16,6.33,6.33,0,0,1,2.32-.42,6.42,6.42,0,0,1,3.19.79,6,6,0,0,1,2.24,2.14,5.86,5.86,0,0,1,.83,3.09,6,6,0,0,1-.26,1.73,7,7,0,0,1-.85,1.75,13.64,13.64,0,0,1-1.57,1.94c-.66.68-1.47,1.44-2.42,2.26s-2.09,1.74-3.41,2.75H346v2Z"/>
      <path class="cls-2" d="M356.73,658.34a6.54,6.54,0,0,1-3.89-1.18,7.72,7.72,0,0,1-2.6-3.3,13.53,13.53,0,0,1,0-9.86,7.6,7.6,0,0,1,2.6-3.3,7,7,0,0,1,7.78,0,7.67,7.67,0,0,1,2.6,3.3,13.53,13.53,0,0,1,0,9.86,7.79,7.79,0,0,1-2.6,3.3A6.54,6.54,0,0,1,356.73,658.34Zm0-2a4.09,4.09,0,0,0,2.66-.91,5.79,5.79,0,0,0,1.76-2.58,12.57,12.57,0,0,0,0-7.86,5.79,5.79,0,0,0-1.76-2.58,4.1,4.1,0,0,0-2.66-.92,4.14,4.14,0,0,0-2.67.92A6,6,0,0,0,352.3,645a12.57,12.57,0,0,0,0,7.86,6,6,0,0,0,1.76,2.58A4.13,4.13,0,0,0,356.73,656.35Z"/>
      <path class="cls-2" d="M374.94,658.34a6.59,6.59,0,0,1-3.9-1.18,7.79,7.79,0,0,1-2.6-3.3,13.53,13.53,0,0,1,0-9.86,7.67,7.67,0,0,1,2.6-3.3,7,7,0,0,1,7.79,0,7.65,7.65,0,0,1,2.59,3.3,13.53,13.53,0,0,1,0,9.86,7.77,7.77,0,0,1-2.59,3.3A6.56,6.56,0,0,1,374.94,658.34Zm0-2a4.11,4.11,0,0,0,2.66-.91,6,6,0,0,0,1.76-2.58,12.57,12.57,0,0,0,0-7.86,6,6,0,0,0-1.76-2.58,4.32,4.32,0,0,0-5.33,0A5.88,5.88,0,0,0,370.5,645a12.77,12.77,0,0,0,0,7.86,5.88,5.88,0,0,0,1.77,2.58A4.13,4.13,0,0,0,374.94,656.35Z"/>
      <path class="cls-2" d="M392,658.34a7.08,7.08,0,0,1-2.74-.5,6.2,6.2,0,0,1-2.09-1.36,6.13,6.13,0,0,1-1.79-4.36,7.7,7.7,0,0,1,.6-2.87,10,10,0,0,1,1.6-2.69l5.61-6.72H396l-5.54,6.58a5.11,5.11,0,0,1,1.07-.4,4.85,4.85,0,0,1,1.16-.14,5.63,5.63,0,0,1,2.28.46,5.4,5.4,0,0,1,1.87,1.29,6,6,0,0,1,1.26,2,6.52,6.52,0,0,1,.46,2.51,6.23,6.23,0,0,1-.82,3.23,5.84,5.84,0,0,1-2.29,2.2A6.89,6.89,0,0,1,392,658.34Zm-.09-1.89a4.48,4.48,0,0,0,2.24-.55,4.11,4.11,0,0,0,1.54-1.53,4.31,4.31,0,0,0,.56-2.2,4.35,4.35,0,0,0-.57-2.23,4.24,4.24,0,0,0-1.53-1.56,4.4,4.4,0,0,0-4.33,0,4.35,4.35,0,0,0-1.57,1.59,4.53,4.53,0,0,0-.06,4.36,4,4,0,0,0,1.48,1.53A4.31,4.31,0,0,0,392,656.45Z"/>
      <path class="cls-2" d="M402.12,652.54V650.7h7.08v1.84Z"/>
      <path class="cls-2" d="M412.65,658V656.9q2.42-1.87,4.18-3.35c1.17-1,2.15-1.86,2.95-2.63a20.91,20.91,0,0,0,1.92-2.1,7.09,7.09,0,0,0,1-1.72,4.11,4.11,0,0,0,.31-1.54,3.88,3.88,0,0,0-.53-2,4,4,0,0,0-1.42-1.44,4,4,0,0,0-4,0,4.42,4.42,0,0,0-1.5,1.51,5.84,5.84,0,0,0-.79,2.25l-1.94-.77a6.71,6.71,0,0,1,.73-2.24,6.18,6.18,0,0,1,3.3-2.93,6.24,6.24,0,0,1,2.31-.42,6.4,6.4,0,0,1,3.19.79,5.94,5.94,0,0,1,2.25,2.14,5.85,5.85,0,0,1,.82,3.09,6,6,0,0,1-.26,1.73,7,7,0,0,1-.84,1.75,13.78,13.78,0,0,1-1.58,1.94c-.65.68-1.46,1.44-2.42,2.26s-2.09,1.74-3.4,2.75h8.83v2Z"/>
      <path class="cls-2" d="M436.54,658.34a6.59,6.59,0,0,1-3.9-1.18,7.79,7.79,0,0,1-2.6-3.3,13.53,13.53,0,0,1,0-9.86,7.67,7.67,0,0,1,2.6-3.3,6.6,6.6,0,0,1,3.9-1.19,6.51,6.51,0,0,1,3.88,1.19A7.6,7.6,0,0,1,443,644a13.53,13.53,0,0,1,0,9.86,7.72,7.72,0,0,1-2.6,3.3A6.51,6.51,0,0,1,436.54,658.34Zm0-2a4.11,4.11,0,0,0,2.66-.91,6,6,0,0,0,1.76-2.58,12.57,12.57,0,0,0,0-7.86,6,6,0,0,0-1.76-2.58,4.32,4.32,0,0,0-5.33,0A5.88,5.88,0,0,0,432.1,645a12.77,12.77,0,0,0,0,7.86,5.88,5.88,0,0,0,1.77,2.58A4.13,4.13,0,0,0,436.54,656.35Z"/>
      <path class="cls-2" d="M448.85,658V642h-2v-2.2h4.25V658Z"/>
      <path class="cls-2" d="M461.79,658.34a7.08,7.08,0,0,1-2.74-.5,6.2,6.2,0,0,1-2.09-1.36,6.09,6.09,0,0,1-1.33-2,6.24,6.24,0,0,1-.46-2.36,7.7,7.7,0,0,1,.6-2.87,10,10,0,0,1,1.6-2.69l5.61-6.72h2.72l-5.53,6.58a4.79,4.79,0,0,1,2.22-.54,5.63,5.63,0,0,1,2.28.46,5.4,5.4,0,0,1,1.87,1.29,6,6,0,0,1,1.26,2,6.52,6.52,0,0,1,.46,2.51,6.23,6.23,0,0,1-.82,3.23,5.77,5.77,0,0,1-2.29,2.2A6.89,6.89,0,0,1,461.79,658.34Zm-.08-1.89a4.44,4.44,0,0,0,2.23-.55,4.11,4.11,0,0,0,1.54-1.53,4.31,4.31,0,0,0,.56-2.2,4.35,4.35,0,0,0-.57-2.23,4.24,4.24,0,0,0-1.53-1.56,4.38,4.38,0,0,0-4.32,0A4.38,4.38,0,0,0,458,650a4.53,4.53,0,0,0-.06,4.36,4,4,0,0,0,1.48,1.53A4.32,4.32,0,0,0,461.71,656.45Z"/>
    </g>
    <g>
      <path class="cls-2" d="M664.58,848.08a11.26,11.26,0,0,1-4.62-.94,11.63,11.63,0,0,1-3.74-2.65,12.18,12.18,0,0,1-2.5-4,13,13,0,0,1-.9-4.87,13.61,13.61,0,0,1,.81-4.67,12.27,12.27,0,0,1,2.36-4,11.24,11.24,0,0,1,3.78-2.75,11.94,11.94,0,0,1,5-1,13.15,13.15,0,0,1,3.4.43,12.87,12.87,0,0,1,3,1.21,11.55,11.55,0,0,1,2.49,1.86L672.28,829a9.69,9.69,0,0,0-3.32-2.29,10.51,10.51,0,0,0-4.15-.84,8.74,8.74,0,0,0-3.74.76,8,8,0,0,0-2.77,2.12,9.35,9.35,0,0,0-1.72,3.09,11.52,11.52,0,0,0-.59,3.7,11.16,11.16,0,0,0,.66,3.9,9.68,9.68,0,0,0,1.85,3.13,8.46,8.46,0,0,0,2.77,2.07,8.12,8.12,0,0,0,3.41.73,8.89,8.89,0,0,0,2.88-.49,8.18,8.18,0,0,0,2.53-1.42,6.81,6.81,0,0,0,1.79-2.2,6.07,6.07,0,0,0,.66-2.84v-.69h-8.07v-2.34h11.08V838a9.27,9.27,0,0,1-3.47,7.48,11.77,11.77,0,0,1-3.54,1.95A12.28,12.28,0,0,1,664.58,848.08Z"/>
      <path class="cls-2" d="M680.54,847.62V832.77h2.81V835a5.28,5.28,0,0,1,1.89-2,5,5,0,0,1,2.59-.67,6.33,6.33,0,0,1,1.42.17,4.86,4.86,0,0,1,1.24.44l-1.16,2.38a4.18,4.18,0,0,0-1.05-.4,5,5,0,0,0-1.11-.14,3.7,3.7,0,0,0-1.85.5,4.14,4.14,0,0,0-1.42,1.3,2.92,2.92,0,0,0-.55,1.71v9.35Z"/>
      <path class="cls-2" d="M695.36,829.77a1.69,1.69,0,0,1-.88-.24,1.87,1.87,0,0,1-.64-.64,1.72,1.72,0,0,1-.24-.89,1.64,1.64,0,0,1,.24-.88,1.93,1.93,0,0,1,.64-.63,1.69,1.69,0,0,1,.88-.24,1.64,1.64,0,0,1,.88.24,1.9,1.9,0,0,1,.63.63,1.63,1.63,0,0,1,.24.87,1.73,1.73,0,0,1-.24.9,1.84,1.84,0,0,1-.63.64A1.64,1.64,0,0,1,695.36,829.77ZM694,847.62V832.77h2.82v14.85Z"/>
      <path class="cls-2" d="M711.41,848.08a6.75,6.75,0,0,1-3.38-.86,6.92,6.92,0,0,1-2.49-2.38v2.78h-2.82V822.68h2.82v12.8a6.4,6.4,0,0,1,2.43-2.33,6.89,6.89,0,0,1,3.38-.84,7.17,7.17,0,0,1,3.82,1,7.33,7.33,0,0,1,2.64,2.8,9,9,0,0,1,0,8.13,7.44,7.44,0,0,1-2.65,2.8A7,7,0,0,1,711.41,848.08Zm-.75-2.42a5.11,5.11,0,0,0,2.69-.7,5,5,0,0,0,1.83-1.94,6.23,6.23,0,0,0,0-5.64,5,5,0,0,0-1.84-2,5.48,5.48,0,0,0-5.36,0,5,5,0,0,0-1.86,2,6.31,6.31,0,0,0,0,5.64A4.94,4.94,0,0,0,708,845,5.19,5.19,0,0,0,710.66,845.66Z"/>
      <path class="cls-2" d="M727.45,848.08a6.57,6.57,0,0,1-3.29-.8,6,6,0,0,1-2.27-2.3l1.35-1.74a5.9,5.9,0,0,0,1.86,2,4.12,4.12,0,0,0,2.33.71,3.31,3.31,0,0,0,1.48-.32,2.49,2.49,0,0,0,1.44-2.34A1.88,1.88,0,0,0,730,842a3.43,3.43,0,0,0-1.18-.8c-.51-.24-1.16-.5-1.93-.8a16.51,16.51,0,0,1-1.8-.86,4.45,4.45,0,0,1-1.43-1.21,3,3,0,0,1-.56-1.86,3.68,3.68,0,0,1,.66-2.16,4.47,4.47,0,0,1,1.82-1.48,6.23,6.23,0,0,1,2.64-.54,6,6,0,0,1,2.34.48,7.8,7.8,0,0,1,2.14,1.38l-1.13,1.71a4.5,4.5,0,0,0-3.33-1.59,2.75,2.75,0,0,0-1.79.55,1.81,1.81,0,0,0-.68,1.45,1.5,1.5,0,0,0,.49,1.13,4.24,4.24,0,0,0,1.27.79q.76.35,1.59.66a20.2,20.2,0,0,1,2.18,1,4,4,0,0,1,1.46,1.27,3.66,3.66,0,0,1,.52,2.08,4.79,4.79,0,0,1-.71,2.63,4.65,4.65,0,0,1-2,1.69A7.36,7.36,0,0,1,727.45,848.08Z"/>
      <path class="cls-2" d="M738,847.62V822.68h2.82v16l5.8-5.89h3.65l-6.92,7.08,7.27,7.77H747l-6.19-6.7v6.7Z"/>
      <path class="cls-2" d="M761.28,848.08a8.93,8.93,0,0,1-4.26-1,7.56,7.56,0,0,1-4.11-6.88,7.57,7.57,0,0,1,1.11-4.11,7.73,7.73,0,0,1,3-2.78,9.55,9.55,0,0,1,8.51,0,7.73,7.73,0,0,1,3,2.78,8.15,8.15,0,0,1,0,8.21,7.65,7.65,0,0,1-3,2.78A8.92,8.92,0,0,1,761.28,848.08Zm0-2.45a5.57,5.57,0,0,0,2.78-.69A5.16,5.16,0,0,0,766,843a5.94,5.94,0,0,0,0-5.63,5.07,5.07,0,0,0-1.95-1.92,5.47,5.47,0,0,0-2.78-.7,5.54,5.54,0,0,0-2.8.7,5,5,0,0,0-1.94,1.92,5.94,5.94,0,0,0,0,5.63,5.14,5.14,0,0,0,1.94,1.93A5.64,5.64,0,0,0,761.29,845.63Z"/>
      <path class="cls-2" d="M779.27,847.62l-7.38-14.85h3.31l5,11,5-11h3.31l-7.4,14.85Z"/>
      <path class="cls-2" d="M810.62,848.08a11.33,11.33,0,0,1-4.62-.94,11.63,11.63,0,0,1-3.74-2.65,12.35,12.35,0,0,1-2.5-4,13,13,0,0,1-.9-4.87,13.61,13.61,0,0,1,.81-4.67,12.12,12.12,0,0,1,2.37-4,11.1,11.1,0,0,1,3.77-2.75,12,12,0,0,1,5-1,13.15,13.15,0,0,1,3.4.43,12.87,12.87,0,0,1,3,1.21,11.08,11.08,0,0,1,2.49,1.86L818.32,829a9.69,9.69,0,0,0-3.32-2.29,10.47,10.47,0,0,0-4.15-.84,8.74,8.74,0,0,0-3.74.76,8.07,8.07,0,0,0-2.77,2.12,9.53,9.53,0,0,0-1.72,3.09,11.52,11.52,0,0,0-.58,3.7,11.16,11.16,0,0,0,.65,3.9,9.68,9.68,0,0,0,1.85,3.13,8.57,8.57,0,0,0,2.77,2.07,8.15,8.15,0,0,0,3.41.73,8.9,8.9,0,0,0,2.89-.49,8.29,8.29,0,0,0,2.53-1.42,6.91,6.91,0,0,0,1.78-2.2,6.07,6.07,0,0,0,.66-2.84v-.69h-8.06v-2.34H821.6V838a9.32,9.32,0,0,1-3.48,7.48,11.77,11.77,0,0,1-3.54,1.95A12.28,12.28,0,0,1,810.62,848.08Z"/>
      <path class="cls-2" d="M827.08,855.16l4-8.35-7.06-14h3.21L832.69,844l4.91-11.24h3.21l-10.54,22.39Z"/>
      <path class="cls-2" d="M844.4,847.62V832.77h2.82v1.92a6.19,6.19,0,0,1,2.13-1.79,5.88,5.88,0,0,1,2.64-.59,6,6,0,0,1,3.16.82,4.36,4.36,0,0,1,1.9,2.22,7.29,7.29,0,0,1,2.23-2.23,5.68,5.68,0,0,1,3.06-.81,6,6,0,0,1,2.83.65,4.83,4.83,0,0,1,1.94,1.89,5.89,5.89,0,0,1,.71,3v9.79H865v-9a4.31,4.31,0,0,0-1-3,3.31,3.31,0,0,0-2.58-1.08,4.15,4.15,0,0,0-2,.48,3.93,3.93,0,0,0-1.41,1.26,2.93,2.93,0,0,0-.51,1.63v9.66h-2.82v-9.19a4,4,0,0,0-1-2.8,3.29,3.29,0,0,0-2.56-1,4.27,4.27,0,0,0-2,.47,3.89,3.89,0,0,0-1.43,1.22,2.68,2.68,0,0,0-.53,1.58v9.76Z"/>
      <path class="cls-2" d="M873.52,847.62V832.77h2.81v1.92a5.39,5.39,0,0,1,2-1.7,6.39,6.39,0,0,1,3-.68,5.94,5.94,0,0,1,3,.72,4.8,4.8,0,0,1,2,2.06,7,7,0,0,1,.69,3.22v9.31h-2.82v-8.74a4.66,4.66,0,0,0-1-3.21,3.57,3.57,0,0,0-2.81-1.11,4.26,4.26,0,0,0-2.14.5,3.51,3.51,0,0,0-1.37,1.33,3.59,3.59,0,0,0-.48,1.82v9.41Z"/>
      <path class="cls-2" d="M898.91,848.08a7.08,7.08,0,0,1-3.75-1,7.29,7.29,0,0,1-2.65-2.8,8.27,8.27,0,0,1-1-4.08,8.37,8.37,0,0,1,1-4,7.28,7.28,0,0,1,2.62-2.8,7.5,7.5,0,0,1,7.24-.19,6,6,0,0,1,2.42,2.33v-2.71h2.81v14.85h-2.81v-2.78a7,7,0,0,1-2.5,2.39A6.71,6.71,0,0,1,898.91,848.08Zm.75-2.42a5.09,5.09,0,0,0,2.69-.7,5,5,0,0,0,1.84-1.94,6.38,6.38,0,0,0,0-5.65,5,5,0,0,0-4.53-2.64,5,5,0,0,0-4.53,2.64,6.29,6.29,0,0,0,0,5.65,5,5,0,0,0,4.53,2.64Z"/>
      <path class="cls-2" d="M917.37,848.08a6.57,6.57,0,0,1-3.29-.8,5.88,5.88,0,0,1-2.26-2.3l1.34-1.74a6,6,0,0,0,1.86,2,4.12,4.12,0,0,0,2.33.71,3.25,3.25,0,0,0,1.48-.32,2.46,2.46,0,0,0,1-.92,2.54,2.54,0,0,0,.39-1.42,1.83,1.83,0,0,0-.4-1.26,3.48,3.48,0,0,0-1.17-.8c-.52-.24-1.17-.5-1.94-.8a16.51,16.51,0,0,1-1.8-.86,4.56,4.56,0,0,1-1.43-1.21,3,3,0,0,1-.56-1.86,3.68,3.68,0,0,1,.66-2.16,4.47,4.47,0,0,1,1.82-1.48,6.23,6.23,0,0,1,2.64-.54,5.94,5.94,0,0,1,2.34.48,7.8,7.8,0,0,1,2.14,1.38l-1.13,1.71a4.5,4.5,0,0,0-3.33-1.59,2.75,2.75,0,0,0-1.79.55,1.81,1.81,0,0,0-.68,1.45,1.47,1.47,0,0,0,.5,1.13,4.06,4.06,0,0,0,1.26.79q.76.35,1.59.66a20.2,20.2,0,0,1,2.18,1,4,4,0,0,1,1.46,1.27,3.66,3.66,0,0,1,.52,2.08,4.71,4.71,0,0,1-.71,2.63,4.65,4.65,0,0,1-2,1.69A7.36,7.36,0,0,1,917.37,848.08Z"/>
      <path class="cls-2" d="M929.32,829.77a1.69,1.69,0,0,1-.88-.24,1.78,1.78,0,0,1-.64-.64,1.72,1.72,0,0,1-.24-.89,1.64,1.64,0,0,1,.24-.88,1.84,1.84,0,0,1,.64-.63,1.69,1.69,0,0,1,.88-.24,1.64,1.64,0,0,1,.88.24,1.9,1.9,0,0,1,.63.63,1.63,1.63,0,0,1,.24.87,1.73,1.73,0,0,1-.24.9,1.84,1.84,0,0,1-.63.64A1.64,1.64,0,0,1,929.32,829.77Zm-1.41,17.85V832.77h2.81v14.85Z"/>
      <path class="cls-2" d="M943.06,848.08q-3.59,0-5.13-1.54c-1-1-1.55-2.74-1.55-5.14v-8.63h2.81v8.05a6.26,6.26,0,0,0,.89,3.8,4.52,4.52,0,0,0,6,0,6.26,6.26,0,0,0,.89-3.8v-8.05h2.81v8.63q0,3.6-1.55,5.14T943.06,848.08Z"/>
      <path class="cls-2" d="M955.4,847.62V832.77h2.81v1.92a6.31,6.31,0,0,1,2.14-1.79,5.88,5.88,0,0,1,2.64-.59,6,6,0,0,1,3.16.82,4.36,4.36,0,0,1,1.9,2.22,7.29,7.29,0,0,1,2.23-2.23,5.68,5.68,0,0,1,3.06-.81,6.05,6.05,0,0,1,2.83.65,4.83,4.83,0,0,1,1.94,1.89,5.89,5.89,0,0,1,.71,3v9.79H976v-9a4.31,4.31,0,0,0-1-3,3.32,3.32,0,0,0-2.59-1.08,4.14,4.14,0,0,0-2,.48,3.93,3.93,0,0,0-1.41,1.26,2.94,2.94,0,0,0-.52,1.63v9.66h-2.81v-9.19a4,4,0,0,0-1-2.8,3.25,3.25,0,0,0-2.55-1,4.24,4.24,0,0,0-2,.47,4,4,0,0,0-1.44,1.22,2.75,2.75,0,0,0-.53,1.58v9.76Z"/>
      <path class="cls-2" d="M998.28,848.08a9.41,9.41,0,0,1-3.21-.5,10,10,0,0,1-2.42-1.22,10.72,10.72,0,0,1-1.66-1.43,13.82,13.82,0,0,1-1-1.11l1.61-2.29q.33.4.9,1.05a9.73,9.73,0,0,0,1.39,1.27,7.6,7.6,0,0,0,1.93,1.07,6.7,6.7,0,0,0,2.49.44,6.1,6.1,0,0,0,2.39-.46,4,4,0,0,0,1.72-1.38,4.27,4.27,0,0,0,.18-4.21,4.36,4.36,0,0,0-1.29-1.39,11.23,11.23,0,0,0-1.93-1.07c-.73-.32-1.52-.64-2.37-1-.6-.25-1.21-.53-1.83-.85a8.44,8.44,0,0,1-1.71-1.19,5.53,5.53,0,0,1-1.26-1.68,5.09,5.09,0,0,1-.48-2.29,6.31,6.31,0,0,1,.51-2.52,6.41,6.41,0,0,1,1.43-2.11,6.84,6.84,0,0,1,2.21-1.45,7.49,7.49,0,0,1,2.85-.53,7.85,7.85,0,0,1,2.63.44,9.22,9.22,0,0,1,2.22,1.11,7.15,7.15,0,0,1,1.55,1.41l-1.38,2.16a6.25,6.25,0,0,0-1.22-1.18,6.41,6.41,0,0,0-1.7-.91,6,6,0,0,0-2-.35,4.44,4.44,0,0,0-2.29.56,4,4,0,0,0-1.43,1.44,3.81,3.81,0,0,0-.49,1.89,2.88,2.88,0,0,0,.37,1.52,3.45,3.45,0,0,0,1,1.06,7.88,7.88,0,0,0,1.41.77c.52.22,1.06.43,1.61.64,1,.38,1.92.78,2.8,1.19a10.85,10.85,0,0,1,2.32,1.44,5.94,5.94,0,0,1,1.57,2,6.19,6.19,0,0,1,.57,2.77,6.29,6.29,0,0,1-3.87,6.09A9.87,9.87,0,0,1,998.28,848.08Z"/>
      <path class="cls-2" d="M1015.17,847.62V826.33h-6.93V823.7h16.82v2.63h-6.94v21.29Z"/>
      <path class="cls-2" d="M1027.41,847.62l9.13-12.9-7.7-11h3.54l6,8.54,6-8.54h3.54l-7.69,11,9.12,12.9h-3.66l-7.28-10.34-7.28,10.34Z"/>
      <path class="cls-2" d="M787.73,877.62v-1.09q2.43-1.87,4.18-3.35c1.18-1,2.16-1.86,3-2.64a19.89,19.89,0,0,0,1.92-2.09,7.29,7.29,0,0,0,1-1.72,4.15,4.15,0,0,0,.31-1.54,4,4,0,0,0-1.95-3.46,3.83,3.83,0,0,0-2-.54,3.79,3.79,0,0,0-2,.54,4.48,4.48,0,0,0-1.5,1.5,6,6,0,0,0-.79,2.26l-1.95-.77a7,7,0,0,1,.74-2.25,6.31,6.31,0,0,1,1.38-1.77,6.24,6.24,0,0,1,1.92-1.16,6.78,6.78,0,0,1,5.5.38,6,6,0,0,1,2.25,2.14,5.85,5.85,0,0,1,.82,3.09,5.93,5.93,0,0,1-.26,1.72,6.73,6.73,0,0,1-.85,1.76,13,13,0,0,1-1.57,1.93c-.66.69-1.46,1.44-2.42,2.27s-2.09,1.73-3.4,2.75h8.83v2Z"/>
      <path class="cls-2" d="M811.63,878a6.57,6.57,0,0,1-3.9-1.18,7.79,7.79,0,0,1-2.6-3.3,13.56,13.56,0,0,1,0-9.87,7.79,7.79,0,0,1,2.6-3.3,7,7,0,0,1,7.78,0,7.79,7.79,0,0,1,2.6,3.3,13.56,13.56,0,0,1,0,9.87,7.79,7.79,0,0,1-2.6,3.3A6.51,6.51,0,0,1,811.63,878Zm0-2a4.13,4.13,0,0,0,2.66-.91,5.93,5.93,0,0,0,1.76-2.59,11.08,11.08,0,0,0,.62-3.92,11.2,11.2,0,0,0-.62-3.94,6,6,0,0,0-1.76-2.58,4.36,4.36,0,0,0-5.33,0,5.88,5.88,0,0,0-1.77,2.58,11.2,11.2,0,0,0-.62,3.94,11.08,11.08,0,0,0,.62,3.92,5.86,5.86,0,0,0,1.77,2.59A4.13,4.13,0,0,0,811.63,876Z"/>
      <path class="cls-2" d="M823.93,877.62v-16h-2v-2.2h4.25v18.15Z"/>
      <path class="cls-2" d="M836.88,878a7.08,7.08,0,0,1-2.74-.5,6.1,6.1,0,0,1-3.88-5.72,7.7,7.7,0,0,1,.6-2.87,10,10,0,0,1,1.6-2.69l5.61-6.72h2.72l-5.54,6.58a4.61,4.61,0,0,1,1.07-.4,4.85,4.85,0,0,1,1.16-.14,5.63,5.63,0,0,1,2.28.46,5.4,5.4,0,0,1,1.87,1.29,5.94,5.94,0,0,1,1.26,2,6.61,6.61,0,0,1,.46,2.52,6.28,6.28,0,0,1-.82,3.23,5.91,5.91,0,0,1-2.29,2.2A6.89,6.89,0,0,1,836.88,878Zm-.09-1.89a4.48,4.48,0,0,0,2.24-.55,4.11,4.11,0,0,0,1.54-1.53,4.34,4.34,0,0,0,.56-2.2,4.42,4.42,0,0,0-.57-2.24A4.29,4.29,0,0,0,839,868a4.1,4.1,0,0,0-2.14-.56,4.22,4.22,0,0,0-2.19.58,4.4,4.4,0,0,0-1.57,1.58,4.3,4.3,0,0,0-.59,2.25,4.21,4.21,0,0,0,.53,2.11,3.91,3.91,0,0,0,1.48,1.54A4.31,4.31,0,0,0,836.79,876.08Z"/>
      <path class="cls-2" d="M847,872.17v-1.84H854v1.84Z"/>
      <path class="cls-2" d="M857.49,877.62v-1.09q2.41-1.87,4.18-3.35c1.17-1,2.15-1.86,3-2.64a19.89,19.89,0,0,0,1.92-2.09,7.29,7.29,0,0,0,1-1.72,4.15,4.15,0,0,0,.31-1.54,4,4,0,0,0-1.95-3.46,4,4,0,0,0-4,0,4.48,4.48,0,0,0-1.5,1.5,6,6,0,0,0-.79,2.26l-1.94-.77a6.76,6.76,0,0,1,.73-2.25,6.31,6.31,0,0,1,1.38-1.77,6.24,6.24,0,0,1,1.92-1.16,6.78,6.78,0,0,1,5.5.38,5.94,5.94,0,0,1,2.25,2.14,5.85,5.85,0,0,1,.82,3.09,5.93,5.93,0,0,1-.26,1.72,7,7,0,0,1-.84,1.76,13.74,13.74,0,0,1-1.58,1.93c-.65.69-1.46,1.44-2.42,2.27s-2.09,1.73-3.4,2.75h8.83v2Z"/>
      <path class="cls-2" d="M881.38,878a6.59,6.59,0,0,1-3.9-1.18,7.79,7.79,0,0,1-2.6-3.3,13.56,13.56,0,0,1,0-9.87,7.79,7.79,0,0,1,2.6-3.3,6.66,6.66,0,0,1,3.9-1.18,6.58,6.58,0,0,1,3.88,1.18,7.72,7.72,0,0,1,2.6,3.3,13.56,13.56,0,0,1,0,9.87,7.72,7.72,0,0,1-2.6,3.3A6.51,6.51,0,0,1,881.38,878Zm0-2a4.11,4.11,0,0,0,2.66-.91,5.93,5.93,0,0,0,1.76-2.59,11.08,11.08,0,0,0,.63-3.92,11.19,11.19,0,0,0-.63-3.94A6,6,0,0,0,884,862a4.36,4.36,0,0,0-5.33,0,5.88,5.88,0,0,0-1.77,2.58,11.43,11.43,0,0,0-.62,3.94,11.32,11.32,0,0,0,.62,3.92,5.86,5.86,0,0,0,1.77,2.59A4.13,4.13,0,0,0,881.38,876Z"/>
      <path class="cls-2" d="M893.69,877.62v-16h-2v-2.2h4.25v18.15Z"/>
      <path class="cls-2" d="M902.53,877.62l5.63-6.69a3.68,3.68,0,0,1-2.19.65,5.76,5.76,0,0,1-2.3-.46,6,6,0,0,1-3.22-3.29,6.42,6.42,0,0,1-.48-2.51,6.3,6.3,0,0,1,.79-3.15A6,6,0,0,1,903,860a6.79,6.79,0,0,1,3.4-.82,7.07,7.07,0,0,1,3.47.83,6.08,6.08,0,0,1,3.18,5.46,7.85,7.85,0,0,1-.15,1.58,6.48,6.48,0,0,1-.42,1.38,9.89,9.89,0,0,1-.7,1.27,14.58,14.58,0,0,1-.94,1.25l-5.6,6.72Zm4-8a4.12,4.12,0,0,0,1.65-.33,4.33,4.33,0,0,0,1.34-.94,4.6,4.6,0,0,0,.91-1.38,4.25,4.25,0,0,0,.33-1.67,4.39,4.39,0,0,0-.55-2.19,3.9,3.9,0,0,0-1.49-1.5,4.62,4.62,0,0,0-4.39,0,4,4,0,0,0-1.54,1.5,4.53,4.53,0,0,0,0,4.38,4.21,4.21,0,0,0,3.73,2.12Z"/>
    </g>
    <g>
      <path class="cls-2" d="M495.41,1080.08v-23.92h2.95v10.67l10.15-10.67h3.66L501,1067.9l12.47,12.18h-4.1l-11-10.64v10.64Z"/>
      <path class="cls-2" d="M517.12,1080.08v-14.84h2.81v2.17a5.17,5.17,0,0,1,1.89-2,5,5,0,0,1,2.59-.68,6.33,6.33,0,0,1,1.42.17,5.44,5.44,0,0,1,1.24.44l-1.16,2.38a3.82,3.82,0,0,0-1-.39,4.61,4.61,0,0,0-1.12-.15,3.69,3.69,0,0,0-1.84.5,4.37,4.37,0,0,0-1.43,1.3,3,3,0,0,0-.54,1.71v9.35Z"/>
      <path class="cls-2" d="M536.61,1080.55a7,7,0,0,1-3.75-1,7.49,7.49,0,0,1-2.66-2.81,9,9,0,0,1,0-8.11,7.34,7.34,0,0,1,2.63-2.81,7.5,7.5,0,0,1,7.24-.19,6,6,0,0,1,2.41,2.34v-2.71h2.82v14.84h-2.82v-2.78a6.8,6.8,0,0,1-5.85,3.25Zm.75-2.42a5.1,5.1,0,0,0,2.69-.71,4.93,4.93,0,0,0,1.83-1.93,6.31,6.31,0,0,0,0-5.66,4.93,4.93,0,0,0-1.83-1.93,5.43,5.43,0,0,0-5.37,0,5,5,0,0,0-1.85,1.93,6.29,6.29,0,0,0,0,5.65,4.94,4.94,0,0,0,1.85,1.94A5.08,5.08,0,0,0,537.36,1078.13Z"/>
      <path class="cls-2" d="M559.91,1080.55a6.8,6.8,0,0,1-5.87-3.25v2.78h-2.82v-24.94H554V1068a6.26,6.26,0,0,1,2.42-2.34,6.93,6.93,0,0,1,3.39-.84,7.18,7.18,0,0,1,6.46,3.84,8.36,8.36,0,0,1,1,4.05,8.2,8.2,0,0,1-1,4.07,7.27,7.27,0,0,1-2.64,2.8A7,7,0,0,1,559.91,1080.55Zm-.76-2.42a5,5,0,0,0,4.53-2.64,6.33,6.33,0,0,0,0-5.65,5,5,0,0,0-1.84-1.94,5.08,5.08,0,0,0-2.68-.71,5.17,5.17,0,0,0-2.69.71,5,5,0,0,0-1.85,1.94,6.25,6.25,0,0,0,0,5.65,5,5,0,0,0,1.85,1.93A5.18,5.18,0,0,0,559.15,1078.13Z"/>
      <path class="cls-2" d="M580.82,1080.55a6.82,6.82,0,0,1-3.38-.86,6.9,6.9,0,0,1-2.5-2.39v2.78h-2.81v-24.94h2.81V1068a6.35,6.35,0,0,1,2.43-2.34,6.93,6.93,0,0,1,3.39-.84,7.2,7.2,0,0,1,3.81,1,7.31,7.31,0,0,1,2.65,2.81,8.36,8.36,0,0,1,1,4.05,8.2,8.2,0,0,1-1,4.07,7.27,7.27,0,0,1-2.64,2.8A7,7,0,0,1,580.82,1080.55Zm-.76-2.42a5.1,5.1,0,0,0,2.69-.71,5,5,0,0,0,1.84-1.93,6.33,6.33,0,0,0,0-5.65,5,5,0,0,0-1.84-1.94,5.08,5.08,0,0,0-2.68-.71,5.17,5.17,0,0,0-2.69.71,4.94,4.94,0,0,0-1.85,1.94,6.25,6.25,0,0,0,0,5.65,5,5,0,0,0,1.85,1.93A5.18,5.18,0,0,0,580.06,1078.13Z"/>
      <path class="cls-2" d="M600,1080.55a8.48,8.48,0,0,1-4.19-1,7.83,7.83,0,0,1-2.93-2.81,8.06,8.06,0,0,1-.46-7.09,8,8,0,0,1,1.7-2.54,7.82,7.82,0,0,1,5.59-2.31,8.3,8.3,0,0,1,4.07,1,6.88,6.88,0,0,1,2.73,2.67,7.87,7.87,0,0,1,1,4,2.11,2.11,0,0,1,0,.3c0,.08,0,.18-.06.31H594.69a5.28,5.28,0,0,0,.71,2.74,5,5,0,0,0,1.94,1.86,5.86,5.86,0,0,0,7.66-1.8l2.06,1.07a7.27,7.27,0,0,1-2.9,2.73A8.84,8.84,0,0,1,600,1080.55Zm-5.2-9.64h9.86a4.38,4.38,0,0,0-.89-2,4.7,4.7,0,0,0-1.73-1.35,5.21,5.21,0,0,0-2.28-.49,5.78,5.78,0,0,0-2.36.47,4.48,4.48,0,0,0-1.72,1.34A4.39,4.39,0,0,0,594.84,1070.91Z"/>
      <path class="cls-2" d="M616.05,1080.55a6.51,6.51,0,0,1-3.28-.81,5.88,5.88,0,0,1-2.27-2.29l1.35-1.74a6.07,6.07,0,0,0,1.85,2,4.25,4.25,0,0,0,2.34.71,3.37,3.37,0,0,0,1.47-.32,2.6,2.6,0,0,0,1-.92,2.57,2.57,0,0,0,.39-1.43,1.85,1.85,0,0,0-.4-1.26,3.28,3.28,0,0,0-1.17-.8c-.52-.23-1.16-.5-1.94-.8a15.47,15.47,0,0,1-1.79-.85,4.58,4.58,0,0,1-1.43-1.21,3,3,0,0,1-.56-1.87,3.68,3.68,0,0,1,.66-2.16,4.4,4.4,0,0,1,1.82-1.48,6.32,6.32,0,0,1,2.64-.53,6.06,6.06,0,0,1,2.33.47,7.85,7.85,0,0,1,2.15,1.38l-1.13,1.71a4.54,4.54,0,0,0-3.34-1.59,2.67,2.67,0,0,0-1.78.56,1.75,1.75,0,0,0-.68,1.44,1.5,1.5,0,0,0,.49,1.14,4.53,4.53,0,0,0,1.26.79c.51.22,1,.44,1.6.65a19.08,19.08,0,0,1,2.18,1,4,4,0,0,1,1.46,1.27,3.72,3.72,0,0,1,.52,2.08,4.68,4.68,0,0,1-.72,2.62,4.55,4.55,0,0,1-2,1.69A7.41,7.41,0,0,1,616.05,1080.55Z"/>
      <path class="cls-2" d="M626.61,1080.08v-24.95h2.81v12a5.39,5.39,0,0,1,2-1.7,6.39,6.39,0,0,1,3-.68,5.94,5.94,0,0,1,3,.72,4.88,4.88,0,0,1,2,2.07,7,7,0,0,1,.69,3.22v9.3h-2.82v-8.74a4.66,4.66,0,0,0-1-3.21,3.57,3.57,0,0,0-2.81-1.13,4.24,4.24,0,0,0-2.14.51,3.67,3.67,0,0,0-1.37,1.34,3.62,3.62,0,0,0-.48,1.82v9.41Z"/>
      <path class="cls-2" d="M652.88,1080.55a9,9,0,0,1-4.25-1,7.78,7.78,0,0,1-3-2.79,8.21,8.21,0,0,1,0-8.21,7.83,7.83,0,0,1,3-2.78,9.55,9.55,0,0,1,8.51,0,7.8,7.8,0,0,1,3,2.78,8.15,8.15,0,0,1,0,8.21,7.75,7.75,0,0,1-3,2.79A9,9,0,0,1,652.88,1080.55Zm0-2.45a5.5,5.5,0,0,0,2.78-.7,5.07,5.07,0,0,0,1.94-1.93,5.94,5.94,0,0,0,0-5.63,5,5,0,0,0-1.94-1.92,5.91,5.91,0,0,0-5.58,0,5,5,0,0,0-1.94,1.92,5.94,5.94,0,0,0,0,5.63,5.07,5.07,0,0,0,1.94,1.93A5.52,5.52,0,0,0,652.9,1078.1Z"/>
      <path class="cls-2" d="M666,1080.08v-24.94h2.81v24.94Z"/>
      <path class="cls-2" d="M674.72,1080.08v-14.84h2.81v1.91a6.34,6.34,0,0,1,2.13-1.78,5.79,5.79,0,0,1,2.64-.6,6,6,0,0,1,3.16.82,4.39,4.39,0,0,1,1.9,2.23,7.25,7.25,0,0,1,2.24-2.24,5.68,5.68,0,0,1,3.06-.81,6,6,0,0,1,2.82.65,4.92,4.92,0,0,1,1.95,1.89,5.93,5.93,0,0,1,.71,3v9.78h-2.82v-9a4.22,4.22,0,0,0-1-2.94,3.28,3.28,0,0,0-2.58-1.09,4.2,4.2,0,0,0-2,.48,3.91,3.91,0,0,0-1.4,1.27,2.84,2.84,0,0,0-.52,1.63v9.65H685v-9.19a4,4,0,0,0-1-2.8,3.32,3.32,0,0,0-2.55-1,4.33,4.33,0,0,0-2,.47,3.78,3.78,0,0,0-1.44,1.23,2.7,2.7,0,0,0-.53,1.58v9.75Z"/>
      <path class="cls-2" d="M712.13,1080.08v-23.92h2.94v10.64H726.9v-10.64h3v23.92h-3v-10.7H715.07v10.7Z"/>
      <path class="cls-2" d="M743.71,1080.55a9,9,0,0,1-4.26-1,7.75,7.75,0,0,1-3-2.79,8.15,8.15,0,0,1,0-8.21,7.8,7.8,0,0,1,3-2.78,9.55,9.55,0,0,1,8.51,0,7.76,7.76,0,0,1,3,2.78,8.15,8.15,0,0,1,0,8.21,7.71,7.71,0,0,1-3,2.79A9,9,0,0,1,743.71,1080.55Zm-7.26,0,12.93-15.78H751L738,1080.55Zm7.27-2.45a5.51,5.51,0,0,0,2.79-.7,5.07,5.07,0,0,0,1.94-1.93,5.94,5.94,0,0,0,0-5.63,5,5,0,0,0-1.94-1.92,5.91,5.91,0,0,0-5.58,0,5.07,5.07,0,0,0-1.95,1.92,5.94,5.94,0,0,0,0,5.63,5.09,5.09,0,0,0,1.95,1.93A5.51,5.51,0,0,0,743.72,1078.1Z"/>
      <path class="cls-2" d="M755.32,1088.06a7,7,0,0,1-1.64-.2,3.87,3.87,0,0,1-1.34-.58l.84-2.27a2.47,2.47,0,0,0,1.61.54c1.38,0,2.07-.93,2.07-2.8v-17.51h2.81v17.89a5.34,5.34,0,0,1-1.13,3.65A4.06,4.06,0,0,1,755.32,1088.06Zm2.95-25.85a1.72,1.72,0,0,1-.89-.24,1.87,1.87,0,0,1-.64-.64,1.75,1.75,0,0,1,0-1.77,1.78,1.78,0,0,1,.64-.64,1.72,1.72,0,0,1,.89-.24,1.63,1.63,0,0,1,.87.24,1.78,1.78,0,0,1,.64.64,1.73,1.73,0,0,1,0,1.76,1.81,1.81,0,0,1-.64.65A1.63,1.63,0,0,1,758.27,1062.21Z"/>
      <path class="cls-2" d="M769.58,1080.55a6.58,6.58,0,0,1-3.29-.81,5.88,5.88,0,0,1-2.27-2.29l1.35-1.74a6,6,0,0,0,1.86,2,4.2,4.2,0,0,0,2.33.71,3.45,3.45,0,0,0,1.48-.32,2.67,2.67,0,0,0,1.05-.92,2.57,2.57,0,0,0,.39-1.43,1.9,1.9,0,0,0-.4-1.26,3.43,3.43,0,0,0-1.18-.8c-.51-.23-1.16-.5-1.93-.8a16.45,16.45,0,0,1-1.8-.85,4.58,4.58,0,0,1-1.43-1.21,3,3,0,0,1-.56-1.87,3.68,3.68,0,0,1,.66-2.16,4.47,4.47,0,0,1,1.82-1.48,6.38,6.38,0,0,1,2.64-.53,6.15,6.15,0,0,1,2.34.47,7.8,7.8,0,0,1,2.14,1.38l-1.13,1.71a4.5,4.5,0,0,0-3.33-1.59,2.7,2.7,0,0,0-1.79.56,1.78,1.78,0,0,0-.68,1.44,1.53,1.53,0,0,0,.49,1.14,4.45,4.45,0,0,0,1.27.79c.51.22,1,.44,1.59.65a18.33,18.33,0,0,1,2.18,1,3.87,3.87,0,0,1,1.46,1.27,3.64,3.64,0,0,1,.52,2.08,4.75,4.75,0,0,1-.71,2.62,4.58,4.58,0,0,1-2,1.69A7.36,7.36,0,0,1,769.58,1080.55Z"/>
      <path class="cls-2" d="M780.13,1080.08v-24.94H783v16l5.8-5.88h3.65l-6.92,7.07,7.27,7.77h-3.61l-6.19-6.7v6.7Z"/>
      <path class="cls-2" d="M803.41,1080.55a9,9,0,0,1-4.26-1,7.75,7.75,0,0,1-3-2.79,8.15,8.15,0,0,1,0-8.21,7.8,7.8,0,0,1,3-2.78,9.55,9.55,0,0,1,8.51,0,7.8,7.8,0,0,1,3,2.78,8.15,8.15,0,0,1,0,8.21,7.75,7.75,0,0,1-3,2.79A9,9,0,0,1,803.41,1080.55Zm0-2.45a5.47,5.47,0,0,0,2.78-.7,5.09,5.09,0,0,0,1.95-1.93,5.94,5.94,0,0,0,0-5.63,5.07,5.07,0,0,0-1.95-1.92,5.47,5.47,0,0,0-2.78-.7,5.54,5.54,0,0,0-2.8.7,5,5,0,0,0-1.94,1.92,5.94,5.94,0,0,0,0,5.63,5.07,5.07,0,0,0,1.94,1.93A5.54,5.54,0,0,0,803.42,1078.1Z"/>
      <path class="cls-2" d="M816.49,1080.08v-24.94h2.81v24.94Z"/>
      <path class="cls-2" d="M832.25,1080.55a8.42,8.42,0,0,1-4.19-1,7.69,7.69,0,0,1-2.93-2.81,7.55,7.55,0,0,1-1.08-4,7.87,7.87,0,0,1,.61-3.08,8,8,0,0,1,1.7-2.54,7.89,7.89,0,0,1,2.52-1.7,7.73,7.73,0,0,1,3.08-.61,8.29,8.29,0,0,1,4.06,1,6.88,6.88,0,0,1,2.73,2.67,7.87,7.87,0,0,1,1,4,2.11,2.11,0,0,1,0,.3c0,.08,0,.18-.05.31H826.9a5.27,5.27,0,0,0,.7,2.74,5,5,0,0,0,1.94,1.86,5.89,5.89,0,0,0,2.85.68,5.78,5.78,0,0,0,2.73-.63,5.9,5.9,0,0,0,2.09-1.85l2,1.07a7.27,7.27,0,0,1-2.9,2.73A8.83,8.83,0,0,1,832.25,1080.55Zm-5.21-9.64h9.86a4.28,4.28,0,0,0-.89-2,4.7,4.7,0,0,0-1.73-1.35,5.21,5.21,0,0,0-2.28-.49,5.78,5.78,0,0,0-2.36.47,4.43,4.43,0,0,0-2.6,3.38Z"/>
      <path class="cls-2" d="M524,1116.13a5.34,5.34,0,0,1-1.25-.15,2.85,2.85,0,0,1-1-.44l.63-1.72a1.92,1.92,0,0,0,1.23.41c1,0,1.57-.71,1.57-2.12v-13.29h2.13v13.57a4,4,0,0,1-.86,2.77A3.06,3.06,0,0,1,524,1116.13Zm2.24-19.61a1.33,1.33,0,0,1-.68-.18,1.38,1.38,0,0,1-.48-.48,1.25,1.25,0,0,1-.19-.68,1.21,1.21,0,0,1,.19-.67,1.38,1.38,0,0,1,.48-.48,1.33,1.33,0,0,1,.68-.18,1.26,1.26,0,0,1,.66.18,1.5,1.5,0,0,1,.49.48,1.29,1.29,0,0,1,.18.67,1.32,1.32,0,0,1-.18.67,1.44,1.44,0,0,1-.49.49A1.26,1.26,0,0,1,526.23,1096.52Z"/>
      <path class="cls-2" d="M536.58,1110.44a5.35,5.35,0,0,1-2.85-.78,5.72,5.72,0,0,1-2-2.13,6.84,6.84,0,0,1,0-6.15,5.54,5.54,0,0,1,2-2.13,5.68,5.68,0,0,1,5.49-.14,4.46,4.46,0,0,1,1.83,1.77v-2.06h2.14v11.26H541V1108a5.31,5.31,0,0,1-1.89,1.82A5.14,5.14,0,0,1,536.58,1110.44Zm.57-1.84a3.92,3.92,0,0,0,2-.53,3.85,3.85,0,0,0,1.39-1.47,4.77,4.77,0,0,0,0-4.29,3.72,3.72,0,0,0-1.39-1.47,3.84,3.84,0,0,0-2-.54,3.89,3.89,0,0,0-2,.54,3.74,3.74,0,0,0-1.4,1.47,4.74,4.74,0,0,0,0,4.28,3.84,3.84,0,0,0,1.4,1.48A4,4,0,0,0,537.15,1108.6Z"/>
      <path class="cls-2" d="M547.67,1110.08v-11.26h2.13v1.45a4,4,0,0,1,1.48-1.28,4.79,4.79,0,0,1,2.3-.52,4.54,4.54,0,0,1,2.27.54,3.74,3.74,0,0,1,1.48,1.57,5.29,5.29,0,0,1,.52,2.44v7.06h-2.13v-6.63A3.54,3.54,0,0,0,555,1101a2.75,2.75,0,0,0-2.14-.85,3.29,3.29,0,0,0-1.62.38,2.73,2.73,0,0,0-1,1,2.8,2.8,0,0,0-.36,1.39v7.13Z"/>
      <path class="cls-2" d="M567,1110.44a4.31,4.31,0,0,1-5.07-5.07v-6.55h2.14v6.1a4.76,4.76,0,0,0,.67,2.89,2.7,2.7,0,0,0,2.26.86,2.74,2.74,0,0,0,2.28-.86,4.76,4.76,0,0,0,.67-2.89v-6.1h2.13v6.55a4.31,4.31,0,0,1-5.08,5.07Z"/>
      <path class="cls-2" d="M581.13,1110.44a5.35,5.35,0,0,1-2.85-.78,5.72,5.72,0,0,1-2-2.13,6.84,6.84,0,0,1,0-6.15,5.54,5.54,0,0,1,2-2.13,5.68,5.68,0,0,1,5.49-.14,4.46,4.46,0,0,1,1.83,1.77v-2.06h2.14v11.26h-2.14V1108a5.31,5.31,0,0,1-1.89,1.82A5.14,5.14,0,0,1,581.13,1110.44Zm.57-1.84a3.92,3.92,0,0,0,2-.53,3.85,3.85,0,0,0,1.39-1.47,4.77,4.77,0,0,0,0-4.29,3.72,3.72,0,0,0-1.39-1.47,4.1,4.1,0,0,0-4.07,0,3.7,3.7,0,0,0-1.41,1.47,4.74,4.74,0,0,0,0,4.28,3.79,3.79,0,0,0,1.41,1.48A3.91,3.91,0,0,0,581.7,1108.6Z"/>
      <path class="cls-2" d="M592.22,1110.08v-11.26h2.13v1.65a4,4,0,0,1,1.43-1.49,3.83,3.83,0,0,1,2-.51,4.94,4.94,0,0,1,1.07.12,4.11,4.11,0,0,1,.94.34l-.88,1.8a3.33,3.33,0,0,0-.79-.29,3.25,3.25,0,0,0-.85-.11,2.71,2.71,0,0,0-1.4.38,3.28,3.28,0,0,0-1.08,1,2.3,2.3,0,0,0-.41,1.3v7.09Z"/>
      <path class="cls-2" d="M607.07,1110.08V1109q2.41-1.89,4.18-3.36c1.17-1,2.16-1.86,3-2.63a22,22,0,0,0,1.91-2.09,7.33,7.33,0,0,0,1-1.73,4.11,4.11,0,0,0,.31-1.54,3.82,3.82,0,0,0-.53-2,4,4,0,0,0-1.42-1.45,4,4,0,0,0-4,0,4.42,4.42,0,0,0-1.5,1.51,5.84,5.84,0,0,0-.79,2.25l-1.94-.77a6.71,6.71,0,0,1,.73-2.24,6.17,6.17,0,0,1,1.38-1.77,6.05,6.05,0,0,1,1.92-1.16,6.24,6.24,0,0,1,2.31-.42,6.5,6.5,0,0,1,3.19.79,5.94,5.94,0,0,1,2.25,2.14,5.85,5.85,0,0,1,.82,3.09,5.67,5.67,0,0,1-.26,1.73,7,7,0,0,1-.84,1.75,13.78,13.78,0,0,1-1.58,1.94c-.65.68-1.46,1.44-2.42,2.26s-2.09,1.74-3.4,2.75h8.83v2Z"/>
      <path class="cls-2" d="M631,1110.44a6.6,6.6,0,0,1-3.9-1.19,7.79,7.79,0,0,1-2.6-3.3,13.53,13.53,0,0,1,0-9.86,7.73,7.73,0,0,1,2.6-3.3,7,7,0,0,1,7.79,0,7.71,7.71,0,0,1,2.59,3.3,13.53,13.53,0,0,1,0,9.86,7.77,7.77,0,0,1-2.59,3.3A6.55,6.55,0,0,1,631,1110.44Zm0-2a4.12,4.12,0,0,0,2.66-.92,5.87,5.87,0,0,0,1.76-2.58,12.57,12.57,0,0,0,0-7.86,5.87,5.87,0,0,0-1.76-2.58,4.32,4.32,0,0,0-5.33,0,5.88,5.88,0,0,0-1.77,2.58,12.77,12.77,0,0,0,0,7.86,5.88,5.88,0,0,0,1.77,2.58A4.14,4.14,0,0,0,631,1108.45Z"/>
      <path class="cls-2" d="M641.24,1110.08V1109q2.43-1.89,4.18-3.36c1.18-1,2.16-1.86,3-2.63a20.93,20.93,0,0,0,1.92-2.09,6.94,6.94,0,0,0,1-1.73,4.13,4.13,0,0,0,.32-1.54,3.92,3.92,0,0,0-.53-2,4,4,0,0,0-1.42-1.45,3.83,3.83,0,0,0-2-.54,3.79,3.79,0,0,0-2,.54,4.42,4.42,0,0,0-1.5,1.51,5.68,5.68,0,0,0-.79,2.25l-1.95-.77a7.19,7.19,0,0,1,.73-2.24,6.38,6.38,0,0,1,1.39-1.77,6.12,6.12,0,0,1,1.91-1.16,6.33,6.33,0,0,1,2.32-.42,6.53,6.53,0,0,1,3.19.79,5.84,5.84,0,0,1,3.07,5.23,6,6,0,0,1-.26,1.73,6.68,6.68,0,0,1-.85,1.75,13,13,0,0,1-1.57,1.94c-.66.68-1.46,1.44-2.42,2.26s-2.09,1.74-3.4,2.75h8.83v2Z"/>
      <path class="cls-2" d="M665.13,1110.44a6.55,6.55,0,0,1-3.89-1.19,7.79,7.79,0,0,1-2.6-3.3,13.53,13.53,0,0,1,0-9.86,7.73,7.73,0,0,1,2.6-3.3,7,7,0,0,1,7.78,0,7.73,7.73,0,0,1,2.6,3.3,13.53,13.53,0,0,1,0,9.86,7.79,7.79,0,0,1-2.6,3.3A6.52,6.52,0,0,1,665.13,1110.44Zm0-2a4.14,4.14,0,0,0,2.67-.92,6,6,0,0,0,1.76-2.58,12.77,12.77,0,0,0,0-7.86,6,6,0,0,0-1.76-2.58,4.32,4.32,0,0,0-5.33,0,5.88,5.88,0,0,0-1.77,2.58,12.57,12.57,0,0,0,0,7.86,5.88,5.88,0,0,0,1.77,2.58A4.13,4.13,0,0,0,665.13,1108.45Z"/>
      <path class="cls-2" d="M676.49,1104.63v-1.84h7.08v1.84Z"/>
      <path class="cls-2" d="M693.81,1110.08v-11.26h2.13v1.45a4.88,4.88,0,0,1,1.62-1.35,4.42,4.42,0,0,1,2-.45,4.52,4.52,0,0,1,2.4.62,3.29,3.29,0,0,1,1.44,1.69,5.62,5.62,0,0,1,1.7-1.7,4.3,4.3,0,0,1,2.32-.61,4.5,4.5,0,0,1,2.14.49,3.64,3.64,0,0,1,1.48,1.43,4.49,4.49,0,0,1,.54,2.27v7.42h-2.14v-6.83a3.22,3.22,0,0,0-.73-2.23,2.52,2.52,0,0,0-2-.82,3.2,3.2,0,0,0-1.53.36,3,3,0,0,0-1.06,1,2.21,2.21,0,0,0-.39,1.24v7.32h-2.14v-7a3,3,0,0,0-.72-2.12,2.5,2.5,0,0,0-1.94-.79,3.22,3.22,0,0,0-1.53.35,2.94,2.94,0,0,0-1.09.93,2,2,0,0,0-.41,1.2v7.4Z"/>
      <path class="cls-2" d="M720.67,1110.44a5.32,5.32,0,0,1-2.84-.78,5.57,5.57,0,0,1-2-2.13,6.26,6.26,0,0,1-.75-3.09,6.41,6.41,0,0,1,.73-3.06,5.52,5.52,0,0,1,2-2.13,5.7,5.7,0,0,1,5.5-.14,4.58,4.58,0,0,1,1.83,1.77v-2.06h2.13v11.26h-2.13V1108a5.42,5.42,0,0,1-1.9,1.82A5.14,5.14,0,0,1,720.67,1110.44Zm.57-1.84a4,4,0,0,0,2-.53,3.85,3.85,0,0,0,1.39-1.47,4.85,4.85,0,0,0,0-4.29,3.72,3.72,0,0,0-1.39-1.47,3.9,3.9,0,0,0-2-.54,3.83,3.83,0,0,0-2,.54,3.74,3.74,0,0,0-1.4,1.47,4.74,4.74,0,0,0,0,4.28,3.84,3.84,0,0,0,1.4,1.48A3.91,3.91,0,0,0,721.24,1108.6Z"/>
      <path class="cls-2" d="M730.61,1116.13a5.28,5.28,0,0,1-1.25-.15,2.83,2.83,0,0,1-1-.44l.64-1.72a1.89,1.89,0,0,0,1.22.41c1,0,1.57-.71,1.57-2.12v-13.29h2.14v13.57a4.06,4.06,0,0,1-.86,2.77A3.08,3.08,0,0,1,730.61,1116.13Zm2.23-19.61a1.29,1.29,0,0,1-.67-.18,1.31,1.31,0,0,1-.67-1.16,1.29,1.29,0,0,1,.18-.67,1.33,1.33,0,0,1,.49-.48,1.29,1.29,0,0,1,.67-.18,1.26,1.26,0,0,1,.66.18,1.33,1.33,0,0,1,.49.48,1.29,1.29,0,0,1,.18.67,1.32,1.32,0,0,1-.18.67,1.28,1.28,0,0,1-.49.49A1.26,1.26,0,0,1,732.84,1096.52Z"/>
      <path class="cls-2" d="M743.08,1110.08V1109c1.61-1.26,3-2.38,4.18-3.36s2.16-1.86,3-2.63a20.93,20.93,0,0,0,1.92-2.09,7.26,7.26,0,0,0,1-1.73,4.13,4.13,0,0,0,.32-1.54,3.92,3.92,0,0,0-.53-2,4,4,0,0,0-1.43-1.45,3.77,3.77,0,0,0-2-.54,3.85,3.85,0,0,0-2,.54,4.42,4.42,0,0,0-1.5,1.51,5.67,5.67,0,0,0-.78,2.25l-2-.77a6.94,6.94,0,0,1,.73-2.24,6.2,6.2,0,0,1,1.39-1.77,6.12,6.12,0,0,1,1.91-1.16,6.33,6.33,0,0,1,2.32-.42,6.53,6.53,0,0,1,3.19.79,6,6,0,0,1,2.24,2.14,5.86,5.86,0,0,1,.83,3.09,6,6,0,0,1-.26,1.73,7.37,7.37,0,0,1-.85,1.75,13.64,13.64,0,0,1-1.57,1.94c-.66.68-1.47,1.44-2.42,2.26s-2.1,1.74-3.41,2.75h8.84v2Z"/>
      <path class="cls-2" d="M767,1110.44a6.55,6.55,0,0,1-3.89-1.19,7.72,7.72,0,0,1-2.6-3.3,13.53,13.53,0,0,1,0-9.86,7.66,7.66,0,0,1,2.6-3.3,7,7,0,0,1,7.78,0,7.73,7.73,0,0,1,2.6,3.3,13.53,13.53,0,0,1,0,9.86,7.79,7.79,0,0,1-2.6,3.3A6.55,6.55,0,0,1,767,1110.44Zm0-2a4.1,4.1,0,0,0,2.66-.92,5.79,5.79,0,0,0,1.76-2.58,12.57,12.57,0,0,0,0-7.86,5.79,5.79,0,0,0-1.76-2.58,4.1,4.1,0,0,0-2.66-.92,4.14,4.14,0,0,0-2.67.92,5.87,5.87,0,0,0-1.76,2.58,12.57,12.57,0,0,0,0,7.86,5.87,5.87,0,0,0,1.76,2.58A4.14,4.14,0,0,0,767,1108.45Z"/>
      <path class="cls-2" d="M777.26,1110.08V1109q2.41-1.89,4.18-3.36c1.17-1,2.16-1.86,3-2.63a22,22,0,0,0,1.91-2.09,7.33,7.33,0,0,0,1-1.73,4.11,4.11,0,0,0,.31-1.54,3.82,3.82,0,0,0-.53-2,4,4,0,0,0-1.42-1.45,4,4,0,0,0-4,0,4.42,4.42,0,0,0-1.5,1.51,5.84,5.84,0,0,0-.79,2.25l-1.94-.77a6.71,6.71,0,0,1,.73-2.24,6.18,6.18,0,0,1,3.3-2.93,6.24,6.24,0,0,1,2.31-.42,6.5,6.5,0,0,1,3.19.79,5.94,5.94,0,0,1,2.25,2.14,5.85,5.85,0,0,1,.82,3.09,5.67,5.67,0,0,1-.26,1.73,7,7,0,0,1-.84,1.75,13.78,13.78,0,0,1-1.58,1.94c-.65.68-1.46,1.44-2.42,2.26s-2.09,1.74-3.4,2.75h8.83v2Z"/>
      <path class="cls-2" d="M801.15,1110.44a6.6,6.6,0,0,1-3.9-1.19,7.79,7.79,0,0,1-2.6-3.3,13.53,13.53,0,0,1,0-9.86,7.73,7.73,0,0,1,2.6-3.3,7,7,0,0,1,7.79,0,7.71,7.71,0,0,1,2.59,3.3,13.53,13.53,0,0,1,0,9.86,7.77,7.77,0,0,1-2.59,3.3A6.55,6.55,0,0,1,801.15,1110.44Zm0-2a4.12,4.12,0,0,0,2.66-.92,5.87,5.87,0,0,0,1.76-2.58,12.57,12.57,0,0,0,0-7.86,5.87,5.87,0,0,0-1.76-2.58,4.32,4.32,0,0,0-5.33,0,5.88,5.88,0,0,0-1.77,2.58,12.77,12.77,0,0,0,0,7.86,5.88,5.88,0,0,0,1.77,2.58A4.14,4.14,0,0,0,801.15,1108.45Z"/>
    </g>
    <path class="cls-2" d="M859.3,1377l-2.6-3.41a142.17,142.17,0,0,0,41.34-76l.1-.54c2.7-14.39,9-48.08-4.81-71.67-18.23-31.07-61.05-29.91-146.38-27.59-42.62,1.16-95.66,2.61-162,.61-17.65-.53-35.5-1.28-53.05-2.24l-.23,0c-22.85-4.29-43-19.21-56.7-42-13.48-22.42-19.88-50.89-18-80.16,1.71-26.81,10.83-52.32,25.68-71.81,15-19.72,34.93-31.93,56-34.38h.2c153.26,0,191.66-.29,228.79-.56s75.54-.56,228.81-.56c46-.28,84.41-50,85.51-110.89.6-33.6-10.23-65.78-29.72-88.3-15.46-17.86-35.14-27.84-55.41-28.1-132.55,0-228.72.28-321.71.56s-189.16.56-321.75.56l-.36,0c-19.5-4.06-37.2-17.47-49.82-37.74-12.52-20.11-19-45.29-18.28-70.9.93-32.77,15.84-56.25,28.17-70.17,14.23-16.05,33.21-28.16,49.54-31.6,10-2.12,31.21-3.54,50.37-3.4,8.53.06,17.14.46,25.58,1.17,1,.06,107.86,6.29,216.21-5.64,20.85-2.3,36.49-4.67,54.69-10,20.31-6,58.12-17.06,89-45.47,44.24-40.63,57-100.71,60.71-132.91l4,.56c-3.76,32.86-16.84,94.2-62.14,135.81-31.61,29-70,40.29-90.57,46.34-18.47,5.42-34.26,7.82-55.31,10.14-108.67,12-215.8,5.71-216.87,5.65-8.39-.71-16.9-1.1-25.34-1.16-18.64-.15-40,1.28-49.61,3.32-30.24,6.38-72.93,43.82-74.45,97.52-.7,24.65,5.53,48.87,17.57,68.19s28.69,32,47.08,35.86c132.48,0,228.6-.28,321.55-.56s189.16-.56,321.74-.56c21.38.27,42.06,10.73,58.27,29.46,20.22,23.37,31.46,56.72,30.84,91.51-1.15,63.27-41.29,115-89.49,115.27-153.28,0-191.67.29-228.8.56s-75.53.56-228.71.56c-20.05,2.37-39,14-53.3,32.83s-23.09,43.35-24.74,69.22c-1.8,28.28,4.36,55.74,17.35,77.34s32.22,36,53.92,40.07c17.49,1,35.27,1.7,52.84,2.23,66.24,2,119.23.55,161.8-.6,86.81-2.36,130.38-3.55,149.82,29.6,14.75,25.15,8.19,60.12,5.39,75l-.1.54A146.84,146.84,0,0,1,859.3,1377Z"/>
    <g>
      <path class="cls-2" d="M663.26,1418.42l2.89-23.92h3.13l6.64,17.6,6.64-17.6h3.14l2.88,23.92h-2.94l-2.31-18.53-6.42,17.33h-2l-6.43-17.33-2.3,18.53Z"/>
      <path class="cls-2" d="M700.36,1418.89q-3.58,0-5.14-1.55t-1.55-5.14v-8.63h2.81v8a6.26,6.26,0,0,0,.89,3.8,4.53,4.53,0,0,0,6,0,6.27,6.27,0,0,0,.88-3.8v-8h2.81v8.63c0,2.4-.51,4.11-1.55,5.14S702.75,1418.89,700.36,1418.89Z"/>
      <path class="cls-2" d="M712.7,1418.42v-24.94h2.81v24.94Z"/>
      <path class="cls-2" d="M725.57,1418.89a3.5,3.5,0,0,1-2.84-1.22,5.11,5.11,0,0,1-1-3.4v-8.56h-1.65v-2.14h1.65V1398h2.82v5.55h3.56v2.14h-3.56v8.39a2.85,2.85,0,0,0,.43,1.7,1.47,1.47,0,0,0,1.25.59,2.36,2.36,0,0,0,1.45-.48l.71,2.25a5.36,5.36,0,0,1-1.31.53A5.93,5.93,0,0,1,725.57,1418.89Z"/>
      <path class="cls-2" d="M734.15,1400.57a1.65,1.65,0,0,1-.87-.24,1.78,1.78,0,0,1-.64-.64,1.72,1.72,0,0,1-.24-.89,1.64,1.64,0,0,1,.24-.88,1.84,1.84,0,0,1,.64-.63,1.65,1.65,0,0,1,.87-.24,1.67,1.67,0,0,1,.89.24,1.9,1.9,0,0,1,.63.63,1.63,1.63,0,0,1,.24.87,1.73,1.73,0,0,1-.24.9,1.84,1.84,0,0,1-.63.64A1.67,1.67,0,0,1,734.15,1400.57Zm-1.4,17.85v-14.85h2.81v14.85Z"/>
      <path class="cls-2" d="M741.52,1418.42v-14.85h2.81v1.92a6.49,6.49,0,0,1,2.13-1.79,6.36,6.36,0,0,1,5.8.23,4.34,4.34,0,0,1,1.9,2.23,7.25,7.25,0,0,1,2.24-2.24,5.68,5.68,0,0,1,3.06-.81,6,6,0,0,1,2.82.65,4.86,4.86,0,0,1,2,1.89,5.89,5.89,0,0,1,.71,3v9.79h-2.82v-9a4.27,4.27,0,0,0-1-3,3.28,3.28,0,0,0-2.58-1.08,4.2,4.2,0,0,0-2,.48,4,4,0,0,0-1.4,1.26,2.86,2.86,0,0,0-.52,1.63v9.66h-2.81v-9.19a4,4,0,0,0-1-2.8,3.28,3.28,0,0,0-2.55-1,4.24,4.24,0,0,0-2,.47,3.93,3.93,0,0,0-1.44,1.22,2.75,2.75,0,0,0-.53,1.58v9.76Z"/>
      <path class="cls-2" d="M777.64,1418.89a8.56,8.56,0,0,1-4.19-1,7.76,7.76,0,0,1-2.93-2.81,7.55,7.55,0,0,1-1.07-4,7.78,7.78,0,0,1,.61-3.09,8,8,0,0,1,1.69-2.53,7.78,7.78,0,0,1,2.53-1.7,7.68,7.68,0,0,1,3.07-.61,8.33,8.33,0,0,1,4.07,1,6.85,6.85,0,0,1,2.72,2.67,7.77,7.77,0,0,1,1,4,2.54,2.54,0,0,1,0,.3c0,.08,0,.18-.06.31H772.29a5.3,5.3,0,0,0,.7,2.74,5,5,0,0,0,2,1.86,5.83,5.83,0,0,0,2.85.67,5.77,5.77,0,0,0,2.72-.62,5.9,5.9,0,0,0,2.09-1.85l2.06,1.07a7.26,7.26,0,0,1-2.91,2.72A8.66,8.66,0,0,1,777.64,1418.89Zm-5.21-9.65h9.86a4.29,4.29,0,0,0-.89-2,4.66,4.66,0,0,0-1.72-1.35,5.26,5.26,0,0,0-2.29-.49,5.73,5.73,0,0,0-2.35.47,4.42,4.42,0,0,0-2.61,3.37Z"/>
      <path class="cls-2" d="M796.08,1418.89a7,7,0,0,1-3.73-1,7.29,7.29,0,0,1-2.65-2.8,8.23,8.23,0,0,1-1-4.07,8.36,8.36,0,0,1,1-4,7.44,7.44,0,0,1,2.64-2.81,7.12,7.12,0,0,1,3.82-1,6.93,6.93,0,0,1,3.39.84,6.35,6.35,0,0,1,2.43,2.34v-12.82h2.81v25H802v-2.78a6.87,6.87,0,0,1-2.5,2.38A6.73,6.73,0,0,1,796.08,1418.89Zm.76-2.43a5.18,5.18,0,0,0,2.7-.7,5,5,0,0,0,1.84-1.93,6.38,6.38,0,0,0,0-5.65,5,5,0,0,0-1.84-2,5.5,5.5,0,0,0-5.37,0,5,5,0,0,0-1.85,2,5.8,5.8,0,0,0-.67,2.83,5.9,5.9,0,0,0,.66,2.82,5,5,0,0,0,1.85,1.93A5.08,5.08,0,0,0,796.84,1416.46Z"/>
      <path class="cls-2" d="M812.11,1400.57a1.69,1.69,0,0,1-.88-.24,1.78,1.78,0,0,1-.64-.64,1.72,1.72,0,0,1-.24-.89,1.64,1.64,0,0,1,.24-.88,1.84,1.84,0,0,1,.64-.63,1.69,1.69,0,0,1,.88-.24,1.64,1.64,0,0,1,.88.24,1.9,1.9,0,0,1,.63.63,1.63,1.63,0,0,1,.24.87,1.73,1.73,0,0,1-.24.9,1.84,1.84,0,0,1-.63.64A1.64,1.64,0,0,1,812.11,1400.57Zm-1.41,17.85v-14.85h2.81v14.85Z"/>
      <path class="cls-2" d="M826.48,1418.89a8.53,8.53,0,0,1-4.19-1,7.69,7.69,0,0,1-2.93-2.81,7.55,7.55,0,0,1-1.08-4,8,8,0,0,1,.61-3.09,8,8,0,0,1,1.7-2.53,7.82,7.82,0,0,1,5.6-2.31,8.29,8.29,0,0,1,4.06,1,6.81,6.81,0,0,1,2.73,2.67,7.87,7.87,0,0,1,1,4,2.23,2.23,0,0,1,0,.3c0,.08,0,.18-.05.31H821.13a5.3,5.3,0,0,0,.7,2.74,5,5,0,0,0,1.94,1.86,5.88,5.88,0,0,0,2.85.67,5.6,5.6,0,0,0,4.81-2.47l2.06,1.07a7.17,7.17,0,0,1-2.9,2.72A8.72,8.72,0,0,1,826.48,1418.89Zm-5.21-9.65h9.86a4.29,4.29,0,0,0-.89-2,4.7,4.7,0,0,0-1.73-1.35,5.21,5.21,0,0,0-2.28-.49,5.78,5.78,0,0,0-2.36.47,4.44,4.44,0,0,0-2.6,3.37Z"/>
      <path class="cls-2" d="M844.92,1418.89a7,7,0,0,1-3.73-1,7.39,7.39,0,0,1-2.66-2.8,8.94,8.94,0,0,1,0-8.12,7.29,7.29,0,0,1,2.64-2.81,7.1,7.1,0,0,1,3.82-1,6.92,6.92,0,0,1,3.38.84,6.35,6.35,0,0,1,2.43,2.34v-12.82h2.82v25h-2.82v-2.78a6.92,6.92,0,0,1-2.49,2.38A6.75,6.75,0,0,1,844.92,1418.89Zm.75-2.43a5.13,5.13,0,0,0,2.7-.7,5,5,0,0,0,1.84-1.93,6.29,6.29,0,0,0,0-5.65,4.94,4.94,0,0,0-1.84-2,5.48,5.48,0,0,0-5.36,0,5,5,0,0,0-1.85,2,5.81,5.81,0,0,0-.68,2.83,5.9,5.9,0,0,0,.67,2.82,5,5,0,0,0,1.84,1.93A5.1,5.1,0,0,0,845.67,1416.46Z"/>
      <path class="cls-2" d="M866.55,1418.89a8.58,8.58,0,0,1-4.19-1,7.83,7.83,0,0,1-2.93-2.81,7.64,7.64,0,0,1-1.07-4A7.78,7.78,0,0,1,859,1408a8,8,0,0,1,1.7-2.53,7.63,7.63,0,0,1,2.52-1.7,7.72,7.72,0,0,1,3.07-.61,8.3,8.3,0,0,1,4.07,1,6.81,6.81,0,0,1,2.73,2.67,7.87,7.87,0,0,1,1,4,2.23,2.23,0,0,1,0,.3c0,.08,0,.18-.06.31H861.2a5.3,5.3,0,0,0,.71,2.74,5,5,0,0,0,1.94,1.86,5.88,5.88,0,0,0,2.85.67,5.63,5.63,0,0,0,4.81-2.47l2.06,1.07a7.17,7.17,0,0,1-2.9,2.72A8.73,8.73,0,0,1,866.55,1418.89Zm-5.2-9.65h9.86a4.39,4.39,0,0,0-.89-2,4.7,4.7,0,0,0-1.73-1.35,5.21,5.21,0,0,0-2.28-.49,5.78,5.78,0,0,0-2.36.47,4.48,4.48,0,0,0-1.72,1.34A4.4,4.4,0,0,0,861.35,1409.24Z"/>
      <path class="cls-2" d="M882.56,1418.89a6.51,6.51,0,0,1-3.28-.81,5.91,5.91,0,0,1-2.27-2.3l1.35-1.74a6,6,0,0,0,1.85,2,4.17,4.17,0,0,0,2.34.71,3.37,3.37,0,0,0,1.47-.31,2.52,2.52,0,0,0,1.44-2.35,1.83,1.83,0,0,0-.4-1.26,3.28,3.28,0,0,0-1.17-.8c-.52-.24-1.16-.5-1.94-.8a15.53,15.53,0,0,1-1.79-.86,4.33,4.33,0,0,1-1.43-1.21,2.92,2.92,0,0,1-.56-1.86,3.68,3.68,0,0,1,.66-2.16,4.4,4.4,0,0,1,1.82-1.48,6.16,6.16,0,0,1,2.64-.54,5.89,5.89,0,0,1,2.33.48,7.85,7.85,0,0,1,2.15,1.38l-1.13,1.71a4.54,4.54,0,0,0-3.34-1.59,2.72,2.72,0,0,0-1.78.55,1.79,1.79,0,0,0-.68,1.45,1.5,1.5,0,0,0,.49,1.14,4.77,4.77,0,0,0,1.26.79c.51.22,1,.44,1.6.65a19.08,19.08,0,0,1,2.18,1,3.93,3.93,0,0,1,1.46,1.26,3.78,3.78,0,0,1,.52,2.09,4.68,4.68,0,0,1-.72,2.62,4.62,4.62,0,0,1-2,1.69A7.41,7.41,0,0,1,882.56,1418.89Z"/>
      <path class="cls-2" d="M894.51,1400.57a1.69,1.69,0,0,1-.88-.24,1.87,1.87,0,0,1-.64-.64,1.72,1.72,0,0,1-.24-.89,1.64,1.64,0,0,1,.24-.88,1.93,1.93,0,0,1,.64-.63,1.69,1.69,0,0,1,.88-.24,1.64,1.64,0,0,1,.88.24,1.81,1.81,0,0,1,.63.63,1.63,1.63,0,0,1,.24.87,1.73,1.73,0,0,1-.24.9,1.76,1.76,0,0,1-.63.64A1.64,1.64,0,0,1,894.51,1400.57Zm-1.41,17.85v-14.85h2.82v14.85Z"/>
      <path class="cls-2" d="M908.6,1426.4a9.73,9.73,0,0,1-4.84-1.11,6.65,6.65,0,0,1-2.91-3.21l2.33-1.11a5,5,0,0,0,2.13,2.2,6.58,6.58,0,0,0,3.29.82,6.1,6.1,0,0,0,2.79-.62,4.7,4.7,0,0,0,1.93-1.79,5.21,5.21,0,0,0,.71-2.77v-3.17a6.83,6.83,0,0,1-5.88,3.25,7,7,0,0,1-3.72-1,7.46,7.46,0,0,1-2.66-2.8,8.94,8.94,0,0,1,0-8.12,7.39,7.39,0,0,1,2.65-2.81,7.05,7.05,0,0,1,3.8-1,6.93,6.93,0,0,1,3.39.84,6.21,6.21,0,0,1,2.43,2.34v-2.72h2.81v15.26a8.14,8.14,0,0,1-1,4.07,6.39,6.39,0,0,1-2.81,2.6A10.12,10.12,0,0,1,908.6,1426.4Zm.31-9.94a5.18,5.18,0,0,0,2.7-.7,4.91,4.91,0,0,0,1.85-1.93,6.25,6.25,0,0,0,0-5.65,5,5,0,0,0-1.85-2,5.48,5.48,0,0,0-5.36,0,5,5,0,0,0-1.85,2,5.8,5.8,0,0,0-.67,2.83,5.9,5.9,0,0,0,.66,2.82,5,5,0,0,0,1.84,1.93A5.14,5.14,0,0,0,908.91,1416.46Z"/>
      <path class="cls-2" d="M922.78,1418.42v-14.85h2.82v1.92a5.27,5.27,0,0,1,1.95-1.7,6.45,6.45,0,0,1,3-.68,5.91,5.91,0,0,1,3,.72,4.91,4.91,0,0,1,1.95,2.06,7,7,0,0,1,.69,3.22v9.31H933.4v-8.74a4.71,4.71,0,0,0-1-3.21,3.61,3.61,0,0,0-2.82-1.11,4.2,4.2,0,0,0-2.13.5,3.44,3.44,0,0,0-1.37,1.33,3.59,3.59,0,0,0-.48,1.82v9.41Z"/>
      <path class="cls-2" d="M949.44,1426v-22.39h2.81v2.7a6.4,6.4,0,0,1,2.43-2.33,7,7,0,0,1,3.37-.83,7.12,7.12,0,0,1,3.82,1,7.39,7.39,0,0,1,2.65,2.81,8.92,8.92,0,0,1,0,8.09,7.37,7.37,0,0,1-2.63,2.82,7.1,7.1,0,0,1-3.78,1,6.8,6.8,0,0,1-5.86-3.25V1426Zm7.93-9.5a5.1,5.1,0,0,0,2.68-.7,5,5,0,0,0,1.84-1.93,5.9,5.9,0,0,0,.67-2.82,5.81,5.81,0,0,0-.68-2.83,5,5,0,0,0-1.84-2,5.48,5.48,0,0,0-5.36,0,5,5,0,0,0-1.86,1.94,6.31,6.31,0,0,0,0,5.66,5,5,0,0,0,1.86,1.93A5.11,5.11,0,0,0,957.37,1416.46Z"/>
      <path class="cls-2" d="M976.64,1418.89a7.07,7.07,0,0,1-3.75-1,7.29,7.29,0,0,1-2.65-2.8,8.27,8.27,0,0,1-1-4.08,8.44,8.44,0,0,1,1-4,7.34,7.34,0,0,1,2.63-2.81,7.05,7.05,0,0,1,3.8-1,7.15,7.15,0,0,1,3.44.84,6.06,6.06,0,0,1,2.42,2.34v-2.72h2.81v14.85H982.5v-2.78A7,7,0,0,1,980,1418,6.72,6.72,0,0,1,976.64,1418.89Zm.75-2.43a5.09,5.09,0,0,0,2.69-.7,5,5,0,0,0,1.84-1.93,6.4,6.4,0,0,0,0-5.66,5.05,5.05,0,0,0-1.84-1.94,5.5,5.5,0,0,0-5.37,0,5.08,5.08,0,0,0-1.85,1.94,6.29,6.29,0,0,0,0,5.65,5,5,0,0,0,4.53,2.64Zm1-16.48a4,4,0,0,1-1.85-.42,3.24,3.24,0,0,1-1.33-1.15,3.12,3.12,0,0,1,0-3.36,3.45,3.45,0,0,1,1.33-1.14,4.38,4.38,0,0,1,3.7,0,3.49,3.49,0,0,1,1.32,1.14,3.07,3.07,0,0,1,0,3.36,3.27,3.27,0,0,1-1.32,1.15A4,4,0,0,1,978.38,1400Zm0-1.48a2,2,0,0,0,1.37-.51,1.65,1.65,0,0,0,.56-1.26,1.61,1.61,0,0,0-.56-1.25,2,2,0,0,0-1.37-.5,2,2,0,0,0-1.37.5,1.61,1.61,0,0,0-.56,1.25A1.65,1.65,0,0,0,977,1398,2,2,0,0,0,978.38,1398.5Z"/>
      <path class="cls-2" d="M999.55,1418.42V1394.5h2.94v10.67l10.15-10.67h3.67l-11.19,11.74,12.47,12.18h-4.11l-11-10.64v10.64Z"/>
      <path class="cls-2" d="M1022,1418.42V1394.5h12.43v2.59h-9.48v8.05h9.13v2.58h-9.13v8.11h9.48v2.59Z"/>
      <path class="cls-2" d="M1038.31,1418.42l9.46-23.92h2.74l9.47,23.92h-3.17l-2.66-7h-10l-2.66,7Zm6.82-9.57h8l-4-10.42Z"/>
      <path class="cls-2" d="M770.19,1448.74a4.86,4.86,0,0,1-2.59-.7,5.1,5.1,0,0,1-1.83-1.94,6.21,6.21,0,0,1,0-5.59,5,5,0,0,1,1.81-1.94,4.9,4.9,0,0,1,2.62-.71,5,5,0,0,1,2.37.58,4.24,4.24,0,0,1,1.67,1.61v-1.87h1.94v10.24h-1.94v-1.92a4.76,4.76,0,0,1-1.72,1.65A4.71,4.71,0,0,1,770.19,1448.74Zm.52-1.67a3.54,3.54,0,0,0,1.85-.48,3.48,3.48,0,0,0,1.27-1.34,4.07,4.07,0,0,0,.46-2,4.13,4.13,0,0,0-.46-2,3.57,3.57,0,0,0-6.25,0,4.36,4.36,0,0,0,0,3.9,3.44,3.44,0,0,0,3.13,1.82Z"/>
      <path class="cls-2" d="M784.67,1448.74a3.91,3.91,0,0,1-4.61-4.61v-6H782v5.55a4.3,4.3,0,0,0,.61,2.62,2.45,2.45,0,0,0,2.06.78,2.48,2.48,0,0,0,2.07-.78,4.37,4.37,0,0,0,.61-2.62v-5.55h1.94v6a3.91,3.91,0,0,1-4.62,4.61Z"/>
      <path class="cls-2" d="M797.82,1453.92a6.71,6.71,0,0,1-3.34-.76,4.54,4.54,0,0,1-2-2.22l1.61-.76a3.37,3.37,0,0,0,1.47,1.52,4.63,4.63,0,0,0,2.27.56,4.11,4.11,0,0,0,1.92-.43,3.29,3.29,0,0,0,1.33-1.23,3.64,3.64,0,0,0,.49-1.91v-2.19a4.88,4.88,0,0,1-6.62,1.54,5,5,0,0,1-1.83-1.93,6.14,6.14,0,0,1,0-5.6,4.93,4.93,0,0,1,4.45-2.65,4.89,4.89,0,0,1,2.34.58,4.45,4.45,0,0,1,1.67,1.61v-1.87h1.94v10.52a5.64,5.64,0,0,1-.67,2.81,4.35,4.35,0,0,1-1.93,1.79A7,7,0,0,1,797.82,1453.92Zm.21-6.85a3.58,3.58,0,0,0,1.86-.48,3.51,3.51,0,0,0,1.28-1.34,4.06,4.06,0,0,0,.46-1.94,4,4,0,0,0-.47-2,3.42,3.42,0,0,0-1.27-1.34,3.74,3.74,0,0,0-3.7,0,3.44,3.44,0,0,0-1.28,1.34,4,4,0,0,0-.46,2,4,4,0,0,0,.46,1.94,3.41,3.41,0,0,0,1.27,1.34A3.54,3.54,0,0,0,798,1447.07Z"/>
      <path class="cls-2" d="M812,1448.74a3.91,3.91,0,0,1-4.61-4.61v-6h1.94v5.55a4.3,4.3,0,0,0,.61,2.62,2.45,2.45,0,0,0,2.06.78,2.48,2.48,0,0,0,2.07-.78,4.37,4.37,0,0,0,.61-2.62v-5.55h1.94v6a3.91,3.91,0,0,1-4.62,4.61Z"/>
      <path class="cls-2" d="M823.16,1448.74a4.54,4.54,0,0,1-2.27-.55,4,4,0,0,1-1.56-1.59l.93-1.2a4,4,0,0,0,1.28,1.38,2.85,2.85,0,0,0,1.61.49,2.23,2.23,0,0,0,1-.22,1.7,1.7,0,0,0,1-1.62,1.29,1.29,0,0,0-.28-.86,2.26,2.26,0,0,0-.81-.56c-.36-.16-.8-.34-1.33-.55a10.84,10.84,0,0,1-1.24-.59,3.22,3.22,0,0,1-1-.83,2.06,2.06,0,0,1-.38-1.29,2.57,2.57,0,0,1,.45-1.49,3.06,3.06,0,0,1,1.26-1,4.38,4.38,0,0,1,1.82-.37,4.11,4.11,0,0,1,1.61.33,5.55,5.55,0,0,1,1.48,1l-.78,1.18a3.14,3.14,0,0,0-2.3-1.1,1.85,1.85,0,0,0-1.23.39,1.2,1.2,0,0,0-.47,1,1,1,0,0,0,.34.79,2.81,2.81,0,0,0,.87.54c.35.16.72.31,1.1.45a15.83,15.83,0,0,1,1.5.66,2.72,2.72,0,0,1,1,.88,2.5,2.5,0,0,1,.36,1.43,3.23,3.23,0,0,1-.5,1.81,3.14,3.14,0,0,1-1.39,1.17A5.08,5.08,0,0,1,823.16,1448.74Z"/>
      <path class="cls-2" d="M833.1,1448.74a2.42,2.42,0,0,1-2-.83,3.54,3.54,0,0,1-.7-2.35v-5.91H829.3v-1.47h1.14v-3.83h1.94v3.83h2.46v1.47h-2.46v5.79a1.94,1.94,0,0,0,.3,1.17,1,1,0,0,0,.86.41,1.64,1.64,0,0,0,1-.33l.49,1.55a3.4,3.4,0,0,1-.91.37A4,4,0,0,1,833.1,1448.74Z"/>
      <path class="cls-2" d="M842.3,1448.42v-1c1.46-1.14,2.73-2.15,3.8-3s2-1.69,2.69-2.39a20.89,20.89,0,0,0,1.74-1.9,6.62,6.62,0,0,0,.94-1.57,3.77,3.77,0,0,0,.29-1.4,3.57,3.57,0,0,0-.48-1.83A3.74,3.74,0,0,0,850,1434a3.61,3.61,0,0,0-3.63,0,4,4,0,0,0-1.37,1.37,5.31,5.31,0,0,0-.71,2.05l-1.77-.7a6.27,6.27,0,0,1,.66-2,5.84,5.84,0,0,1,1.26-1.61,5.7,5.7,0,0,1,1.74-1,6.14,6.14,0,0,1,5,.34,5.3,5.3,0,0,1,2.79,4.75,5.2,5.2,0,0,1-.24,1.57,6.3,6.3,0,0,1-.77,1.6,12.58,12.58,0,0,1-1.43,1.76c-.6.62-1.33,1.31-2.2,2s-1.9,1.58-3.09,2.5h8v1.86Z"/>
      <path class="cls-2" d="M864,1448.74a6,6,0,0,1-3.54-1.07,7,7,0,0,1-2.37-3,12.37,12.37,0,0,1,0-9,6.89,6.89,0,0,1,2.37-3,6.33,6.33,0,0,1,7.07,0,6.94,6.94,0,0,1,2.36,3,12.37,12.37,0,0,1,0,9,7,7,0,0,1-2.36,3A6,6,0,0,1,864,1448.74Zm0-1.81a3.72,3.72,0,0,0,2.42-.83,5.34,5.34,0,0,0,1.6-2.35,11.46,11.46,0,0,0,0-7.14,5.45,5.45,0,0,0-1.6-2.35,4,4,0,0,0-4.85,0,5.37,5.37,0,0,0-1.6,2.35,11.46,11.46,0,0,0,0,7.14,5.26,5.26,0,0,0,1.6,2.35A3.73,3.73,0,0,0,864,1446.93Z"/>
      <path class="cls-2" d="M873.37,1448.42v-1c1.46-1.14,2.73-2.15,3.8-3s2-1.69,2.69-2.39a20.89,20.89,0,0,0,1.74-1.9,6.62,6.62,0,0,0,.94-1.57,3.77,3.77,0,0,0,.29-1.4,3.49,3.49,0,0,0-.49-1.83,3.63,3.63,0,0,0-1.29-1.32,3.61,3.61,0,0,0-3.63,0,4,4,0,0,0-1.37,1.37,5.49,5.49,0,0,0-.72,2.05l-1.76-.7a6.27,6.27,0,0,1,.66-2,5.84,5.84,0,0,1,1.26-1.61,5.7,5.7,0,0,1,1.74-1,5.8,5.8,0,0,1,2.1-.38,5.87,5.87,0,0,1,2.91.72,5.38,5.38,0,0,1,2,2,5.29,5.29,0,0,1,.75,2.8,5.2,5.2,0,0,1-.24,1.57,6.3,6.3,0,0,1-.77,1.6,12.58,12.58,0,0,1-1.43,1.76c-.6.62-1.33,1.31-2.2,2s-1.9,1.58-3.1,2.5h8v1.86Z"/>
      <path class="cls-2" d="M895.08,1448.74a6,6,0,0,1-3.54-1.07,7,7,0,0,1-2.36-3,12.23,12.23,0,0,1,0-9,6.94,6.94,0,0,1,2.36-3,6.34,6.34,0,0,1,7.08,0,6.94,6.94,0,0,1,2.36,3,12.37,12.37,0,0,1,0,9,7,7,0,0,1-2.36,3A6,6,0,0,1,895.08,1448.74Zm0-1.81a3.69,3.69,0,0,0,2.42-.83,5.26,5.26,0,0,0,1.6-2.35,11.46,11.46,0,0,0,0-7.14,5.37,5.37,0,0,0-1.6-2.35,3.74,3.74,0,0,0-2.42-.83,3.78,3.78,0,0,0-2.42.83,5.38,5.38,0,0,0-1.61,2.35,11.46,11.46,0,0,0,0,7.14,5.27,5.27,0,0,0,1.61,2.35A3.72,3.72,0,0,0,895.08,1446.93Z"/>
      <path class="cls-2" d="M910.61,1443.46v-1.67h6.44v1.67Z"/>
      <path class="cls-2" d="M926.87,1448.42v-16.5h2l8.34,13.07v-13.07h2v16.5h-2l-8.34-13.06v13.06Z"/>
      <path class="cls-2" d="M950,1448.74a5.8,5.8,0,0,1-4.4-1.56,6.55,6.55,0,0,1-1.48-4.65v-10.61h2V1442a5.58,5.58,0,0,0,1,3.57,4.24,4.24,0,0,0,5.81,0,5.58,5.58,0,0,0,.94-3.57v-10.1h2v10.61a6.51,6.51,0,0,1-1.48,4.65A5.78,5.78,0,0,1,950,1448.74Z"/>
    </g>
  </g>
</svg>
